<svg xmlns="http://www.w3.org/2000/svg" xmlns:xlink="http://www.w3.org/1999/xlink" width="155.067mm" height="35.077mm" viewBox="4049.4 3250.8 610.5 138.1"><title></title><style type="text/css">
*[layerid="1"] {stroke:#000000;fill:#000000;}
*[layerid="2"] {stroke:#000000;fill:#000000;}
*[layerid="3"] {stroke:#000000;fill:#000000;}
*[layerid="4"] {stroke:#000000;fill:#000000;}
*[layerid="5"] {stroke:#000000;fill:#000000;}
*[layerid="6"] {stroke:#000000;fill:#000000;}
*[layerid="7"] {stroke:#000000;fill:#000000;}
*[layerid="8"] {stroke:#000000;fill:#000000;}
*[layerid="9"] {stroke:#000000;fill:#000000;}
*[layerid="10"] {stroke:#000000;fill:#000000;}
*[layerid="11"] {stroke:#000000;fill:#000000;}
*[layerid="12"] {stroke:#000000;fill:#000000;}
*[layerid="13"] {stroke:#000000;fill:#000000;}
*[layerid="14"] {stroke:#000000;fill:#000000;}
*[layerid="15"] {stroke:#000000;fill:#000000;}
*[layerid="19"] {stroke:#000000;fill:#000000;}
*[layerid="21"] {stroke:#000000;fill:#000000;}
*[layerid="22"] {stroke:#000000;fill:#000000;}
*[layerid="23"] {stroke:#000000;fill:#000000;}
*[layerid="24"] {stroke:#000000;fill:#000000;}
*[layerid="25"] {stroke:#000000;fill:#000000;}
*[layerid="26"] {stroke:#000000;fill:#000000;}
*[layerid="27"] {stroke:#000000;fill:#000000;}
*[layerid="28"] {stroke:#000000;fill:#000000;}
*[layerid="29"] {stroke:#000000;fill:#000000;}
*[layerid="30"] {stroke:#000000;fill:#000000;}
*[layerid="31"] {stroke:#000000;fill:#000000;}
*[layerid="32"] {stroke:#000000;fill:#000000;}
*[layerid="33"] {stroke:#000000;fill:#000000;}
*[layerid="34"] {stroke:#000000;fill:#000000;}
*[layerid="35"] {stroke:#000000;fill:#000000;}
*[layerid="36"] {stroke:#000000;fill:#000000;}
*[layerid="37"] {stroke:#000000;fill:#000000;}
*[layerid="38"] {stroke:#000000;fill:#000000;}
*[layerid="39"] {stroke:#000000;fill:#000000;}
*[layerid="40"] {stroke:#000000;fill:#000000;}
*[layerid="41"] {stroke:#000000;fill:#000000;}
*[layerid="42"] {stroke:#000000;fill:#000000;}
*[layerid="43"] {stroke:#000000;fill:#000000;}
*[layerid="44"] {stroke:#000000;fill:#000000;}
*[layerid="45"] {stroke:#000000;fill:#000000;}
*[layerid="46"] {stroke:#000000;fill:#000000;}
*[layerid="47"] {stroke:#000000;fill:#000000;}
*[layerid="48"] {stroke:#000000;fill:#000000;}
*[layerid="49"] {stroke:#000000;fill:#000000;}
*[layerid="50"] {stroke:#000000;fill:#000000;}
*[layerid="51"] {stroke:#000000;fill:#000000;}
*[layerid="52"] {stroke:#000000;fill:#000000;}
*[layerid="99"] {stroke:#000000;fill:#000000;}
*[layerid="100"] {stroke:#000000;fill:#000000;}
*[layerid="101"] {stroke:#000000;fill:#000000;}
*[layerid="Hole"] {stroke:#000000;fill:#000000;}
*[layerid="DRCError"] {stroke:#000000;fill:#000000;}
*[fill="none"] {fill: none;}
*[stroke="none"] {stroke: none;}
path, polyline, polygon, line {stroke-linecap:round;}
g[c_partid="part_pad"][layerid="1"] ellipse:not([c_etype="pad_outer"]) {fill:#000000;}
g[c_partid="part_pad"][layerid="1"] polygon:not([c_etype="pad_outer"]) {fill:#000000;}
g[c_partid="part_pad"][layerid="1"] polyline:not([c_etype="pad_outer"]) {stroke:#000000;}
g[c_partid="part_pad"][layerid="2"] ellipse:not([c_etype="pad_outer"]) {fill:#000000;}
g[c_partid="part_pad"][layerid="2"] polygon:not([c_etype="pad_outer"]) {fill:#000000;}
g[c_partid="part_pad"][layerid="2"] polyline:not([c_etype="pad_outer"]) {stroke:#000000;}
g[c_partid="part_pad"][layerid="11"] ellipse:not([c_etype="pad_outer"]) {fill:#000000;}
g[c_partid="part_pad"][layerid="11"] polygon:not([c_etype="pad_outer"]) {fill:#000000;}
g[c_partid="part_pad"][layerid="11"] polyline:not([c_etype="pad_outer"]) {stroke:#000000;}
g[c_partid="part_pad"][layerid="11"] circle {fill:#FFFFFF;}
g[c_partid="part_pad"][layerid="11"] > polyline:nth-of-type(2) {stroke:#FFFFFF;}
g[c_partid="part_pad"][layerid="11"][c_shape="ELLIPSE"]  polyline:nth-last-of-type(1) {stroke:#FFFFFF;}
g[c_partid="part_pad"][layerid="11"][c_shape="RECT"]  polyline:nth-last-of-type(1) {stroke:#FFFFFF;}
g[c_partid="part_pad"][layerid="11"][c_shape="POLYGON"]  polyline:nth-last-of-type(1) {stroke:#FFFFFF;}
g[c_partid="part_via"] > * + circle, #gCurParts g[c_partid="part_via"] > * + circle {fill:#FFFFFF;}
g[c_partid="part_pad"] > polygon[c_etype="pad_outer"], #gCurParts g[c_partid="part_pad"] > polygon[c_etype="pad_outer"] {stroke-linejoin: round;stroke-miterlimit: 100;}
g[c_partid="part_hole"] > circle {fill: #FFFFFF;}path, polyline, polygon {stroke-linejoin:round;}
rect, circle, ellipse, polyline, line, polygon, path {shape-rendering:crispEdges;}
</style>
<rect x="4049.4" y="3250.8" width="610.5" height="138.1" fill="#FFFFFF" stroke="none"/><polyline points="4457.9951 3368.445 4457.9951 3364.15" stroke-width="1"  stroke-linecap="round" fill="none" layerid="1" net="+3.3V" id="gge4828" locked="0" /><polyline points="4595.7851 3364.15 4591.4901 3368.445 4457.9951 3368.445" stroke-width="1"  stroke-linecap="round" fill="none" layerid="1" net="+3.3V" id="gge4825" locked="0" /><polyline points="4457.9951 3368.445 4285.1201 3368.445 4280.8251 3364.15" stroke-width="1"  stroke-linecap="round" fill="none" layerid="1" net="+3.3V" id="gge4819" locked="0" /><polyline points="4143.0351 3364.15 4147.1101 3368.225 4276.7501 3368.225 4280.8251 3364.15" stroke-width="1"  stroke-linecap="round" fill="none" layerid="1" net="+3.3V" id="gge4816" locked="0" /><polyline points="4261.1401 3364.15 4265.6011 3359.689 4433.8491 3359.689 4438.3101 3364.15" stroke-width="1"  stroke-linecap="round" fill="none" layerid="1" net="AGND" id="gge4792" locked="0" /><polyline points="4453.0741 3293.678 4443.1191 3303.633 4236.0091 3303.633 4204.9521 3334.69" stroke-width="1"  stroke-linecap="round" fill="none" layerid="1" net="B3" id="gge4741" locked="0" /><polyline points="4566.2581 3364.15 4566.2581 3363.545 4539.8561 3337.143 4242.0611 3337.143" stroke-width="1"  stroke-linecap="round" fill="none" layerid="1" net="P4B" id="gge4726" locked="0" /><polyline points="4113.5081 3364.15 4125.2171 3352.441 4206.1471 3352.441" stroke-width="1"  stroke-linecap="round" fill="none" layerid="1" net="P1B" id="gge4720" locked="0" /><polyline points="4275.9041 3293.678 4268.8301 3300.752 4179.1811 3300.752 4168.8811 3311.052" stroke-width="1"  stroke-linecap="round" fill="none" layerid="1" net="B2" id="gge4711" locked="0" /><polyline points="4543.3231 3343.871 4227.1701 3343.871 4220.4421 3337.143" stroke-width="1"  stroke-linecap="round" fill="none" layerid="1" net="P4A" id="gge4693" locked="0" /><polyline points="4133.1921 3364.15 4140.9741 3356.368 4216.7201 3356.368" stroke-width="1"  stroke-linecap="round" fill="none" layerid="1" net="P1A" id="gge4684" locked="0" /><polyline points="4433.3891 3293.678 4429.2031 3289.492 4260.4051 3289.492 4256.2191 3293.678" stroke-width="1"  stroke-linecap="round" fill="none" layerid="1" net="GND" id="gge4651" locked="0" /><polyline points="4571.1791 3293.678 4566.9411 3289.44 4437.6271 3289.44 4433.3891 3293.678" stroke-width="1"  stroke-linecap="round" fill="none" layerid="1" net="GND" id="gge4645" locked="0" /><polyline points="4118.4291 3293.678 4122.5931 3289.514 4250.2551 3289.514" stroke-width="1"  stroke-linecap="round" fill="none" layerid="1" net="GND" id="gge4639" locked="0" /><polyline points="4250.2551 3289.514 4252.0551 3289.514 4256.2191 3293.678" stroke-width="1"  stroke-linecap="round" fill="none" layerid="1" net="GND" id="gge4636" locked="0" /><polyline points="4250.2551 3289.514 4250.2551 3274.342" stroke-width="1"  stroke-linecap="round" fill="none" layerid="1" net="GND" id="gge4630" locked="0" /><g c_partid="part_pad" c_etype="pinpart" c_origin="4123.35,3364.15" layerid="11" number="A1" net="AGND" plated ="Y"  id="gge3535" locked="0" c_rotation="0" c_width="5.937" c_height="5.937" title="AGND" c_shape="ELLIPSE" pasteexpansion="0" solderexpansion="0.2"><ellipse c_etype="pad_shell" cx="4123.35" cy="3364.15" rx="2.9685" ry="2.9685" layerid="11" stroke-width="0"/><polyline c_etype="pad_hole" points="4123.3495 3364.15 4123.3505 3364.15" layerid="11" stroke-width="3.936"></polyline></g><g c_partid="part_pad" c_etype="pinpart" c_origin="4133.192,3364.15" layerid="11" number="A2" net="P1A" plated ="Y"  id="gge3550" locked="0" c_rotation="0" c_width="5.937" c_height="5.937" title="P1A" c_shape="ELLIPSE" pasteexpansion="0" solderexpansion="0.2"><ellipse c_etype="pad_shell" cx="4133.192" cy="3364.15" rx="2.9685" ry="2.9685" layerid="11" stroke-width="0"/><polyline c_etype="pad_hole" points="4133.1915 3364.15 4133.1925 3364.15" layerid="11" stroke-width="3.936"></polyline></g><g c_partid="part_pad" c_etype="pinpart" c_origin="4143.035,3364.15" layerid="11" number="A3" net="+3.3V" plated ="Y"  id="gge3565" locked="0" c_rotation="0" c_width="5.937" c_height="5.937" title="+3.3V" c_shape="ELLIPSE" pasteexpansion="0" solderexpansion="0.2"><ellipse c_etype="pad_shell" cx="4143.035" cy="3364.15" rx="2.9685" ry="2.9685" layerid="11" stroke-width="0"/><polyline c_etype="pad_hole" points="4143.0345 3364.15 4143.0355 3364.15" layerid="11" stroke-width="3.936"></polyline></g><g c_partid="part_pad" c_etype="pinpart" c_origin="4113.508,3364.15" layerid="11" number="B2" net="P1B" plated ="Y"  id="gge3580" locked="0" c_rotation="0" c_width="5.937" c_height="5.937" title="P1B" c_shape="ELLIPSE" pasteexpansion="0" solderexpansion="0.2"><ellipse c_etype="pad_shell" cx="4113.508" cy="3364.15" rx="2.9685" ry="2.9685" layerid="11" stroke-width="0"/><polyline c_etype="pad_hole" points="4113.5075 3364.15 4113.5085 3364.15" layerid="11" stroke-width="3.936"></polyline></g><g c_partid="part_pad" c_etype="pinpart" c_origin="4118.429,3293.678" layerid="11" number="S1" net="GND" plated ="Y"  id="gge3595" locked="0" c_rotation="0" c_width="5.937" c_height="5.937" title="GND" c_shape="ELLIPSE" pasteexpansion="0" solderexpansion="0.2"><ellipse c_etype="pad_shell" cx="4118.429" cy="3293.678" rx="2.9685" ry="2.9685" layerid="11" stroke-width="0"/><polyline c_etype="pad_hole" points="4118.4285 3293.678 4118.4295 3293.678" layerid="11" stroke-width="3.936"></polyline></g><g c_partid="part_pad" c_etype="pinpart" c_origin="4138.114,3293.678" layerid="11" number="S2" net="B1" plated ="Y"  id="gge3610" locked="0" c_rotation="0" c_width="5.937" c_height="5.937" title="B1" c_shape="ELLIPSE" pasteexpansion="0" solderexpansion="0.2"><ellipse c_etype="pad_shell" cx="4138.114" cy="3293.678" rx="2.9685" ry="2.9685" layerid="11" stroke-width="0"/><polyline c_etype="pad_hole" points="4138.1135 3293.678 4138.1145 3293.678" layerid="11" stroke-width="3.936"></polyline></g><g c_partid="part_pad" c_etype="pinpart" c_origin="4102.287,3321.237" layerid="11" number="MH1" net="VR1_MH1" plated ="Y"  id="gge3625" locked="0" c_rotation="0" c_width="17.126" c_height="17.126" title="VR1_MH1" c_shape="ELLIPSE" pasteexpansion="0" solderexpansion="0.2"><ellipse c_etype="pad_shell" cx="4102.287" cy="3321.237" rx="8.563" ry="8.563" layerid="11" stroke-width="0"/><polyline c_etype="pad_hole" points="4102.2865 3321.237 4102.2875 3321.237" layerid="11" stroke-width="11.418"></polyline></g><g c_partid="part_pad" c_etype="pinpart" c_origin="4154.255,3321.237" layerid="11" number="MH2" net="VR1_MH2" plated ="Y"  id="gge3640" locked="0" c_rotation="0" c_width="17.126" c_height="17.126" title="VR1_MH2" c_shape="ELLIPSE" pasteexpansion="0" solderexpansion="0.2"><ellipse c_etype="pad_shell" cx="4154.255" cy="3321.237" rx="8.563" ry="8.563" layerid="11" stroke-width="0"/><polyline c_etype="pad_hole" points="4154.2545 3321.237 4154.2555 3321.237" layerid="11" stroke-width="11.418"></polyline></g><g c_partid="part_pad" c_etype="pinpart" c_origin="4261.14,3364.15" layerid="11" number="A1" net="AGND" plated ="Y"  id="gge3709" locked="0" c_rotation="0" c_width="5.937" c_height="5.937" title="AGND" c_shape="ELLIPSE" pasteexpansion="0" solderexpansion="0.2"><ellipse c_etype="pad_shell" cx="4261.14" cy="3364.15" rx="2.9685" ry="2.9685" layerid="11" stroke-width="0"/><polyline c_etype="pad_hole" points="4261.1395 3364.15 4261.1405 3364.15" layerid="11" stroke-width="3.936"></polyline></g><g c_partid="part_pad" c_etype="pinpart" c_origin="4270.982,3364.15" layerid="11" number="A2" net="P2A" plated ="Y"  id="gge3724" locked="0" c_rotation="0" c_width="5.937" c_height="5.937" title="P2A" c_shape="ELLIPSE" pasteexpansion="0" solderexpansion="0.2"><ellipse c_etype="pad_shell" cx="4270.982" cy="3364.15" rx="2.9685" ry="2.9685" layerid="11" stroke-width="0"/><polyline c_etype="pad_hole" points="4270.9815 3364.15 4270.9825 3364.15" layerid="11" stroke-width="3.936"></polyline></g><g c_partid="part_pad" c_etype="pinpart" c_origin="4280.825,3364.15" layerid="11" number="A3" net="+3.3V" plated ="Y"  id="gge3739" locked="0" c_rotation="0" c_width="5.937" c_height="5.937" title="+3.3V" c_shape="ELLIPSE" pasteexpansion="0" solderexpansion="0.2"><ellipse c_etype="pad_shell" cx="4280.825" cy="3364.15" rx="2.9685" ry="2.9685" layerid="11" stroke-width="0"/><polyline c_etype="pad_hole" points="4280.8245 3364.15 4280.8255 3364.15" layerid="11" stroke-width="3.936"></polyline></g><g c_partid="part_pad" c_etype="pinpart" c_origin="4251.298,3364.15" layerid="11" number="B2" net="P2B" plated ="Y"  id="gge3754" locked="0" c_rotation="0" c_width="5.937" c_height="5.937" title="P2B" c_shape="ELLIPSE" pasteexpansion="0" solderexpansion="0.2"><ellipse c_etype="pad_shell" cx="4251.298" cy="3364.15" rx="2.9685" ry="2.9685" layerid="11" stroke-width="0"/><polyline c_etype="pad_hole" points="4251.2975 3364.15 4251.2985 3364.15" layerid="11" stroke-width="3.936"></polyline></g><g c_partid="part_pad" c_etype="pinpart" c_origin="4256.219,3293.678" layerid="11" number="S1" net="GND" plated ="Y"  id="gge3769" locked="0" c_rotation="0" c_width="5.937" c_height="5.937" title="GND" c_shape="ELLIPSE" pasteexpansion="0" solderexpansion="0.2"><ellipse c_etype="pad_shell" cx="4256.219" cy="3293.678" rx="2.9685" ry="2.9685" layerid="11" stroke-width="0"/><polyline c_etype="pad_hole" points="4256.2185 3293.678 4256.2195 3293.678" layerid="11" stroke-width="3.936"></polyline></g><g c_partid="part_pad" c_etype="pinpart" c_origin="4275.904,3293.678" layerid="11" number="S2" net="B2" plated ="Y"  id="gge3784" locked="0" c_rotation="0" c_width="5.937" c_height="5.937" title="B2" c_shape="ELLIPSE" pasteexpansion="0" solderexpansion="0.2"><ellipse c_etype="pad_shell" cx="4275.904" cy="3293.678" rx="2.9685" ry="2.9685" layerid="11" stroke-width="0"/><polyline c_etype="pad_hole" points="4275.9035 3293.678 4275.9045 3293.678" layerid="11" stroke-width="3.936"></polyline></g><g c_partid="part_pad" c_etype="pinpart" c_origin="4240.077,3321.237" layerid="11" number="MH1" net="VR2_MH1" plated ="Y"  id="gge3799" locked="0" c_rotation="0" c_width="17.126" c_height="17.126" title="VR2_MH1" c_shape="ELLIPSE" pasteexpansion="0" solderexpansion="0.2"><ellipse c_etype="pad_shell" cx="4240.077" cy="3321.237" rx="8.563" ry="8.563" layerid="11" stroke-width="0"/><polyline c_etype="pad_hole" points="4240.0765 3321.237 4240.0775 3321.237" layerid="11" stroke-width="11.418"></polyline></g><g c_partid="part_pad" c_etype="pinpart" c_origin="4292.045,3321.237" layerid="11" number="MH2" net="VR2_MH2" plated ="Y"  id="gge3814" locked="0" c_rotation="0" c_width="17.126" c_height="17.126" title="VR2_MH2" c_shape="ELLIPSE" pasteexpansion="0" solderexpansion="0.2"><ellipse c_etype="pad_shell" cx="4292.045" cy="3321.237" rx="8.563" ry="8.563" layerid="11" stroke-width="0"/><polyline c_etype="pad_hole" points="4292.0445 3321.237 4292.0455 3321.237" layerid="11" stroke-width="11.418"></polyline></g><g c_partid="part_pad" c_etype="pinpart" c_origin="4438.31,3364.15" layerid="11" number="A1" net="AGND" plated ="Y"  id="gge3883" locked="0" c_rotation="0" c_width="5.937" c_height="5.937" title="AGND" c_shape="ELLIPSE" pasteexpansion="0" solderexpansion="0.2"><ellipse c_etype="pad_shell" cx="4438.31" cy="3364.15" rx="2.9685" ry="2.9685" layerid="11" stroke-width="0"/><polyline c_etype="pad_hole" points="4438.3095 3364.15 4438.3105 3364.15" layerid="11" stroke-width="3.936"></polyline></g><g c_partid="part_pad" c_etype="pinpart" c_origin="4448.152,3364.15" layerid="11" number="A2" net="P3A" plated ="Y"  id="gge3898" locked="0" c_rotation="0" c_width="5.937" c_height="5.937" title="P3A" c_shape="ELLIPSE" pasteexpansion="0" solderexpansion="0.2"><ellipse c_etype="pad_shell" cx="4448.152" cy="3364.15" rx="2.9685" ry="2.9685" layerid="11" stroke-width="0"/><polyline c_etype="pad_hole" points="4448.1515 3364.15 4448.1525 3364.15" layerid="11" stroke-width="3.936"></polyline></g><g c_partid="part_pad" c_etype="pinpart" c_origin="4457.995,3364.15" layerid="11" number="A3" net="+3.3V" plated ="Y"  id="gge3913" locked="0" c_rotation="0" c_width="5.937" c_height="5.937" title="+3.3V" c_shape="ELLIPSE" pasteexpansion="0" solderexpansion="0.2"><ellipse c_etype="pad_shell" cx="4457.995" cy="3364.15" rx="2.9685" ry="2.9685" layerid="11" stroke-width="0"/><polyline c_etype="pad_hole" points="4457.9945 3364.15 4457.9955 3364.15" layerid="11" stroke-width="3.936"></polyline></g><g c_partid="part_pad" c_etype="pinpart" c_origin="4428.468,3364.15" layerid="11" number="B2" net="P3B" plated ="Y"  id="gge3928" locked="0" c_rotation="0" c_width="5.937" c_height="5.937" title="P3B" c_shape="ELLIPSE" pasteexpansion="0" solderexpansion="0.2"><ellipse c_etype="pad_shell" cx="4428.468" cy="3364.15" rx="2.9685" ry="2.9685" layerid="11" stroke-width="0"/><polyline c_etype="pad_hole" points="4428.4675 3364.15 4428.4685 3364.15" layerid="11" stroke-width="3.936"></polyline></g><g c_partid="part_pad" c_etype="pinpart" c_origin="4433.389,3293.678" layerid="11" number="S1" net="GND" plated ="Y"  id="gge3943" locked="0" c_rotation="0" c_width="5.937" c_height="5.937" title="GND" c_shape="ELLIPSE" pasteexpansion="0" solderexpansion="0.2"><ellipse c_etype="pad_shell" cx="4433.389" cy="3293.678" rx="2.9685" ry="2.9685" layerid="11" stroke-width="0"/><polyline c_etype="pad_hole" points="4433.3885 3293.678 4433.3895 3293.678" layerid="11" stroke-width="3.936"></polyline></g><g c_partid="part_pad" c_etype="pinpart" c_origin="4453.074,3293.678" layerid="11" number="S2" net="B3" plated ="Y"  id="gge3958" locked="0" c_rotation="0" c_width="5.937" c_height="5.937" title="B3" c_shape="ELLIPSE" pasteexpansion="0" solderexpansion="0.2"><ellipse c_etype="pad_shell" cx="4453.074" cy="3293.678" rx="2.9685" ry="2.9685" layerid="11" stroke-width="0"/><polyline c_etype="pad_hole" points="4453.0735 3293.678 4453.0745 3293.678" layerid="11" stroke-width="3.936"></polyline></g><g c_partid="part_pad" c_etype="pinpart" c_origin="4417.247,3321.237" layerid="11" number="MH1" net="VR3_MH1" plated ="Y"  id="gge3973" locked="0" c_rotation="0" c_width="17.126" c_height="17.126" title="VR3_MH1" c_shape="ELLIPSE" pasteexpansion="0" solderexpansion="0.2"><ellipse c_etype="pad_shell" cx="4417.247" cy="3321.237" rx="8.563" ry="8.563" layerid="11" stroke-width="0"/><polyline c_etype="pad_hole" points="4417.2465 3321.237 4417.2475 3321.237" layerid="11" stroke-width="11.418"></polyline></g><g c_partid="part_pad" c_etype="pinpart" c_origin="4469.215,3321.237" layerid="11" number="MH2" net="VR3_MH2" plated ="Y"  id="gge3988" locked="0" c_rotation="0" c_width="17.126" c_height="17.126" title="VR3_MH2" c_shape="ELLIPSE" pasteexpansion="0" solderexpansion="0.2"><ellipse c_etype="pad_shell" cx="4469.215" cy="3321.237" rx="8.563" ry="8.563" layerid="11" stroke-width="0"/><polyline c_etype="pad_hole" points="4469.2145 3321.237 4469.2155 3321.237" layerid="11" stroke-width="11.418"></polyline></g><g c_partid="part_pad" c_etype="pinpart" c_origin="4576.1,3364.15" layerid="11" number="A1" net="AGND" plated ="Y"  id="gge4060" locked="0" c_rotation="0" c_width="5.937" c_height="5.937" title="AGND" c_shape="ELLIPSE" pasteexpansion="0" solderexpansion="0.2"><ellipse c_etype="pad_shell" cx="4576.1" cy="3364.15" rx="2.9685" ry="2.9685" layerid="11" stroke-width="0"/><polyline c_etype="pad_hole" points="4576.0995 3364.15 4576.1005 3364.15" layerid="11" stroke-width="3.936"></polyline></g><g c_partid="part_pad" c_etype="pinpart" c_origin="4585.942,3364.15" layerid="11" number="A2" net="P4A" plated ="Y"  id="gge4075" locked="0" c_rotation="0" c_width="5.937" c_height="5.937" title="P4A" c_shape="ELLIPSE" pasteexpansion="0" solderexpansion="0.2"><ellipse c_etype="pad_shell" cx="4585.942" cy="3364.15" rx="2.9685" ry="2.9685" layerid="11" stroke-width="0"/><polyline c_etype="pad_hole" points="4585.9415 3364.15 4585.9425 3364.15" layerid="11" stroke-width="3.936"></polyline></g><g c_partid="part_pad" c_etype="pinpart" c_origin="4595.785,3364.15" layerid="11" number="A3" net="+3.3V" plated ="Y"  id="gge4090" locked="0" c_rotation="0" c_width="5.937" c_height="5.937" title="+3.3V" c_shape="ELLIPSE" pasteexpansion="0" solderexpansion="0.2"><ellipse c_etype="pad_shell" cx="4595.785" cy="3364.15" rx="2.9685" ry="2.9685" layerid="11" stroke-width="0"/><polyline c_etype="pad_hole" points="4595.7845 3364.15 4595.7855 3364.15" layerid="11" stroke-width="3.936"></polyline></g><g c_partid="part_pad" c_etype="pinpart" c_origin="4566.258,3364.15" layerid="11" number="B2" net="P4B" plated ="Y"  id="gge4105" locked="0" c_rotation="0" c_width="5.937" c_height="5.937" title="P4B" c_shape="ELLIPSE" pasteexpansion="0" solderexpansion="0.2"><ellipse c_etype="pad_shell" cx="4566.258" cy="3364.15" rx="2.9685" ry="2.9685" layerid="11" stroke-width="0"/><polyline c_etype="pad_hole" points="4566.2575 3364.15 4566.2585 3364.15" layerid="11" stroke-width="3.936"></polyline></g><g c_partid="part_pad" c_etype="pinpart" c_origin="4571.179,3293.678" layerid="11" number="S1" net="GND" plated ="Y"  id="gge4120" locked="0" c_rotation="0" c_width="5.937" c_height="5.937" title="GND" c_shape="ELLIPSE" pasteexpansion="0" solderexpansion="0.2"><ellipse c_etype="pad_shell" cx="4571.179" cy="3293.678" rx="2.9685" ry="2.9685" layerid="11" stroke-width="0"/><polyline c_etype="pad_hole" points="4571.1785 3293.678 4571.1795 3293.678" layerid="11" stroke-width="3.936"></polyline></g><g c_partid="part_pad" c_etype="pinpart" c_origin="4590.864,3293.678" layerid="11" number="S2" net="B4" plated ="Y"  id="gge4135" locked="0" c_rotation="0" c_width="5.937" c_height="5.937" title="B4" c_shape="ELLIPSE" pasteexpansion="0" solderexpansion="0.2"><ellipse c_etype="pad_shell" cx="4590.864" cy="3293.678" rx="2.9685" ry="2.9685" layerid="11" stroke-width="0"/><polyline c_etype="pad_hole" points="4590.8635 3293.678 4590.8645 3293.678" layerid="11" stroke-width="3.936"></polyline></g><g c_partid="part_pad" c_etype="pinpart" c_origin="4555.037,3321.237" layerid="11" number="MH1" net="VR4_MH1" plated ="Y"  id="gge4150" locked="0" c_rotation="0" c_width="17.126" c_height="17.126" title="VR4_MH1" c_shape="ELLIPSE" pasteexpansion="0" solderexpansion="0.2"><ellipse c_etype="pad_shell" cx="4555.037" cy="3321.237" rx="8.563" ry="8.563" layerid="11" stroke-width="0"/><polyline c_etype="pad_hole" points="4555.0365 3321.237 4555.0375 3321.237" layerid="11" stroke-width="11.418"></polyline></g><g c_partid="part_pad" c_etype="pinpart" c_origin="4607.005,3321.237" layerid="11" number="MH2" net="VR4_MH2" plated ="Y"  id="gge4165" locked="0" c_rotation="0" c_width="17.126" c_height="17.126" title="VR4_MH2" c_shape="ELLIPSE" pasteexpansion="0" solderexpansion="0.2"><ellipse c_etype="pad_shell" cx="4607.005" cy="3321.237" rx="8.563" ry="8.563" layerid="11" stroke-width="0"/><polyline c_etype="pad_hole" points="4607.0045 3321.237 4607.0055 3321.237" layerid="11" stroke-width="11.418"></polyline></g><g c_partid="part_via" c_etype="pinpart" c_shapetype="group" net="GND" c_origin="4250.255,3274.342" layerid="11" id="gge4678" locked="0" solderexpansion=""><circle cx="4250.255" cy="3274.342" r="1.2" stroke-width="0" c_etype="pad_shell"/><circle cx="4250.255" cy="3274.342" r="0.6"  stroke-width="0" c_etype="pad_hole"/></g><g c_partid="part_via" c_etype="pinpart" c_shapetype="group" net="P1A" c_origin="4216.72,3356.368" layerid="11" id="gge4690" locked="0" solderexpansion=""><circle cx="4216.72" cy="3356.368" r="1.2" stroke-width="0" c_etype="pad_shell"/><circle cx="4216.72" cy="3356.368" r="0.6"  stroke-width="0" c_etype="pad_hole"/></g><g c_partid="part_via" c_etype="pinpart" c_shapetype="group" net="P4A" c_origin="4220.442,3337.143" layerid="11" id="gge4702" locked="0" solderexpansion=""><circle cx="4220.442" cy="3337.143" r="1.2" stroke-width="0" c_etype="pad_shell"/><circle cx="4220.442" cy="3337.143" r="0.6"  stroke-width="0" c_etype="pad_hole"/></g><g c_partid="part_via" c_etype="pinpart" c_shapetype="group" net="P4A" c_origin="4543.323,3343.871" layerid="11" id="gge4705" locked="0" solderexpansion=""><circle cx="4543.323" cy="3343.871" r="1.2" stroke-width="0" c_etype="pad_shell"/><circle cx="4543.323" cy="3343.871" r="0.6"  stroke-width="0" c_etype="pad_hole"/></g><g c_partid="part_via" c_etype="pinpart" c_shapetype="group" net="B2" c_origin="4168.881,3311.052" layerid="11" id="gge4714" locked="0" solderexpansion=""><circle cx="4168.881" cy="3311.052" r="1.2" stroke-width="0" c_etype="pad_shell"/><circle cx="4168.881" cy="3311.052" r="0.6"  stroke-width="0" c_etype="pad_hole"/></g><g c_partid="part_via" c_etype="pinpart" c_shapetype="group" net="P1B" c_origin="4206.147,3352.441" layerid="11" id="gge4723" locked="0" solderexpansion=""><circle cx="4206.147" cy="3352.441" r="1.2" stroke-width="0" c_etype="pad_shell"/><circle cx="4206.147" cy="3352.441" r="0.6"  stroke-width="0" c_etype="pad_hole"/></g><g c_partid="part_via" c_etype="pinpart" c_shapetype="group" net="P4B" c_origin="4242.061,3337.143" layerid="11" id="gge4732" locked="0" solderexpansion=""><circle cx="4242.061" cy="3337.143" r="1.2" stroke-width="0" c_etype="pad_shell"/><circle cx="4242.061" cy="3337.143" r="0.6"  stroke-width="0" c_etype="pad_hole"/></g><g c_partid="part_via" c_etype="pinpart" c_shapetype="group" net="B3" c_origin="4204.952,3334.69" layerid="11" id="gge4744" locked="0" solderexpansion=""><circle cx="4204.952" cy="3334.69" r="1.2" stroke-width="0" c_etype="pad_shell"/><circle cx="4204.952" cy="3334.69" r="0.6"  stroke-width="0" c_etype="pad_hole"/></g><polyline points="4099.925 3310.41 4099.925 3294.859 4099.925 3310.41" stroke-width="0.394"  stroke-linecap="round" fill="none" layerid="3" net="" id="gge3496" locked="0" /><polyline points="4099.925 3294.859 4113.508 3294.859 4099.925 3294.859" stroke-width="0.394"  stroke-linecap="round" fill="none" layerid="3" net="" id="gge3499" locked="0" /><polyline points="4123.35 3294.859 4133.192 3294.859 4123.35 3294.859" stroke-width="0.394"  stroke-linecap="round" fill="none" layerid="3" net="" id="gge3502" locked="0" /><polyline points="4143.035 3294.859 4156.618 3294.859 4143.035 3294.859" stroke-width="0.394"  stroke-linecap="round" fill="none" layerid="3" net="" id="gge3505" locked="0" /><polyline points="4156.618 3294.859 4156.618 3310.41 4156.618 3294.859" stroke-width="0.394"  stroke-linecap="round" fill="none" layerid="3" net="" id="gge3508" locked="0" /><polyline points="4156.618 3332.063 4156.618 3359.426 4156.618 3332.063" stroke-width="0.394"  stroke-linecap="round" fill="none" layerid="3" net="" id="gge3511" locked="0" /><polyline points="4156.618 3359.426 4147.956 3359.426 4156.618 3359.426" stroke-width="0.394"  stroke-linecap="round" fill="none" layerid="3" net="" id="gge3514" locked="0" /><polyline points="4108.586 3359.426 4099.925 3359.426 4108.586 3359.426" stroke-width="0.394"  stroke-linecap="round" fill="none" layerid="3" net="" id="gge3517" locked="0" /><polyline points="4099.925 3359.426 4099.925 3332.063 4099.925 3359.426" stroke-width="0.394"  stroke-linecap="round" fill="none" layerid="3" net="" id="gge3520" locked="0" /><polyline points="4237.715 3310.41 4237.715 3294.859 4237.715 3310.41" stroke-width="0.394"  stroke-linecap="round" fill="none" layerid="3" net="" id="gge3670" locked="0" /><polyline points="4237.715 3294.859 4251.298 3294.859 4237.715 3294.859" stroke-width="0.394"  stroke-linecap="round" fill="none" layerid="3" net="" id="gge3673" locked="0" /><polyline points="4261.14 3294.859 4270.982 3294.859 4261.14 3294.859" stroke-width="0.394"  stroke-linecap="round" fill="none" layerid="3" net="" id="gge3676" locked="0" /><polyline points="4280.825 3294.859 4294.408 3294.859 4280.825 3294.859" stroke-width="0.394"  stroke-linecap="round" fill="none" layerid="3" net="" id="gge3679" locked="0" /><polyline points="4294.408 3294.859 4294.408 3310.41 4294.408 3294.859" stroke-width="0.394"  stroke-linecap="round" fill="none" layerid="3" net="" id="gge3682" locked="0" /><polyline points="4294.408 3332.063 4294.408 3359.426 4294.408 3332.063" stroke-width="0.394"  stroke-linecap="round" fill="none" layerid="3" net="" id="gge3685" locked="0" /><polyline points="4294.408 3359.426 4285.746 3359.426 4294.408 3359.426" stroke-width="0.394"  stroke-linecap="round" fill="none" layerid="3" net="" id="gge3688" locked="0" /><polyline points="4246.376 3359.426 4237.715 3359.426 4246.376 3359.426" stroke-width="0.394"  stroke-linecap="round" fill="none" layerid="3" net="" id="gge3691" locked="0" /><polyline points="4237.715 3359.426 4237.715 3332.063 4237.715 3359.426" stroke-width="0.394"  stroke-linecap="round" fill="none" layerid="3" net="" id="gge3694" locked="0" /><polyline points="4414.885 3310.41 4414.885 3294.859 4414.885 3310.41" stroke-width="0.394"  stroke-linecap="round" fill="none" layerid="3" net="" id="gge3844" locked="0" /><polyline points="4414.885 3294.859 4428.468 3294.859 4414.885 3294.859" stroke-width="0.394"  stroke-linecap="round" fill="none" layerid="3" net="" id="gge3847" locked="0" /><polyline points="4438.31 3294.859 4448.152 3294.859 4438.31 3294.859" stroke-width="0.394"  stroke-linecap="round" fill="none" layerid="3" net="" id="gge3850" locked="0" /><polyline points="4457.995 3294.859 4471.578 3294.859 4457.995 3294.859" stroke-width="0.394"  stroke-linecap="round" fill="none" layerid="3" net="" id="gge3853" locked="0" /><polyline points="4471.578 3294.859 4471.578 3310.41 4471.578 3294.859" stroke-width="0.394"  stroke-linecap="round" fill="none" layerid="3" net="" id="gge3856" locked="0" /><polyline points="4471.578 3332.063 4471.578 3359.426 4471.578 3332.063" stroke-width="0.394"  stroke-linecap="round" fill="none" layerid="3" net="" id="gge3859" locked="0" /><polyline points="4471.578 3359.426 4462.916 3359.426 4471.578 3359.426" stroke-width="0.394"  stroke-linecap="round" fill="none" layerid="3" net="" id="gge3862" locked="0" /><polyline points="4423.546 3359.426 4414.885 3359.426 4423.546 3359.426" stroke-width="0.394"  stroke-linecap="round" fill="none" layerid="3" net="" id="gge3865" locked="0" /><polyline points="4414.885 3359.426 4414.885 3332.063 4414.885 3359.426" stroke-width="0.394"  stroke-linecap="round" fill="none" layerid="3" net="" id="gge3868" locked="0" /><polyline points="4552.675 3310.41 4552.675 3294.859 4552.675 3310.41" stroke-width="0.394"  stroke-linecap="round" fill="none" layerid="3" net="" id="gge4021" locked="0" /><polyline points="4552.675 3294.859 4566.258 3294.859 4552.675 3294.859" stroke-width="0.394"  stroke-linecap="round" fill="none" layerid="3" net="" id="gge4024" locked="0" /><polyline points="4576.1 3294.859 4585.942 3294.859 4576.1 3294.859" stroke-width="0.394"  stroke-linecap="round" fill="none" layerid="3" net="" id="gge4027" locked="0" /><polyline points="4595.785 3294.859 4609.368 3294.859 4595.785 3294.859" stroke-width="0.394"  stroke-linecap="round" fill="none" layerid="3" net="" id="gge4030" locked="0" /><polyline points="4609.368 3294.859 4609.368 3310.41 4609.368 3294.859" stroke-width="0.394"  stroke-linecap="round" fill="none" layerid="3" net="" id="gge4033" locked="0" /><polyline points="4609.368 3332.063 4609.368 3359.426 4609.368 3332.063" stroke-width="0.394"  stroke-linecap="round" fill="none" layerid="3" net="" id="gge4036" locked="0" /><polyline points="4609.368 3359.426 4600.706 3359.426 4609.368 3359.426" stroke-width="0.394"  stroke-linecap="round" fill="none" layerid="3" net="" id="gge4039" locked="0" /><polyline points="4561.336 3359.426 4552.675 3359.426 4561.336 3359.426" stroke-width="0.394"  stroke-linecap="round" fill="none" layerid="3" net="" id="gge4042" locked="0" /><polyline points="4552.675 3359.426 4552.675 3332.063 4552.675 3359.426" stroke-width="0.394"  stroke-linecap="round" fill="none" layerid="3" net="" id="gge4045" locked="0" /><g c_partid="part_pcbtext" c_etype="" c_origin="4127.346,3278.146" c_rotation="0" c_mirror="0" id="gge972" locked="0" layerid="3" c_shapetype="group" display="none"><path c_fontsize="4.5" c_fontfamily="" c_text="RV142FPF-40B1-15F-0B20K-004" d="M 4127.35 3273.61L4127.35 3277.9 M 4127.35 3273.61L4129.19 3273.61 L4129.8 3273.81 L4130.01 3274.01 L4130.21 3274.42 L4130.21 3274.83 L4130.01 3275.24 L4129.8 3275.45 L4129.19 3275.65 L4127.35 3275.65 M 4128.78 3275.65L4130.21 3277.9 M 4131.56 3273.61L4133.2 3277.9 M 4134.83 3273.61L4133.2 3277.9 M 4136.18 3274.42L4136.59 3274.22 L4137.21 3273.61 L4137.21 3277.9 M 4140.6 3273.61L4138.56 3276.47 L4141.62 3276.47 M 4140.6 3273.61L4140.6 3277.9 M 4143.18 3274.63L4143.18 3274.42 L4143.38 3274.01 L4143.59 3273.81 L4144 3273.61 L4144.81 3273.61 L4145.22 3273.81 L4145.43 3274.01 L4145.63 3274.42 L4145.63 3274.83 L4145.43 3275.24 L4145.02 3275.86 L4142.97 3277.9 L4145.84 3277.9 M 4147.19 3273.61L4147.19 3277.9 M 4147.19 3273.61L4149.85 3273.61 M 4147.19 3275.65L4148.82 3275.65 M 4151.2 3273.61L4151.2 3277.9 M 4151.2 3273.61L4153.04 3273.61 L4153.65 3273.81 L4153.86 3274.01 L4154.06 3274.42 L4154.06 3275.04 L4153.86 3275.45 L4153.65 3275.65 L4153.04 3275.86 L4151.2 3275.86 M 4155.41 3273.61L4155.41 3277.9 M 4155.41 3273.61L4158.07 3273.61 M 4155.41 3275.65L4157.05 3275.65 M 4159.42 3276.06L4163.1 3276.06 M 4166.5 3273.61L4164.45 3276.47 L4167.52 3276.47 M 4166.5 3273.61L4166.5 3277.9 M 4170.1 3273.61L4169.48 3273.81 L4169.07 3274.42 L4168.87 3275.45 L4168.87 3276.06 L4169.07 3277.08 L4169.48 3277.7 L4170.1 3277.9 L4170.51 3277.9 L4171.12 3277.7 L4171.53 3277.08 L4171.73 3276.06 L4171.73 3275.45 L4171.53 3274.42 L4171.12 3273.81 L4170.51 3273.61 L4170.1 3273.61 M 4173.08 3273.61L4173.08 3277.9 M 4173.08 3273.61L4174.92 3273.61 L4175.54 3273.81 L4175.74 3274.01 L4175.95 3274.42 L4175.95 3274.83 L4175.74 3275.24 L4175.54 3275.45 L4174.92 3275.65 M 4173.08 3275.65L4174.92 3275.65 L4175.54 3275.86 L4175.74 3276.06 L4175.95 3276.47 L4175.95 3277.08 L4175.74 3277.49 L4175.54 3277.7 L4174.92 3277.9 L4173.08 3277.9 M 4177.3 3274.42L4177.71 3274.22 L4178.32 3273.61 L4178.32 3277.9 M 4179.67 3276.06L4183.35 3276.06 M 4184.7 3274.42L4185.11 3274.22 L4185.72 3273.61 L4185.72 3277.9 M 4189.53 3273.61L4187.48 3273.61 L4187.28 3275.45 L4187.48 3275.24 L4188.1 3275.04 L4188.71 3275.04 L4189.32 3275.24 L4189.73 3275.65 L4189.94 3276.26 L4189.94 3276.67 L4189.73 3277.29 L4189.32 3277.7 L4188.71 3277.9 L4188.1 3277.9 L4187.48 3277.7 L4187.28 3277.49 L4187.07 3277.08 M 4191.29 3273.61L4191.29 3277.9 M 4191.29 3273.61L4193.95 3273.61 M 4191.29 3275.65L4192.92 3275.65 M 4195.3 3276.06L4198.98 3276.06 M 4201.56 3273.61L4200.94 3273.81 L4200.53 3274.42 L4200.33 3275.45 L4200.33 3276.06 L4200.53 3277.08 L4200.94 3277.7 L4201.56 3277.9 L4201.96 3277.9 L4202.58 3277.7 L4202.99 3277.08 L4203.19 3276.06 L4203.19 3275.45 L4202.99 3274.42 L4202.58 3273.81 L4201.96 3273.61 L4201.56 3273.61 M 4204.54 3273.61L4204.54 3277.9 M 4204.54 3273.61L4206.38 3273.61 L4207 3273.81 L4207.2 3274.01 L4207.41 3274.42 L4207.41 3274.83 L4207.2 3275.24 L4207 3275.45 L4206.38 3275.65 M 4204.54 3275.65L4206.38 3275.65 L4207 3275.86 L4207.2 3276.06 L4207.41 3276.47 L4207.41 3277.08 L4207.2 3277.49 L4207 3277.7 L4206.38 3277.9 L4204.54 3277.9 M 4208.96 3274.63L4208.96 3274.42 L4209.16 3274.01 L4209.37 3273.81 L4209.78 3273.61 L4210.6 3273.61 L4211.01 3273.81 L4211.21 3274.01 L4211.41 3274.42 L4211.41 3274.83 L4211.21 3275.24 L4210.8 3275.86 L4208.76 3277.9 L4211.62 3277.9 M 4214.2 3273.61L4213.58 3273.81 L4213.17 3274.42 L4212.97 3275.45 L4212.97 3276.06 L4213.17 3277.08 L4213.58 3277.7 L4214.2 3277.9 L4214.61 3277.9 L4215.22 3277.7 L4215.63 3277.08 L4215.83 3276.06 L4215.83 3275.45 L4215.63 3274.42 L4215.22 3273.81 L4214.61 3273.61 L4214.2 3273.61 M 4217.18 3273.61L4217.18 3277.9 M 4220.05 3273.61L4217.18 3276.47 M 4218.21 3275.45L4220.05 3277.9 M 4221.4 3276.06L4225.08 3276.06 M 4227.66 3273.61L4227.04 3273.81 L4226.63 3274.42 L4226.43 3275.45 L4226.43 3276.06 L4226.63 3277.08 L4227.04 3277.7 L4227.66 3277.9 L4228.06 3277.9 L4228.68 3277.7 L4229.09 3277.08 L4229.29 3276.06 L4229.29 3275.45 L4229.09 3274.42 L4228.68 3273.81 L4228.06 3273.61 L4227.66 3273.61 M 4231.87 3273.61L4231.26 3273.81 L4230.85 3274.42 L4230.64 3275.45 L4230.64 3276.06 L4230.85 3277.08 L4231.26 3277.7 L4231.87 3277.9 L4232.28 3277.9 L4232.89 3277.7 L4233.3 3277.08 L4233.51 3276.06 L4233.51 3275.45 L4233.3 3274.42 L4232.89 3273.81 L4232.28 3273.61 L4231.87 3273.61 M 4236.9 3273.61L4234.86 3276.47 L4237.92 3276.47 M 4236.9 3273.61L4236.9 3277.9 " fill="none"  stroke-width="0.6" c_note="note_name" /></g><g c_partid="part_pcbtext" c_etype="" c_origin="4127.346,3285.146" c_rotation="0" c_mirror="0" id="gge978" locked="0" layerid="3" c_shapetype="group" ><path c_fontsize="4.5" c_fontfamily="" c_text="VR1" d="M 4127.35 3280.61L4128.98 3284.9 M 4130.62 3280.61L4128.98 3284.9 M 4131.97 3280.61L4131.97 3284.9 M 4131.97 3280.61L4133.81 3280.61 L4134.42 3280.81 L4134.63 3281.01 L4134.83 3281.42 L4134.83 3281.83 L4134.63 3282.24 L4134.42 3282.45 L4133.81 3282.65 L4131.97 3282.65 M 4133.4 3282.65L4134.83 3284.9 M 4136.18 3281.42L4136.59 3281.22 L4137.21 3280.61 L4137.21 3284.9 " fill="none"  stroke-width="0.6" c_note="note_pre" /></g><g c_partid="part_pcbtext" c_etype="" c_origin="4265.141,3278.146" c_rotation="0" c_mirror="0" id="gge1152" locked="0" layerid="3" c_shapetype="group" display="none"><path c_fontsize="4.5" c_fontfamily="" c_text="RV142FPF-40B1-15F-0B20K-004" d="M 4265.14 3273.61L4265.14 3277.9 M 4265.14 3273.61L4266.98 3273.61 L4267.6 3273.81 L4267.8 3274.01 L4268 3274.42 L4268 3274.83 L4267.8 3275.24 L4267.6 3275.45 L4266.98 3275.65 L4265.14 3275.65 M 4266.57 3275.65L4268 3277.9 M 4269.35 3273.61L4270.99 3277.9 M 4272.63 3273.61L4270.99 3277.9 M 4273.98 3274.42L4274.39 3274.22 L4275 3273.61 L4275 3277.9 M 4278.4 3273.61L4276.35 3276.47 L4279.42 3276.47 M 4278.4 3273.61L4278.4 3277.9 M 4280.97 3274.63L4280.97 3274.42 L4281.18 3274.01 L4281.38 3273.81 L4281.79 3273.61 L4282.61 3273.61 L4283.02 3273.81 L4283.22 3274.01 L4283.43 3274.42 L4283.43 3274.83 L4283.22 3275.24 L4282.81 3275.86 L4280.77 3277.9 L4283.63 3277.9 M 4284.98 3273.61L4284.98 3277.9 M 4284.98 3273.61L4287.64 3273.61 M 4284.98 3275.65L4286.62 3275.65 M 4288.99 3273.61L4288.99 3277.9 M 4288.99 3273.61L4290.83 3273.61 L4291.45 3273.81 L4291.65 3274.01 L4291.85 3274.42 L4291.85 3275.04 L4291.65 3275.45 L4291.45 3275.65 L4290.83 3275.86 L4288.99 3275.86 M 4293.2 3273.61L4293.2 3277.9 M 4293.2 3273.61L4295.86 3273.61 M 4293.2 3275.65L4294.84 3275.65 M 4297.21 3276.06L4300.9 3276.06 M 4304.29 3273.61L4302.25 3276.47 L4305.31 3276.47 M 4304.29 3273.61L4304.29 3277.9 M 4307.89 3273.61L4307.28 3273.81 L4306.87 3274.42 L4306.66 3275.45 L4306.66 3276.06 L4306.87 3277.08 L4307.28 3277.7 L4307.89 3277.9 L4308.3 3277.9 L4308.91 3277.7 L4309.32 3277.08 L4309.53 3276.06 L4309.53 3275.45 L4309.32 3274.42 L4308.91 3273.81 L4308.3 3273.61 L4307.89 3273.61 M 4310.88 3273.61L4310.88 3277.9 M 4310.88 3273.61L4312.72 3273.61 L4313.33 3273.81 L4313.54 3274.01 L4313.74 3274.42 L4313.74 3274.83 L4313.54 3275.24 L4313.33 3275.45 L4312.72 3275.65 M 4310.88 3275.65L4312.72 3275.65 L4313.33 3275.86 L4313.54 3276.06 L4313.74 3276.47 L4313.74 3277.08 L4313.54 3277.49 L4313.33 3277.7 L4312.72 3277.9 L4310.88 3277.9 M 4315.09 3274.42L4315.5 3274.22 L4316.11 3273.61 L4316.11 3277.9 M 4317.46 3276.06L4321.15 3276.06 M 4322.5 3274.42L4322.9 3274.22 L4323.52 3273.61 L4323.52 3277.9 M 4327.32 3273.61L4325.28 3273.61 L4325.07 3275.45 L4325.28 3275.24 L4325.89 3275.04 L4326.5 3275.04 L4327.12 3275.24 L4327.53 3275.65 L4327.73 3276.26 L4327.73 3276.67 L4327.53 3277.29 L4327.12 3277.7 L4326.5 3277.9 L4325.89 3277.9 L4325.28 3277.7 L4325.07 3277.49 L4324.87 3277.08 M 4329.08 3273.61L4329.08 3277.9 M 4329.08 3273.61L4331.74 3273.61 M 4329.08 3275.65L4330.72 3275.65 M 4333.09 3276.06L4336.77 3276.06 M 4339.35 3273.61L4338.74 3273.81 L4338.33 3274.42 L4338.12 3275.45 L4338.12 3276.06 L4338.33 3277.08 L4338.74 3277.7 L4339.35 3277.9 L4339.76 3277.9 L4340.37 3277.7 L4340.78 3277.08 L4340.99 3276.06 L4340.99 3275.45 L4340.78 3274.42 L4340.37 3273.81 L4339.76 3273.61 L4339.35 3273.61 M 4342.34 3273.61L4342.34 3277.9 M 4342.34 3273.61L4344.18 3273.61 L4344.79 3273.81 L4345 3274.01 L4345.2 3274.42 L4345.2 3274.83 L4345 3275.24 L4344.79 3275.45 L4344.18 3275.65 M 4342.34 3275.65L4344.18 3275.65 L4344.79 3275.86 L4345 3276.06 L4345.2 3276.47 L4345.2 3277.08 L4345 3277.49 L4344.79 3277.7 L4344.18 3277.9 L4342.34 3277.9 M 4346.75 3274.63L4346.75 3274.42 L4346.96 3274.01 L4347.16 3273.81 L4347.57 3273.61 L4348.39 3273.61 L4348.8 3273.81 L4349 3274.01 L4349.21 3274.42 L4349.21 3274.83 L4349 3275.24 L4348.6 3275.86 L4346.55 3277.9 L4349.41 3277.9 M 4351.99 3273.61L4351.38 3273.81 L4350.97 3274.42 L4350.76 3275.45 L4350.76 3276.06 L4350.97 3277.08 L4351.38 3277.7 L4351.99 3277.9 L4352.4 3277.9 L4353.01 3277.7 L4353.42 3277.08 L4353.63 3276.06 L4353.63 3275.45 L4353.42 3274.42 L4353.01 3273.81 L4352.4 3273.61 L4351.99 3273.61 M 4354.98 3273.61L4354.98 3277.9 M 4357.84 3273.61L4354.98 3276.47 M 4356 3275.45L4357.84 3277.9 M 4359.19 3276.06L4362.87 3276.06 M 4365.45 3273.61L4364.84 3273.81 L4364.43 3274.42 L4364.22 3275.45 L4364.22 3276.06 L4364.43 3277.08 L4364.84 3277.7 L4365.45 3277.9 L4365.86 3277.9 L4366.47 3277.7 L4366.88 3277.08 L4367.09 3276.06 L4367.09 3275.45 L4366.88 3274.42 L4366.47 3273.81 L4365.86 3273.61 L4365.45 3273.61 M 4369.66 3273.61L4369.05 3273.81 L4368.64 3274.42 L4368.44 3275.45 L4368.44 3276.06 L4368.64 3277.08 L4369.05 3277.7 L4369.66 3277.9 L4370.07 3277.9 L4370.69 3277.7 L4371.1 3277.08 L4371.3 3276.06 L4371.3 3275.45 L4371.1 3274.42 L4370.69 3273.81 L4370.07 3273.61 L4369.66 3273.61 M 4374.7 3273.61L4372.65 3276.47 L4375.72 3276.47 M 4374.7 3273.61L4374.7 3277.9 " fill="none"  stroke-width="0.6" c_note="note_name" /></g><g c_partid="part_pcbtext" c_etype="" c_origin="4265.141,3285.146" c_rotation="0" c_mirror="0" id="gge1158" locked="0" layerid="3" c_shapetype="group" ><path c_fontsize="4.5" c_fontfamily="" c_text="VR2" d="M 4265.14 3280.61L4266.78 3284.9 M 4268.41 3280.61L4266.78 3284.9 M 4269.76 3280.61L4269.76 3284.9 M 4269.76 3280.61L4271.6 3280.61 L4272.22 3280.81 L4272.42 3281.01 L4272.63 3281.42 L4272.63 3281.83 L4272.42 3282.24 L4272.22 3282.45 L4271.6 3282.65 L4269.76 3282.65 M 4271.2 3282.65L4272.63 3284.9 M 4274.18 3281.63L4274.18 3281.42 L4274.39 3281.01 L4274.59 3280.81 L4275 3280.61 L4275.82 3280.61 L4276.23 3280.81 L4276.43 3281.01 L4276.64 3281.42 L4276.64 3281.83 L4276.43 3282.24 L4276.02 3282.86 L4273.98 3284.9 L4276.84 3284.9 " fill="none"  stroke-width="0.6" c_note="note_pre" /></g><g c_partid="part_pcbtext" c_etype="" c_origin="4442.306,3278.146" c_rotation="0" c_mirror="0" id="gge1332" locked="0" layerid="3" c_shapetype="group" display="none"><path c_fontsize="4.5" c_fontfamily="" c_text="RV142FPF-40B1-15F-0B20K-004" d="M 4442.31 3273.61L4442.31 3277.9 M 4442.31 3273.61L4444.15 3273.61 L4444.76 3273.81 L4444.97 3274.01 L4445.17 3274.42 L4445.17 3274.83 L4444.97 3275.24 L4444.76 3275.45 L4444.15 3275.65 L4442.31 3275.65 M 4443.74 3275.65L4445.17 3277.9 M 4446.52 3273.61L4448.16 3277.9 M 4449.79 3273.61L4448.16 3277.9 M 4451.14 3274.42L4451.55 3274.22 L4452.17 3273.61 L4452.17 3277.9 M 4455.56 3273.61L4453.52 3276.47 L4456.58 3276.47 M 4455.56 3273.61L4455.56 3277.9 M 4458.14 3274.63L4458.14 3274.42 L4458.34 3274.01 L4458.55 3273.81 L4458.96 3273.61 L4459.77 3273.61 L4460.18 3273.81 L4460.39 3274.01 L4460.59 3274.42 L4460.59 3274.83 L4460.39 3275.24 L4459.98 3275.86 L4457.93 3277.9 L4460.8 3277.9 M 4462.15 3273.61L4462.15 3277.9 M 4462.15 3273.61L4464.81 3273.61 M 4462.15 3275.65L4463.78 3275.65 M 4466.16 3273.61L4466.16 3277.9 M 4466.16 3273.61L4468 3273.61 L4468.61 3273.81 L4468.82 3274.01 L4469.02 3274.42 L4469.02 3275.04 L4468.82 3275.45 L4468.61 3275.65 L4468 3275.86 L4466.16 3275.86 M 4470.37 3273.61L4470.37 3277.9 M 4470.37 3273.61L4473.03 3273.61 M 4470.37 3275.65L4472.01 3275.65 M 4474.38 3276.06L4478.06 3276.06 M 4481.46 3273.61L4479.41 3276.47 L4482.48 3276.47 M 4481.46 3273.61L4481.46 3277.9 M 4485.06 3273.61L4484.44 3273.81 L4484.03 3274.42 L4483.83 3275.45 L4483.83 3276.06 L4484.03 3277.08 L4484.44 3277.7 L4485.06 3277.9 L4485.47 3277.9 L4486.08 3277.7 L4486.49 3277.08 L4486.69 3276.06 L4486.69 3275.45 L4486.49 3274.42 L4486.08 3273.81 L4485.47 3273.61 L4485.06 3273.61 M 4488.04 3273.61L4488.04 3277.9 M 4488.04 3273.61L4489.88 3273.61 L4490.5 3273.81 L4490.7 3274.01 L4490.91 3274.42 L4490.91 3274.83 L4490.7 3275.24 L4490.5 3275.45 L4489.88 3275.65 M 4488.04 3275.65L4489.88 3275.65 L4490.5 3275.86 L4490.7 3276.06 L4490.91 3276.47 L4490.91 3277.08 L4490.7 3277.49 L4490.5 3277.7 L4489.88 3277.9 L4488.04 3277.9 M 4492.26 3274.42L4492.67 3274.22 L4493.28 3273.61 L4493.28 3277.9 M 4494.63 3276.06L4498.31 3276.06 M 4499.66 3274.42L4500.07 3274.22 L4500.68 3273.61 L4500.68 3277.9 M 4504.49 3273.61L4502.44 3273.61 L4502.24 3275.45 L4502.44 3275.24 L4503.06 3275.04 L4503.67 3275.04 L4504.28 3275.24 L4504.69 3275.65 L4504.9 3276.26 L4504.9 3276.67 L4504.69 3277.29 L4504.28 3277.7 L4503.67 3277.9 L4503.06 3277.9 L4502.44 3277.7 L4502.24 3277.49 L4502.03 3277.08 M 4506.25 3273.61L4506.25 3277.9 M 4506.25 3273.61L4508.91 3273.61 M 4506.25 3275.65L4507.88 3275.65 M 4510.26 3276.06L4513.94 3276.06 M 4516.52 3273.61L4515.9 3273.81 L4515.49 3274.42 L4515.29 3275.45 L4515.29 3276.06 L4515.49 3277.08 L4515.9 3277.7 L4516.52 3277.9 L4516.92 3277.9 L4517.54 3277.7 L4517.95 3277.08 L4518.15 3276.06 L4518.15 3275.45 L4517.95 3274.42 L4517.54 3273.81 L4516.92 3273.61 L4516.52 3273.61 M 4519.5 3273.61L4519.5 3277.9 M 4519.5 3273.61L4521.34 3273.61 L4521.96 3273.81 L4522.16 3274.01 L4522.37 3274.42 L4522.37 3274.83 L4522.16 3275.24 L4521.96 3275.45 L4521.34 3275.65 M 4519.5 3275.65L4521.34 3275.65 L4521.96 3275.86 L4522.16 3276.06 L4522.37 3276.47 L4522.37 3277.08 L4522.16 3277.49 L4521.96 3277.7 L4521.34 3277.9 L4519.5 3277.9 M 4523.92 3274.63L4523.92 3274.42 L4524.12 3274.01 L4524.33 3273.81 L4524.74 3273.61 L4525.56 3273.61 L4525.97 3273.81 L4526.17 3274.01 L4526.37 3274.42 L4526.37 3274.83 L4526.17 3275.24 L4525.76 3275.86 L4523.72 3277.9 L4526.58 3277.9 M 4529.16 3273.61L4528.54 3273.81 L4528.13 3274.42 L4527.93 3275.45 L4527.93 3276.06 L4528.13 3277.08 L4528.54 3277.7 L4529.16 3277.9 L4529.57 3277.9 L4530.18 3277.7 L4530.59 3277.08 L4530.79 3276.06 L4530.79 3275.45 L4530.59 3274.42 L4530.18 3273.81 L4529.57 3273.61 L4529.16 3273.61 M 4532.14 3273.61L4532.14 3277.9 M 4535.01 3273.61L4532.14 3276.47 M 4533.17 3275.45L4535.01 3277.9 M 4536.36 3276.06L4540.04 3276.06 M 4542.62 3273.61L4542 3273.81 L4541.59 3274.42 L4541.39 3275.45 L4541.39 3276.06 L4541.59 3277.08 L4542 3277.7 L4542.62 3277.9 L4543.02 3277.9 L4543.64 3277.7 L4544.05 3277.08 L4544.25 3276.06 L4544.25 3275.45 L4544.05 3274.42 L4543.64 3273.81 L4543.02 3273.61 L4542.62 3273.61 M 4546.83 3273.61L4546.22 3273.81 L4545.81 3274.42 L4545.6 3275.45 L4545.6 3276.06 L4545.81 3277.08 L4546.22 3277.7 L4546.83 3277.9 L4547.24 3277.9 L4547.85 3277.7 L4548.26 3277.08 L4548.47 3276.06 L4548.47 3275.45 L4548.26 3274.42 L4547.85 3273.81 L4547.24 3273.61 L4546.83 3273.61 M 4551.86 3273.61L4549.82 3276.47 L4552.88 3276.47 M 4551.86 3273.61L4551.86 3277.9 " fill="none"  stroke-width="0.6" c_note="note_name" /></g><g c_partid="part_pcbtext" c_etype="" c_origin="4442.306,3285.146" c_rotation="0" c_mirror="0" id="gge1338" locked="0" layerid="3" c_shapetype="group" ><path c_fontsize="4.5" c_fontfamily="" c_text="VR3" d="M 4442.31 3280.61L4443.94 3284.9 M 4445.58 3280.61L4443.94 3284.9 M 4446.93 3280.61L4446.93 3284.9 M 4446.93 3280.61L4448.77 3280.61 L4449.38 3280.81 L4449.59 3281.01 L4449.79 3281.42 L4449.79 3281.83 L4449.59 3282.24 L4449.38 3282.45 L4448.77 3282.65 L4446.93 3282.65 M 4448.36 3282.65L4449.79 3284.9 M 4451.55 3280.61L4453.8 3280.61 L4452.57 3282.24 L4453.19 3282.24 L4453.6 3282.45 L4453.8 3282.65 L4454.01 3283.26 L4454.01 3283.67 L4453.8 3284.29 L4453.39 3284.7 L4452.78 3284.9 L4452.17 3284.9 L4451.55 3284.7 L4451.35 3284.49 L4451.14 3284.08 " fill="none"  stroke-width="0.6" c_note="note_pre" /></g><g c_partid="part_pcbtext" c_etype="" c_origin="4580.101,3278.146" c_rotation="0" c_mirror="0" id="gge1512" locked="0" layerid="3" c_shapetype="group" display="none"><path c_fontsize="4.5" c_fontfamily="" c_text="RV142FPF-40B1-15F-0B20K-004" d="M 4580.1 3273.61L4580.1 3277.9 M 4580.1 3273.61L4581.94 3273.61 L4582.56 3273.81 L4582.76 3274.01 L4582.96 3274.42 L4582.96 3274.83 L4582.76 3275.24 L4582.56 3275.45 L4581.94 3275.65 L4580.1 3275.65 M 4581.53 3275.65L4582.96 3277.9 M 4584.31 3273.61L4585.95 3277.9 M 4587.59 3273.61L4585.95 3277.9 M 4588.94 3274.42L4589.35 3274.22 L4589.96 3273.61 L4589.96 3277.9 M 4593.36 3273.61L4591.31 3276.47 L4594.38 3276.47 M 4593.36 3273.61L4593.36 3277.9 M 4595.93 3274.63L4595.93 3274.42 L4596.14 3274.01 L4596.34 3273.81 L4596.75 3273.61 L4597.57 3273.61 L4597.98 3273.81 L4598.18 3274.01 L4598.39 3274.42 L4598.39 3274.83 L4598.18 3275.24 L4597.77 3275.86 L4595.73 3277.9 L4598.59 3277.9 M 4599.94 3273.61L4599.94 3277.9 M 4599.94 3273.61L4602.6 3273.61 M 4599.94 3275.65L4601.58 3275.65 M 4603.95 3273.61L4603.95 3277.9 M 4603.95 3273.61L4605.79 3273.61 L4606.41 3273.81 L4606.61 3274.01 L4606.81 3274.42 L4606.81 3275.04 L4606.61 3275.45 L4606.41 3275.65 L4605.79 3275.86 L4603.95 3275.86 M 4608.16 3273.61L4608.16 3277.9 M 4608.16 3273.61L4610.82 3273.61 M 4608.16 3275.65L4609.8 3275.65 M 4612.17 3276.06L4615.86 3276.06 M 4619.25 3273.61L4617.21 3276.47 L4620.27 3276.47 M 4619.25 3273.61L4619.25 3277.9 M 4622.85 3273.61L4622.24 3273.81 L4621.83 3274.42 L4621.62 3275.45 L4621.62 3276.06 L4621.83 3277.08 L4622.24 3277.7 L4622.85 3277.9 L4623.26 3277.9 L4623.87 3277.7 L4624.28 3277.08 L4624.49 3276.06 L4624.49 3275.45 L4624.28 3274.42 L4623.87 3273.81 L4623.26 3273.61 L4622.85 3273.61 M 4625.84 3273.61L4625.84 3277.9 M 4625.84 3273.61L4627.68 3273.61 L4628.29 3273.81 L4628.5 3274.01 L4628.7 3274.42 L4628.7 3274.83 L4628.5 3275.24 L4628.29 3275.45 L4627.68 3275.65 M 4625.84 3275.65L4627.68 3275.65 L4628.29 3275.86 L4628.5 3276.06 L4628.7 3276.47 L4628.7 3277.08 L4628.5 3277.49 L4628.29 3277.7 L4627.68 3277.9 L4625.84 3277.9 M 4630.05 3274.42L4630.46 3274.22 L4631.07 3273.61 L4631.07 3277.9 M 4632.42 3276.06L4636.11 3276.06 M 4637.46 3274.42L4637.86 3274.22 L4638.48 3273.61 L4638.48 3277.9 M 4642.28 3273.61L4640.24 3273.61 L4640.03 3275.45 L4640.24 3275.24 L4640.85 3275.04 L4641.46 3275.04 L4642.08 3275.24 L4642.49 3275.65 L4642.69 3276.26 L4642.69 3276.67 L4642.49 3277.29 L4642.08 3277.7 L4641.46 3277.9 L4640.85 3277.9 L4640.24 3277.7 L4640.03 3277.49 L4639.83 3277.08 M 4644.04 3273.61L4644.04 3277.9 M 4644.04 3273.61L4646.7 3273.61 M 4644.04 3275.65L4645.68 3275.65 M 4648.05 3276.06L4651.73 3276.06 M 4654.31 3273.61L4653.7 3273.81 L4653.29 3274.42 L4653.08 3275.45 L4653.08 3276.06 L4653.29 3277.08 L4653.7 3277.7 L4654.31 3277.9 L4654.72 3277.9 L4655.33 3277.7 L4655.74 3277.08 L4655.95 3276.06 L4655.95 3275.45 L4655.74 3274.42 L4655.33 3273.81 L4654.72 3273.61 L4654.31 3273.61 M 4657.3 3273.61L4657.3 3277.9 M 4657.3 3273.61L4659.14 3273.61 L4659.75 3273.81 L4659.96 3274.01 L4660.16 3274.42 L4660.16 3274.83 L4659.96 3275.24 L4659.75 3275.45 L4659.14 3275.65 M 4657.3 3275.65L4659.14 3275.65 L4659.75 3275.86 L4659.96 3276.06 L4660.16 3276.47 L4660.16 3277.08 L4659.96 3277.49 L4659.75 3277.7 L4659.14 3277.9 L4657.3 3277.9 M 4661.71 3274.63L4661.71 3274.42 L4661.92 3274.01 L4662.12 3273.81 L4662.53 3273.61 L4663.35 3273.61 L4663.76 3273.81 L4663.96 3274.01 L4664.17 3274.42 L4664.17 3274.83 L4663.96 3275.24 L4663.56 3275.86 L4661.51 3277.9 L4664.37 3277.9 M 4666.95 3273.61L4666.34 3273.81 L4665.93 3274.42 L4665.72 3275.45 L4665.72 3276.06 L4665.93 3277.08 L4666.34 3277.7 L4666.95 3277.9 L4667.36 3277.9 L4667.97 3277.7 L4668.38 3277.08 L4668.59 3276.06 L4668.59 3275.45 L4668.38 3274.42 L4667.97 3273.81 L4667.36 3273.61 L4666.95 3273.61 M 4669.94 3273.61L4669.94 3277.9 M 4672.8 3273.61L4669.94 3276.47 M 4670.96 3275.45L4672.8 3277.9 M 4674.15 3276.06L4677.83 3276.06 M 4680.41 3273.61L4679.8 3273.81 L4679.39 3274.42 L4679.18 3275.45 L4679.18 3276.06 L4679.39 3277.08 L4679.8 3277.7 L4680.41 3277.9 L4680.82 3277.9 L4681.43 3277.7 L4681.84 3277.08 L4682.05 3276.06 L4682.05 3275.45 L4681.84 3274.42 L4681.43 3273.81 L4680.82 3273.61 L4680.41 3273.61 M 4684.62 3273.61L4684.01 3273.81 L4683.6 3274.42 L4683.4 3275.45 L4683.4 3276.06 L4683.6 3277.08 L4684.01 3277.7 L4684.62 3277.9 L4685.03 3277.9 L4685.65 3277.7 L4686.06 3277.08 L4686.26 3276.06 L4686.26 3275.45 L4686.06 3274.42 L4685.65 3273.81 L4685.03 3273.61 L4684.62 3273.61 M 4689.66 3273.61L4687.61 3276.47 L4690.68 3276.47 M 4689.66 3273.61L4689.66 3277.9 " fill="none"  stroke-width="0.6" c_note="note_name" /></g><g c_partid="part_pcbtext" c_etype="" c_origin="4580.101,3285.146" c_rotation="0" c_mirror="0" id="gge1518" locked="0" layerid="3" c_shapetype="group" ><path c_fontsize="4.5" c_fontfamily="" c_text="VR4" d="M 4580.1 3280.61L4581.74 3284.9 M 4583.37 3280.61L4581.74 3284.9 M 4584.72 3280.61L4584.72 3284.9 M 4584.72 3280.61L4586.56 3280.61 L4587.18 3280.81 L4587.38 3281.01 L4587.59 3281.42 L4587.59 3281.83 L4587.38 3282.24 L4587.18 3282.45 L4586.56 3282.65 L4584.72 3282.65 M 4586.16 3282.65L4587.59 3284.9 M 4590.98 3280.61L4588.94 3283.47 L4592.01 3283.47 M 4590.98 3280.61L4590.98 3284.9 " fill="none"  stroke-width="0.6" c_note="note_pre" /></g><path d="M 4123.35 3370.056 A 0.197 0.197 0 0 0 4123.35 3370.449" locked="0"  fill="none" stroke-width="0.787" c_helper_type="arc2" net="" layerid="3" id="gge3526" /><path d="M 4123.35 3370.449 A 0.197 0.197 0 0 0 4123.35 3370.056" locked="0"  fill="none" stroke-width="0.787" c_helper_type="arc2" net="" layerid="3" id="gge3529" /><path d="M 4123.35 3370.056 A 0.197 0.197 0 0 0 4123.35 3370.449" locked="0"  fill="none" stroke-width="0.787" c_helper_type="arc2" net="" layerid="3" id="gge3532" /><path d="M 4261.14 3370.056 A 0.197 0.197 0 0 0 4261.14 3370.449" locked="0"  fill="none" stroke-width="0.787" c_helper_type="arc2" net="" layerid="3" id="gge3700" /><path d="M 4261.14 3370.449 A 0.197 0.197 0 0 0 4261.14 3370.056" locked="0"  fill="none" stroke-width="0.787" c_helper_type="arc2" net="" layerid="3" id="gge3703" /><path d="M 4261.14 3370.056 A 0.197 0.197 0 0 0 4261.14 3370.449" locked="0"  fill="none" stroke-width="0.787" c_helper_type="arc2" net="" layerid="3" id="gge3706" /><path d="M 4438.31 3370.056 A 0.197 0.197 0 0 0 4438.31 3370.449" locked="0"  fill="none" stroke-width="0.787" c_helper_type="arc2" net="" layerid="3" id="gge3874" /><path d="M 4438.31 3370.449 A 0.197 0.197 0 0 0 4438.31 3370.056" locked="0"  fill="none" stroke-width="0.787" c_helper_type="arc2" net="" layerid="3" id="gge3877" /><path d="M 4438.31 3370.056 A 0.197 0.197 0 0 0 4438.31 3370.449" locked="0"  fill="none" stroke-width="0.787" c_helper_type="arc2" net="" layerid="3" id="gge3880" /><path d="M 4576.1 3370.056 A 0.197 0.197 0 0 0 4576.1 3370.449" locked="0"  fill="none" stroke-width="0.787" c_helper_type="arc2" net="" layerid="3" id="gge4051" /><path d="M 4576.1 3370.449 A 0.197 0.197 0 0 0 4576.1 3370.056" locked="0"  fill="none" stroke-width="0.787" c_helper_type="arc2" net="" layerid="3" id="gge4054" /><path d="M 4576.1 3370.056 A 0.197 0.197 0 0 0 4576.1 3370.449" locked="0"  fill="none" stroke-width="0.787" c_helper_type="arc2" net="" layerid="3" id="gge4057" /><polyline points="4059.37 3260.8 4649.92 3260.8 4649.92 3378.91 4059.37 3378.91 4059.37 3260.8" stroke-width="1"  stroke-linecap="round" fill="none" layerid="10" net="" id="gge1797" locked="0" /></svg>