solid OpenSCAD_Model
  facet normal -1 0 0
    outer loop
      vertex -15 -19 -1
      vertex -15 19 1
      vertex -15 19 -1
    endloop
  endfacet
  facet normal -1 -0 0
    outer loop
      vertex -15 19 1
      vertex -15 -19 -1
      vertex -15 -19 1
    endloop
  endfacet
  facet normal 0 0 1
    outer loop
      vertex 9 6 1
      vertex 6 5.95 1
      vertex 7 5.95 1
    endloop
  endfacet
  facet normal 0 0 1
    outer loop
      vertex 6 5.95 1
      vertex 3.7 0 1
      vertex 6 -5.95 1
    endloop
  endfacet
  facet normal 0 0 1
    outer loop
      vertex 6 5.95 1
      vertex 3.67082 0.463733 1
      vertex 3.7 0 1
    endloop
  endfacet
  facet normal 0 0 1
    outer loop
      vertex 6 5.95 1
      vertex 3.58376 0.920152 1
      vertex 3.67082 0.463733 1
    endloop
  endfacet
  facet normal 0 0 1
    outer loop
      vertex 6 5.95 1
      vertex 3.44017 1.36206 1
      vertex 3.58376 0.920152 1
    endloop
  endfacet
  facet normal 0 0 1
    outer loop
      vertex 6 5.95 1
      vertex 3.24233 1.78249 1
      vertex 3.44017 1.36206 1
    endloop
  endfacet
  facet normal 0 0 1
    outer loop
      vertex 6 5.95 1
      vertex 2.99336 2.1748 1
      vertex 3.24233 1.78249 1
    endloop
  endfacet
  facet normal 0 0 1
    outer loop
      vertex 6 5.95 1
      vertex 2.69718 2.53282 1
      vertex 2.99336 2.1748 1
    endloop
  endfacet
  facet normal 0 0 1
    outer loop
      vertex 6 5.95 1
      vertex 2.35847 2.8509 1
      vertex 2.69718 2.53282 1
    endloop
  endfacet
  facet normal 0 0 1
    outer loop
      vertex 6 5.95 1
      vertex 1.98256 3.12401 1
      vertex 2.35847 2.8509 1
    endloop
  endfacet
  facet normal 0 0 1
    outer loop
      vertex 6 5.95 1
      vertex 1.57538 3.34786 1
      vertex 1.98256 3.12401 1
    endloop
  endfacet
  facet normal 0 0 1
    outer loop
      vertex 6 5.95 1
      vertex 1.14336 3.51891 1
      vertex 1.57538 3.34786 1
    endloop
  endfacet
  facet normal 0 0 1
    outer loop
      vertex 6 5.95 1
      vertex 0.693311 3.63446 1
      vertex 1.14336 3.51891 1
    endloop
  endfacet
  facet normal 0 0 1
    outer loop
      vertex 6 5.95 1
      vertex 0.232325 3.6927 1
      vertex 0.693311 3.63446 1
    endloop
  endfacet
  facet normal 0 0 1
    outer loop
      vertex 6 5.95 1
      vertex -0.232325 3.6927 1
      vertex 0.232325 3.6927 1
    endloop
  endfacet
  facet normal -0 0 1
    outer loop
      vertex -6 5.95 1
      vertex -0.232325 3.6927 1
      vertex 6 5.95 1
    endloop
  endfacet
  facet normal 0 0 1
    outer loop
      vertex -0.232325 3.6927 1
      vertex -6 5.95 1
      vertex -0.693311 3.63446 1
    endloop
  endfacet
  facet normal 0 0 1
    outer loop
      vertex -3.67082 0.463733 1
      vertex -6 5.95 1
      vertex -3.7 0 1
    endloop
  endfacet
  facet normal 0 0 1
    outer loop
      vertex -3.58376 0.920152 1
      vertex -6 5.95 1
      vertex -3.67082 0.463733 1
    endloop
  endfacet
  facet normal 0 0 1
    outer loop
      vertex -3.44017 1.36206 1
      vertex -6 5.95 1
      vertex -3.58376 0.920152 1
    endloop
  endfacet
  facet normal 0 0 1
    outer loop
      vertex -3.24233 1.78249 1
      vertex -6 5.95 1
      vertex -3.44017 1.36206 1
    endloop
  endfacet
  facet normal 0 0 1
    outer loop
      vertex -2.99336 2.1748 1
      vertex -6 5.95 1
      vertex -3.24233 1.78249 1
    endloop
  endfacet
  facet normal 0 0 1
    outer loop
      vertex -2.69718 2.53282 1
      vertex -6 5.95 1
      vertex -2.99336 2.1748 1
    endloop
  endfacet
  facet normal 0 0 1
    outer loop
      vertex -2.35847 2.8509 1
      vertex -6 5.95 1
      vertex -2.69718 2.53282 1
    endloop
  endfacet
  facet normal 0 0 1
    outer loop
      vertex -1.98256 3.12401 1
      vertex -6 5.95 1
      vertex -2.35847 2.8509 1
    endloop
  endfacet
  facet normal 0 0 1
    outer loop
      vertex -1.57538 3.34786 1
      vertex -6 5.95 1
      vertex -1.98256 3.12401 1
    endloop
  endfacet
  facet normal 0 0 1
    outer loop
      vertex -1.14336 3.51891 1
      vertex -6 5.95 1
      vertex -1.57538 3.34786 1
    endloop
  endfacet
  facet normal 0 0 1
    outer loop
      vertex -0.693311 3.63446 1
      vertex -6 5.95 1
      vertex -1.14336 3.51891 1
    endloop
  endfacet
  facet normal 0 0 1
    outer loop
      vertex 9 6 1
      vertex -6 5.95 1
      vertex 6 5.95 1
    endloop
  endfacet
  facet normal -0 0 1
    outer loop
      vertex -9 6 1
      vertex -6 5.95 1
      vertex 9 6 1
    endloop
  endfacet
  facet normal 0 0 1
    outer loop
      vertex -7 5.95 1
      vertex -9 6 1
      vertex -7 -5.95 1
    endloop
  endfacet
  facet normal 0 0 1
    outer loop
      vertex -6 5.95 1
      vertex -9 6 1
      vertex -7 5.95 1
    endloop
  endfacet
  facet normal 0 0 1
    outer loop
      vertex 9 6 1
      vertex 15 19 1
      vertex 9 17 1
    endloop
  endfacet
  facet normal 0 0 1
    outer loop
      vertex 15 19 1
      vertex -9 17 1
      vertex 9 17 1
    endloop
  endfacet
  facet normal 0 0 1
    outer loop
      vertex -15 19 1
      vertex -9 6 1
      vertex -9 17 1
    endloop
  endfacet
  facet normal 0 0 1
    outer loop
      vertex -9 6 1
      vertex -10.3928 -15.797 1
      vertex -10.38 -16 1
    endloop
  endfacet
  facet normal 0 0 1
    outer loop
      vertex -9 6 1
      vertex -10.4309 -15.5971 1
      vertex -10.3928 -15.797 1
    endloop
  endfacet
  facet normal 0 0 1
    outer loop
      vertex -9 6 1
      vertex -10.4938 -15.4036 1
      vertex -10.4309 -15.5971 1
    endloop
  endfacet
  facet normal 0 0 1
    outer loop
      vertex -9 6 1
      vertex -10.5804 -15.2196 1
      vertex -10.4938 -15.4036 1
    endloop
  endfacet
  facet normal 0 0 1
    outer loop
      vertex -9 6 1
      vertex -10.6894 -15.0478 1
      vertex -10.5804 -15.2196 1
    endloop
  endfacet
  facet normal 0 0 1
    outer loop
      vertex -9 6 1
      vertex -10.8191 -14.891 1
      vertex -10.6894 -15.0478 1
    endloop
  endfacet
  facet normal 0 0 1
    outer loop
      vertex -9 6 1
      vertex -10.9674 -14.7518 1
      vertex -10.8191 -14.891 1
    endloop
  endfacet
  facet normal 0 0 1
    outer loop
      vertex -9 6 1
      vertex -11.132 -14.6322 1
      vertex -10.9674 -14.7518 1
    endloop
  endfacet
  facet normal 0 0 1
    outer loop
      vertex -9 6 1
      vertex -11.3102 -14.5342 1
      vertex -11.132 -14.6322 1
    endloop
  endfacet
  facet normal 0 0 1
    outer loop
      vertex -9 6 1
      vertex -11.4994 -14.4593 1
      vertex -11.3102 -14.5342 1
    endloop
  endfacet
  facet normal 0 0 1
    outer loop
      vertex -9 6 1
      vertex -11.6964 -14.4087 1
      vertex -11.4994 -14.4593 1
    endloop
  endfacet
  facet normal 0 0 1
    outer loop
      vertex -9 6 1
      vertex -11.8983 -14.3832 1
      vertex -11.6964 -14.4087 1
    endloop
  endfacet
  facet normal 0 0 1
    outer loop
      vertex -9 6 1
      vertex -12.1017 -14.3832 1
      vertex -11.8983 -14.3832 1
    endloop
  endfacet
  facet normal 0 0 1
    outer loop
      vertex -9 6 1
      vertex -12.3036 -14.4087 1
      vertex -12.1017 -14.3832 1
    endloop
  endfacet
  facet normal 0 0 1
    outer loop
      vertex -9 6 1
      vertex -12.5006 -14.4593 1
      vertex -12.3036 -14.4087 1
    endloop
  endfacet
  facet normal 0 -0 1
    outer loop
      vertex -13.3106 -15.0478 1
      vertex -9 6 1
      vertex -15 19 1
    endloop
  endfacet
  facet normal 0 0 1
    outer loop
      vertex -9 6 1
      vertex -12.6898 -14.5342 1
      vertex -12.5006 -14.4593 1
    endloop
  endfacet
  facet normal 0 0 1
    outer loop
      vertex -9 6 1
      vertex -12.868 -14.6322 1
      vertex -12.6898 -14.5342 1
    endloop
  endfacet
  facet normal 0 0 1
    outer loop
      vertex -9 6 1
      vertex -13.0326 -14.7518 1
      vertex -12.868 -14.6322 1
    endloop
  endfacet
  facet normal 0 0 1
    outer loop
      vertex -9 6 1
      vertex -13.1809 -14.891 1
      vertex -13.0326 -14.7518 1
    endloop
  endfacet
  facet normal 0 0 1
    outer loop
      vertex -9 6 1
      vertex -13.3106 -15.0478 1
      vertex -13.1809 -14.891 1
    endloop
  endfacet
  facet normal 0 0 1
    outer loop
      vertex -13.3106 -15.0478 1
      vertex -15 19 1
      vertex -13.4196 -15.2196 1
    endloop
  endfacet
  facet normal 0 0 1
    outer loop
      vertex -13.4196 -15.2196 1
      vertex -15 19 1
      vertex -13.5062 -15.4036 1
    endloop
  endfacet
  facet normal 0 0 1
    outer loop
      vertex -15 -19 1
      vertex -13.5062 -15.4036 1
      vertex -15 19 1
    endloop
  endfacet
  facet normal 0 0 1
    outer loop
      vertex -13.5691 -15.5971 1
      vertex -15 -19 1
      vertex -13.6072 -15.797 1
    endloop
  endfacet
  facet normal 0 0 1
    outer loop
      vertex -13.5062 -15.4036 1
      vertex -15 -19 1
      vertex -13.5691 -15.5971 1
    endloop
  endfacet
  facet normal -0 0 1
    outer loop
      vertex -15 19 1
      vertex -9 17 1
      vertex 15 19 1
    endloop
  endfacet
  facet normal 0 0 1
    outer loop
      vertex 15 19 1
      vertex 9 6 1
      vertex 15 -19 1
    endloop
  endfacet
  facet normal 0 0 1
    outer loop
      vertex 7 -5.95 1
      vertex 9 6 1
      vertex 7 5.95 1
    endloop
  endfacet
  facet normal 0 0 1
    outer loop
      vertex 9 6 1
      vertex 7 -5.95 1
      vertex 15 -19 1
    endloop
  endfacet
  facet normal -0 0 1
    outer loop
      vertex 6 -5.95 1
      vertex 15 -19 1
      vertex 7 -5.95 1
    endloop
  endfacet
  facet normal -0 0 1
    outer loop
      vertex 3.67082 -0.463733 1
      vertex 6 -5.95 1
      vertex 3.7 0 1
    endloop
  endfacet
  facet normal -0 0 1
    outer loop
      vertex 3.58376 -0.920152 1
      vertex 6 -5.95 1
      vertex 3.67082 -0.463733 1
    endloop
  endfacet
  facet normal -0 0 1
    outer loop
      vertex 3.44017 -1.36206 1
      vertex 6 -5.95 1
      vertex 3.58376 -0.920152 1
    endloop
  endfacet
  facet normal -0 0 1
    outer loop
      vertex 3.24233 -1.78249 1
      vertex 6 -5.95 1
      vertex 3.44017 -1.36206 1
    endloop
  endfacet
  facet normal -0 0 1
    outer loop
      vertex 2.99336 -2.1748 1
      vertex 6 -5.95 1
      vertex 3.24233 -1.78249 1
    endloop
  endfacet
  facet normal -0 0 1
    outer loop
      vertex 2.69718 -2.53282 1
      vertex 6 -5.95 1
      vertex 2.99336 -2.1748 1
    endloop
  endfacet
  facet normal -0 0 1
    outer loop
      vertex 2.35847 -2.8509 1
      vertex 6 -5.95 1
      vertex 2.69718 -2.53282 1
    endloop
  endfacet
  facet normal -0 0 1
    outer loop
      vertex 1.98256 -3.12401 1
      vertex 6 -5.95 1
      vertex 2.35847 -2.8509 1
    endloop
  endfacet
  facet normal -0 0 1
    outer loop
      vertex 1.57538 -3.34786 1
      vertex 6 -5.95 1
      vertex 1.98256 -3.12401 1
    endloop
  endfacet
  facet normal -0 0 1
    outer loop
      vertex 1.14336 -3.51891 1
      vertex 6 -5.95 1
      vertex 1.57538 -3.34786 1
    endloop
  endfacet
  facet normal -0 0 1
    outer loop
      vertex 0.693311 -3.63446 1
      vertex 6 -5.95 1
      vertex 1.14336 -3.51891 1
    endloop
  endfacet
  facet normal -0 0 1
    outer loop
      vertex 0.232325 -3.6927 1
      vertex 6 -5.95 1
      vertex 0.693311 -3.63446 1
    endloop
  endfacet
  facet normal 0 0 1
    outer loop
      vertex -6 -5.95 1
      vertex 6 -5.95 1
      vertex 0.232325 -3.6927 1
    endloop
  endfacet
  facet normal 0 0 1
    outer loop
      vertex -6 -5.95 1
      vertex 0.232325 -3.6927 1
      vertex -0.232325 -3.6927 1
    endloop
  endfacet
  facet normal 0 0 1
    outer loop
      vertex -6 -5.95 1
      vertex -0.232325 -3.6927 1
      vertex -0.693311 -3.63446 1
    endloop
  endfacet
  facet normal 0 0 1
    outer loop
      vertex -6 -5.95 1
      vertex -0.693311 -3.63446 1
      vertex -1.14336 -3.51891 1
    endloop
  endfacet
  facet normal 0 0 1
    outer loop
      vertex -6 -5.95 1
      vertex -1.14336 -3.51891 1
      vertex -1.57538 -3.34786 1
    endloop
  endfacet
  facet normal 0 0 1
    outer loop
      vertex -6 -5.95 1
      vertex -1.57538 -3.34786 1
      vertex -1.98256 -3.12401 1
    endloop
  endfacet
  facet normal 0 0 1
    outer loop
      vertex -6 -5.95 1
      vertex -1.98256 -3.12401 1
      vertex -2.35847 -2.8509 1
    endloop
  endfacet
  facet normal 0 0 1
    outer loop
      vertex -6 -5.95 1
      vertex -3.7 0 1
      vertex -6 5.95 1
    endloop
  endfacet
  facet normal 0 0 1
    outer loop
      vertex -3.7 0 1
      vertex -6 -5.95 1
      vertex -3.67082 -0.463733 1
    endloop
  endfacet
  facet normal 0 0 1
    outer loop
      vertex -3.67082 -0.463733 1
      vertex -6 -5.95 1
      vertex -3.58376 -0.920152 1
    endloop
  endfacet
  facet normal 0 0 1
    outer loop
      vertex -3.58376 -0.920152 1
      vertex -6 -5.95 1
      vertex -3.44017 -1.36206 1
    endloop
  endfacet
  facet normal 0 0 1
    outer loop
      vertex -6 -5.95 1
      vertex -3.24233 -1.78249 1
      vertex -3.44017 -1.36206 1
    endloop
  endfacet
  facet normal 0 0 1
    outer loop
      vertex -6 -5.95 1
      vertex -2.99336 -2.1748 1
      vertex -3.24233 -1.78249 1
    endloop
  endfacet
  facet normal 0 0 1
    outer loop
      vertex -6 -5.95 1
      vertex -2.69718 -2.53282 1
      vertex -2.99336 -2.1748 1
    endloop
  endfacet
  facet normal 0 0 1
    outer loop
      vertex -6 -5.95 1
      vertex -2.35847 -2.8509 1
      vertex -2.69718 -2.53282 1
    endloop
  endfacet
  facet normal 0 0 1
    outer loop
      vertex 6 -5.95 1
      vertex -6 -5.95 1
      vertex -10.38 -16 1
    endloop
  endfacet
  facet normal 0 0 1
    outer loop
      vertex -10.38 -16 1
      vertex -6 -5.95 1
      vertex -7 -5.95 1
    endloop
  endfacet
  facet normal 0 0 1
    outer loop
      vertex -10.38 -16 1
      vertex -7 -5.95 1
      vertex -9 6 1
    endloop
  endfacet
  facet normal 0 0 1
    outer loop
      vertex -10.3928 -16.203 1
      vertex 6 -5.95 1
      vertex -10.38 -16 1
    endloop
  endfacet
  facet normal 0 0 1
    outer loop
      vertex 6 -5.95 1
      vertex -10.3928 -16.203 1
      vertex 15 -19 1
    endloop
  endfacet
  facet normal -0 0 1
    outer loop
      vertex -10.4309 -16.4029 1
      vertex 15 -19 1
      vertex -10.3928 -16.203 1
    endloop
  endfacet
  facet normal -0 0 1
    outer loop
      vertex -10.4938 -16.5964 1
      vertex 15 -19 1
      vertex -10.4309 -16.4029 1
    endloop
  endfacet
  facet normal -0 0 1
    outer loop
      vertex -10.5804 -16.7804 1
      vertex 15 -19 1
      vertex -10.4938 -16.5964 1
    endloop
  endfacet
  facet normal -0 0 1
    outer loop
      vertex -10.6894 -16.9522 1
      vertex 15 -19 1
      vertex -10.5804 -16.7804 1
    endloop
  endfacet
  facet normal -0 0 1
    outer loop
      vertex -10.8191 -17.109 1
      vertex 15 -19 1
      vertex -10.6894 -16.9522 1
    endloop
  endfacet
  facet normal -0 0 1
    outer loop
      vertex -10.9674 -17.2482 1
      vertex 15 -19 1
      vertex -10.8191 -17.109 1
    endloop
  endfacet
  facet normal -0 0 1
    outer loop
      vertex -11.132 -17.3678 1
      vertex 15 -19 1
      vertex -10.9674 -17.2482 1
    endloop
  endfacet
  facet normal -0 0 1
    outer loop
      vertex -11.3102 -17.4658 1
      vertex 15 -19 1
      vertex -11.132 -17.3678 1
    endloop
  endfacet
  facet normal -0 0 1
    outer loop
      vertex -11.4994 -17.5407 1
      vertex 15 -19 1
      vertex -11.3102 -17.4658 1
    endloop
  endfacet
  facet normal 0 0 1
    outer loop
      vertex -15 -19 1
      vertex -11.4994 -17.5407 1
      vertex -11.6964 -17.5913 1
    endloop
  endfacet
  facet normal 0 0 1
    outer loop
      vertex -15 -19 1
      vertex -11.6964 -17.5913 1
      vertex -11.8983 -17.6168 1
    endloop
  endfacet
  facet normal 0 0 1
    outer loop
      vertex -15 -19 1
      vertex -11.8983 -17.6168 1
      vertex -12.1017 -17.6168 1
    endloop
  endfacet
  facet normal 0 0 1
    outer loop
      vertex -11.4994 -17.5407 1
      vertex -15 -19 1
      vertex 15 -19 1
    endloop
  endfacet
  facet normal 0 0 1
    outer loop
      vertex -12.3036 -17.5913 1
      vertex -15 -19 1
      vertex -12.1017 -17.6168 1
    endloop
  endfacet
  facet normal 0 0 1
    outer loop
      vertex -12.5006 -17.5407 1
      vertex -15 -19 1
      vertex -12.3036 -17.5913 1
    endloop
  endfacet
  facet normal 0 0 1
    outer loop
      vertex -12.6898 -17.4658 1
      vertex -15 -19 1
      vertex -12.5006 -17.5407 1
    endloop
  endfacet
  facet normal 0 0 1
    outer loop
      vertex -12.868 -17.3678 1
      vertex -15 -19 1
      vertex -12.6898 -17.4658 1
    endloop
  endfacet
  facet normal 0 0 1
    outer loop
      vertex -13.0326 -17.2482 1
      vertex -15 -19 1
      vertex -12.868 -17.3678 1
    endloop
  endfacet
  facet normal 0 0 1
    outer loop
      vertex -13.1809 -17.109 1
      vertex -15 -19 1
      vertex -13.0326 -17.2482 1
    endloop
  endfacet
  facet normal 0 0 1
    outer loop
      vertex -13.3106 -16.9522 1
      vertex -15 -19 1
      vertex -13.1809 -17.109 1
    endloop
  endfacet
  facet normal 0 0 1
    outer loop
      vertex -13.4196 -16.7804 1
      vertex -15 -19 1
      vertex -13.3106 -16.9522 1
    endloop
  endfacet
  facet normal 0 0 1
    outer loop
      vertex -13.5062 -16.5964 1
      vertex -15 -19 1
      vertex -13.4196 -16.7804 1
    endloop
  endfacet
  facet normal 0 0 1
    outer loop
      vertex -13.5691 -16.4029 1
      vertex -15 -19 1
      vertex -13.5062 -16.5964 1
    endloop
  endfacet
  facet normal 0 0 1
    outer loop
      vertex -13.6072 -16.203 1
      vertex -15 -19 1
      vertex -13.5691 -16.4029 1
    endloop
  endfacet
  facet normal 0 0 1
    outer loop
      vertex -13.62 -16 1
      vertex -15 -19 1
      vertex -13.6072 -16.203 1
    endloop
  endfacet
  facet normal 0 0 1
    outer loop
      vertex -13.6072 -15.797 1
      vertex -15 -19 1
      vertex -13.62 -16 1
    endloop
  endfacet
  facet normal 0 0 1
    outer loop
      vertex 8 16 1
      vertex 7 13 1
      vertex 8 7 1
    endloop
  endfacet
  facet normal 0 0 1
    outer loop
      vertex 8 16 1
      vertex -7 13 1
      vertex 7 13 1
    endloop
  endfacet
  facet normal 0 0 1
    outer loop
      vertex -8 7 1
      vertex -7 13 1
      vertex -8 16 1
    endloop
  endfacet
  facet normal -0 0 1
    outer loop
      vertex -8 16 1
      vertex -7 13 1
      vertex 8 16 1
    endloop
  endfacet
  facet normal -0 0 1
    outer loop
      vertex 7 9 1
      vertex 8 7 1
      vertex 7 13 1
    endloop
  endfacet
  facet normal -0 0 1
    outer loop
      vertex -7 9 1
      vertex 8 7 1
      vertex 7 9 1
    endloop
  endfacet
  facet normal 0 0 1
    outer loop
      vertex -7 9 1
      vertex -8 7 1
      vertex 8 7 1
    endloop
  endfacet
  facet normal 0 0 1
    outer loop
      vertex -7 13 1
      vertex -8 7 1
      vertex -7 9 1
    endloop
  endfacet
  facet normal 1 -0 0
    outer loop
      vertex 15 -19 1
      vertex 15 19 -1
      vertex 15 19 1
    endloop
  endfacet
  facet normal 1 0 0
    outer loop
      vertex 15 19 -1
      vertex 15 -19 1
      vertex 15 -19 -1
    endloop
  endfacet
  facet normal 0 1 -0
    outer loop
      vertex 15 19 -1
      vertex -15 19 1
      vertex 15 19 1
    endloop
  endfacet
  facet normal 0 1 0
    outer loop
      vertex -15 19 1
      vertex 15 19 -1
      vertex -15 19 -1
    endloop
  endfacet
  facet normal 0 0 -1
    outer loop
      vertex 15 -19 -1
      vertex 7 9 -1
      vertex 15 19 -1
    endloop
  endfacet
  facet normal 0 0 -1
    outer loop
      vertex 3.67082 -0.463733 -1
      vertex 7 9 -1
      vertex 15 -19 -1
    endloop
  endfacet
  facet normal 0 0 -1
    outer loop
      vertex 7 9 -1
      vertex 3.67082 -0.463733 -1
      vertex 3.7 0 -1
    endloop
  endfacet
  facet normal 0 0 -1
    outer loop
      vertex 15 -19 -1
      vertex 3.58376 -0.920152 -1
      vertex 3.67082 -0.463733 -1
    endloop
  endfacet
  facet normal 0 0 -1
    outer loop
      vertex 15 -19 -1
      vertex 3.44017 -1.36206 -1
      vertex 3.58376 -0.920152 -1
    endloop
  endfacet
  facet normal 0 0 -1
    outer loop
      vertex 15 -19 -1
      vertex 3.24233 -1.78249 -1
      vertex 3.44017 -1.36206 -1
    endloop
  endfacet
  facet normal 0 0 -1
    outer loop
      vertex 15 -19 -1
      vertex 2.99336 -2.1748 -1
      vertex 3.24233 -1.78249 -1
    endloop
  endfacet
  facet normal 0 0 -1
    outer loop
      vertex 15 -19 -1
      vertex 2.69718 -2.53282 -1
      vertex 2.99336 -2.1748 -1
    endloop
  endfacet
  facet normal 0 0 -1
    outer loop
      vertex 15 -19 -1
      vertex 2.35847 -2.8509 -1
      vertex 2.69718 -2.53282 -1
    endloop
  endfacet
  facet normal 0 0 -1
    outer loop
      vertex 15 -19 -1
      vertex 1.98256 -3.12401 -1
      vertex 2.35847 -2.8509 -1
    endloop
  endfacet
  facet normal 0 0 -1
    outer loop
      vertex 15 -19 -1
      vertex 1.57538 -3.34786 -1
      vertex 1.98256 -3.12401 -1
    endloop
  endfacet
  facet normal 0 0 -1
    outer loop
      vertex 15 -19 -1
      vertex 1.14336 -3.51891 -1
      vertex 1.57538 -3.34786 -1
    endloop
  endfacet
  facet normal 0 0 -1
    outer loop
      vertex 15 -19 -1
      vertex 0.693311 -3.63446 -1
      vertex 1.14336 -3.51891 -1
    endloop
  endfacet
  facet normal 0 0 -1
    outer loop
      vertex -10.38 -16 -1
      vertex 0.693311 -3.63446 -1
      vertex 15 -19 -1
    endloop
  endfacet
  facet normal 0 0 -1
    outer loop
      vertex 0.693311 -3.63446 -1
      vertex -10.38 -16 -1
      vertex 0.232325 -3.6927 -1
    endloop
  endfacet
  facet normal 0 0 -1
    outer loop
      vertex -10.3928 -15.797 -1
      vertex 0.232325 -3.6927 -1
      vertex -10.38 -16 -1
    endloop
  endfacet
  facet normal -0 0 -1
    outer loop
      vertex 0.232325 -3.6927 -1
      vertex -10.3928 -15.797 -1
      vertex -0.232325 -3.6927 -1
    endloop
  endfacet
  facet normal 0 0 -1
    outer loop
      vertex -10.4309 -15.5971 -1
      vertex -0.232325 -3.6927 -1
      vertex -10.3928 -15.797 -1
    endloop
  endfacet
  facet normal -0 0 -1
    outer loop
      vertex -0.232325 -3.6927 -1
      vertex -10.4309 -15.5971 -1
      vertex -0.693311 -3.63446 -1
    endloop
  endfacet
  facet normal 0 0 -1
    outer loop
      vertex -10.4938 -15.4036 -1
      vertex -0.693311 -3.63446 -1
      vertex -10.4309 -15.5971 -1
    endloop
  endfacet
  facet normal 0 0 -1
    outer loop
      vertex -12.6898 -14.5342 -1
      vertex -3.7 0 -1
      vertex -3.67082 -0.463733 -1
    endloop
  endfacet
  facet normal 0 0 -1
    outer loop
      vertex -12.5006 -14.4593 -1
      vertex -3.67082 -0.463733 -1
      vertex -3.58376 -0.920152 -1
    endloop
  endfacet
  facet normal 0 0 -1
    outer loop
      vertex -12.1017 -14.3832 -1
      vertex -3.58376 -0.920152 -1
      vertex -3.44017 -1.36206 -1
    endloop
  endfacet
  facet normal 0 0 -1
    outer loop
      vertex -10.9674 -14.7518 -1
      vertex -1.98256 -3.12401 -1
      vertex -10.8191 -14.891 -1
    endloop
  endfacet
  facet normal -0 0 -1
    outer loop
      vertex -1.57538 -3.34786 -1
      vertex -10.8191 -14.891 -1
      vertex -1.98256 -3.12401 -1
    endloop
  endfacet
  facet normal 0 0 -1
    outer loop
      vertex -10.8191 -14.891 -1
      vertex -1.57538 -3.34786 -1
      vertex -10.6894 -15.0478 -1
    endloop
  endfacet
  facet normal -0 0 -1
    outer loop
      vertex -1.14336 -3.51891 -1
      vertex -10.6894 -15.0478 -1
      vertex -1.57538 -3.34786 -1
    endloop
  endfacet
  facet normal 0 0 -1
    outer loop
      vertex -10.6894 -15.0478 -1
      vertex -1.14336 -3.51891 -1
      vertex -10.5804 -15.2196 -1
    endloop
  endfacet
  facet normal 0 0 -1
    outer loop
      vertex -10.5804 -15.2196 -1
      vertex -1.14336 -3.51891 -1
      vertex -10.4938 -15.4036 -1
    endloop
  endfacet
  facet normal -0 0 -1
    outer loop
      vertex -0.693311 -3.63446 -1
      vertex -10.4938 -15.4036 -1
      vertex -1.14336 -3.51891 -1
    endloop
  endfacet
  facet normal 0 0 -1
    outer loop
      vertex 15 -19 -1
      vertex -10.3928 -16.203 -1
      vertex -10.38 -16 -1
    endloop
  endfacet
  facet normal 0 0 -1
    outer loop
      vertex 15 -19 -1
      vertex -10.4309 -16.4029 -1
      vertex -10.3928 -16.203 -1
    endloop
  endfacet
  facet normal 0 0 -1
    outer loop
      vertex 15 -19 -1
      vertex -10.4938 -16.5964 -1
      vertex -10.4309 -16.4029 -1
    endloop
  endfacet
  facet normal 0 0 -1
    outer loop
      vertex 15 -19 -1
      vertex -10.5804 -16.7804 -1
      vertex -10.4938 -16.5964 -1
    endloop
  endfacet
  facet normal 0 0 -1
    outer loop
      vertex 15 -19 -1
      vertex -10.6894 -16.9522 -1
      vertex -10.5804 -16.7804 -1
    endloop
  endfacet
  facet normal 0 0 -1
    outer loop
      vertex 15 -19 -1
      vertex -10.8191 -17.109 -1
      vertex -10.6894 -16.9522 -1
    endloop
  endfacet
  facet normal 0 0 -1
    outer loop
      vertex 15 -19 -1
      vertex -10.9674 -17.2482 -1
      vertex -10.8191 -17.109 -1
    endloop
  endfacet
  facet normal 0 0 -1
    outer loop
      vertex 15 -19 -1
      vertex -11.132 -17.3678 -1
      vertex -10.9674 -17.2482 -1
    endloop
  endfacet
  facet normal 0 0 -1
    outer loop
      vertex 15 -19 -1
      vertex -11.3102 -17.4658 -1
      vertex -11.132 -17.3678 -1
    endloop
  endfacet
  facet normal 0 0 -1
    outer loop
      vertex 15 -19 -1
      vertex -11.4994 -17.5407 -1
      vertex -11.3102 -17.4658 -1
    endloop
  endfacet
  facet normal 0 0 -1
    outer loop
      vertex -15 -19 -1
      vertex -11.4994 -17.5407 -1
      vertex 15 -19 -1
    endloop
  endfacet
  facet normal 0 0 -1
    outer loop
      vertex -11.4994 -17.5407 -1
      vertex -15 -19 -1
      vertex -11.6964 -17.5913 -1
    endloop
  endfacet
  facet normal 0 0 -1
    outer loop
      vertex -11.6964 -17.5913 -1
      vertex -15 -19 -1
      vertex -11.8983 -17.6168 -1
    endloop
  endfacet
  facet normal -0 0 -1
    outer loop
      vertex -13.6072 -16.203 -1
      vertex -15 -19 -1
      vertex -13.62 -16 -1
    endloop
  endfacet
  facet normal -0 0 -1
    outer loop
      vertex -13.5691 -16.4029 -1
      vertex -15 -19 -1
      vertex -13.6072 -16.203 -1
    endloop
  endfacet
  facet normal -0 0 -1
    outer loop
      vertex -13.5062 -16.5964 -1
      vertex -15 -19 -1
      vertex -13.5691 -16.4029 -1
    endloop
  endfacet
  facet normal -0 0 -1
    outer loop
      vertex -13.4196 -16.7804 -1
      vertex -15 -19 -1
      vertex -13.5062 -16.5964 -1
    endloop
  endfacet
  facet normal -0 0 -1
    outer loop
      vertex -13.3106 -16.9522 -1
      vertex -15 -19 -1
      vertex -13.4196 -16.7804 -1
    endloop
  endfacet
  facet normal -0 0 -1
    outer loop
      vertex -13.1809 -17.109 -1
      vertex -15 -19 -1
      vertex -13.3106 -16.9522 -1
    endloop
  endfacet
  facet normal -0 0 -1
    outer loop
      vertex -13.0326 -17.2482 -1
      vertex -15 -19 -1
      vertex -13.1809 -17.109 -1
    endloop
  endfacet
  facet normal -0 0 -1
    outer loop
      vertex -12.868 -17.3678 -1
      vertex -15 -19 -1
      vertex -13.0326 -17.2482 -1
    endloop
  endfacet
  facet normal -0 0 -1
    outer loop
      vertex -12.6898 -17.4658 -1
      vertex -15 -19 -1
      vertex -12.868 -17.3678 -1
    endloop
  endfacet
  facet normal -0 0 -1
    outer loop
      vertex -12.5006 -17.5407 -1
      vertex -15 -19 -1
      vertex -12.6898 -17.4658 -1
    endloop
  endfacet
  facet normal -0 0 -1
    outer loop
      vertex -12.3036 -17.5913 -1
      vertex -15 -19 -1
      vertex -12.5006 -17.5407 -1
    endloop
  endfacet
  facet normal -0 0 -1
    outer loop
      vertex -12.1017 -17.6168 -1
      vertex -15 -19 -1
      vertex -12.3036 -17.5913 -1
    endloop
  endfacet
  facet normal -0 0 -1
    outer loop
      vertex -11.8983 -17.6168 -1
      vertex -15 -19 -1
      vertex -12.1017 -17.6168 -1
    endloop
  endfacet
  facet normal 0 0 -1
    outer loop
      vertex 7 13 -1
      vertex 15 19 -1
      vertex 7 9 -1
    endloop
  endfacet
  facet normal 0 0 -1
    outer loop
      vertex -7 13 -1
      vertex 15 19 -1
      vertex 7 13 -1
    endloop
  endfacet
  facet normal -0 0 -1
    outer loop
      vertex -1.98256 -3.12401 -1
      vertex -10.9674 -14.7518 -1
      vertex -2.35847 -2.8509 -1
    endloop
  endfacet
  facet normal 0 0 -1
    outer loop
      vertex -11.132 -14.6322 -1
      vertex -2.35847 -2.8509 -1
      vertex -10.9674 -14.7518 -1
    endloop
  endfacet
  facet normal -0 0 -1
    outer loop
      vertex -2.35847 -2.8509 -1
      vertex -11.132 -14.6322 -1
      vertex -2.69718 -2.53282 -1
    endloop
  endfacet
  facet normal 0 0 -1
    outer loop
      vertex -11.3102 -14.5342 -1
      vertex -2.69718 -2.53282 -1
      vertex -11.132 -14.6322 -1
    endloop
  endfacet
  facet normal 0 0 -1
    outer loop
      vertex -11.4994 -14.4593 -1
      vertex -2.69718 -2.53282 -1
      vertex -11.3102 -14.5342 -1
    endloop
  endfacet
  facet normal -0 0 -1
    outer loop
      vertex -2.69718 -2.53282 -1
      vertex -11.4994 -14.4593 -1
      vertex -2.99336 -2.1748 -1
    endloop
  endfacet
  facet normal 0 0 -1
    outer loop
      vertex -11.6964 -14.4087 -1
      vertex -2.99336 -2.1748 -1
      vertex -11.4994 -14.4593 -1
    endloop
  endfacet
  facet normal -0 0 -1
    outer loop
      vertex -2.99336 -2.1748 -1
      vertex -11.6964 -14.4087 -1
      vertex -3.24233 -1.78249 -1
    endloop
  endfacet
  facet normal 0 0 -1
    outer loop
      vertex -11.8983 -14.3832 -1
      vertex -3.24233 -1.78249 -1
      vertex -11.6964 -14.4087 -1
    endloop
  endfacet
  facet normal -0 0 -1
    outer loop
      vertex -3.24233 -1.78249 -1
      vertex -11.8983 -14.3832 -1
      vertex -3.44017 -1.36206 -1
    endloop
  endfacet
  facet normal 0 0 -1
    outer loop
      vertex -12.1017 -14.3832 -1
      vertex -3.44017 -1.36206 -1
      vertex -11.8983 -14.3832 -1
    endloop
  endfacet
  facet normal 0 0 -1
    outer loop
      vertex -3.58376 -0.920152 -1
      vertex -12.1017 -14.3832 -1
      vertex -12.3036 -14.4087 -1
    endloop
  endfacet
  facet normal 0 0 -1
    outer loop
      vertex -3.58376 -0.920152 -1
      vertex -12.3036 -14.4087 -1
      vertex -12.5006 -14.4593 -1
    endloop
  endfacet
  facet normal 0 0 -1
    outer loop
      vertex -3.67082 -0.463733 -1
      vertex -12.5006 -14.4593 -1
      vertex -12.6898 -14.5342 -1
    endloop
  endfacet
  facet normal -0 0 -1
    outer loop
      vertex -3.7 0 -1
      vertex -12.6898 -14.5342 -1
      vertex -7 9 -1
    endloop
  endfacet
  facet normal 0 0 -1
    outer loop
      vertex -12.868 -14.6322 -1
      vertex -7 9 -1
      vertex -12.6898 -14.5342 -1
    endloop
  endfacet
  facet normal 0 0 -1
    outer loop
      vertex -13.0326 -14.7518 -1
      vertex -7 9 -1
      vertex -12.868 -14.6322 -1
    endloop
  endfacet
  facet normal -0 0 -1
    outer loop
      vertex -7 9 -1
      vertex -13.0326 -14.7518 -1
      vertex -15 19 -1
    endloop
  endfacet
  facet normal 0 0 -1
    outer loop
      vertex -15 19 -1
      vertex -13.0326 -14.7518 -1
      vertex -13.1809 -14.891 -1
    endloop
  endfacet
  facet normal 0 0 -1
    outer loop
      vertex -15 19 -1
      vertex -13.1809 -14.891 -1
      vertex -13.3106 -15.0478 -1
    endloop
  endfacet
  facet normal 0 0 -1
    outer loop
      vertex -15 19 -1
      vertex -13.3106 -15.0478 -1
      vertex -13.4196 -15.2196 -1
    endloop
  endfacet
  facet normal 0 0 -1
    outer loop
      vertex -15 19 -1
      vertex -13.4196 -15.2196 -1
      vertex -13.5062 -15.4036 -1
    endloop
  endfacet
  facet normal 0 0 -1
    outer loop
      vertex -15 -19 -1
      vertex -13.5062 -15.4036 -1
      vertex -13.5691 -15.5971 -1
    endloop
  endfacet
  facet normal 0 0 -1
    outer loop
      vertex -15 -19 -1
      vertex -13.6072 -15.797 -1
      vertex -13.62 -16 -1
    endloop
  endfacet
  facet normal 0 0 -1
    outer loop
      vertex -15 -19 -1
      vertex -13.5691 -15.5971 -1
      vertex -13.6072 -15.797 -1
    endloop
  endfacet
  facet normal -0 0 -1
    outer loop
      vertex -13.5062 -15.4036 -1
      vertex -15 -19 -1
      vertex -15 19 -1
    endloop
  endfacet
  facet normal 0 0 -1
    outer loop
      vertex -7 13 -1
      vertex -15 19 -1
      vertex 15 19 -1
    endloop
  endfacet
  facet normal 0 0 -1
    outer loop
      vertex -7 9 -1
      vertex -15 19 -1
      vertex -7 13 -1
    endloop
  endfacet
  facet normal 0 0 -1
    outer loop
      vertex 3.67082 0.463733 -1
      vertex 7 9 -1
      vertex 3.7 0 -1
    endloop
  endfacet
  facet normal 0 0 -1
    outer loop
      vertex 3.58376 0.920152 -1
      vertex 7 9 -1
      vertex 3.67082 0.463733 -1
    endloop
  endfacet
  facet normal 0 0 -1
    outer loop
      vertex 3.44017 1.36206 -1
      vertex 7 9 -1
      vertex 3.58376 0.920152 -1
    endloop
  endfacet
  facet normal 0 0 -1
    outer loop
      vertex 3.24233 1.78249 -1
      vertex 7 9 -1
      vertex 3.44017 1.36206 -1
    endloop
  endfacet
  facet normal 0 0 -1
    outer loop
      vertex 2.99336 2.1748 -1
      vertex 7 9 -1
      vertex 3.24233 1.78249 -1
    endloop
  endfacet
  facet normal 0 0 -1
    outer loop
      vertex 2.69718 2.53282 -1
      vertex 7 9 -1
      vertex 2.99336 2.1748 -1
    endloop
  endfacet
  facet normal 0 0 -1
    outer loop
      vertex 2.35847 2.8509 -1
      vertex 7 9 -1
      vertex 2.69718 2.53282 -1
    endloop
  endfacet
  facet normal 0 0 -1
    outer loop
      vertex 1.98256 3.12401 -1
      vertex 7 9 -1
      vertex 2.35847 2.8509 -1
    endloop
  endfacet
  facet normal 0 0 -1
    outer loop
      vertex 1.57538 3.34786 -1
      vertex 7 9 -1
      vertex 1.98256 3.12401 -1
    endloop
  endfacet
  facet normal 0 0 -1
    outer loop
      vertex 1.14336 3.51891 -1
      vertex 7 9 -1
      vertex 1.57538 3.34786 -1
    endloop
  endfacet
  facet normal 0 0 -1
    outer loop
      vertex 0.693311 3.63446 -1
      vertex 7 9 -1
      vertex 1.14336 3.51891 -1
    endloop
  endfacet
  facet normal 0 0 -1
    outer loop
      vertex 0.232325 3.6927 -1
      vertex 7 9 -1
      vertex 0.693311 3.63446 -1
    endloop
  endfacet
  facet normal 0 0 -1
    outer loop
      vertex -0.232325 3.6927 -1
      vertex 7 9 -1
      vertex 0.232325 3.6927 -1
    endloop
  endfacet
  facet normal 0 0 -1
    outer loop
      vertex -7 9 -1
      vertex -0.232325 3.6927 -1
      vertex -0.693311 3.63446 -1
    endloop
  endfacet
  facet normal 0 0 -1
    outer loop
      vertex -7 9 -1
      vertex -0.693311 3.63446 -1
      vertex -1.14336 3.51891 -1
    endloop
  endfacet
  facet normal 0 0 -1
    outer loop
      vertex -7 9 -1
      vertex -1.14336 3.51891 -1
      vertex -1.57538 3.34786 -1
    endloop
  endfacet
  facet normal 0 0 -1
    outer loop
      vertex -7 9 -1
      vertex -1.57538 3.34786 -1
      vertex -1.98256 3.12401 -1
    endloop
  endfacet
  facet normal 0 0 -1
    outer loop
      vertex -0.232325 3.6927 -1
      vertex -7 9 -1
      vertex 7 9 -1
    endloop
  endfacet
  facet normal 0 0 -1
    outer loop
      vertex -2.35847 2.8509 -1
      vertex -7 9 -1
      vertex -1.98256 3.12401 -1
    endloop
  endfacet
  facet normal 0 0 -1
    outer loop
      vertex -2.69718 2.53282 -1
      vertex -7 9 -1
      vertex -2.35847 2.8509 -1
    endloop
  endfacet
  facet normal 0 0 -1
    outer loop
      vertex -2.99336 2.1748 -1
      vertex -7 9 -1
      vertex -2.69718 2.53282 -1
    endloop
  endfacet
  facet normal 0 0 -1
    outer loop
      vertex -3.24233 1.78249 -1
      vertex -7 9 -1
      vertex -2.99336 2.1748 -1
    endloop
  endfacet
  facet normal 0 0 -1
    outer loop
      vertex -3.44017 1.36206 -1
      vertex -7 9 -1
      vertex -3.24233 1.78249 -1
    endloop
  endfacet
  facet normal 0 0 -1
    outer loop
      vertex -3.58376 0.920152 -1
      vertex -7 9 -1
      vertex -3.44017 1.36206 -1
    endloop
  endfacet
  facet normal 0 0 -1
    outer loop
      vertex -3.67082 0.463733 -1
      vertex -7 9 -1
      vertex -3.58376 0.920152 -1
    endloop
  endfacet
  facet normal 0 0 -1
    outer loop
      vertex -7 9 -1
      vertex -3.67082 0.463733 -1
      vertex -3.7 0 -1
    endloop
  endfacet
  facet normal 0 -1 0
    outer loop
      vertex -15 -19 -1
      vertex 15 -19 1
      vertex -15 -19 1
    endloop
  endfacet
  facet normal 0 -1 -0
    outer loop
      vertex 15 -19 1
      vertex -15 -19 -1
      vertex 15 -19 -1
    endloop
  endfacet
  facet normal -0.998026 -0.0627999 0
    outer loop
      vertex 3.7 0 -1
      vertex 3.67082 0.463733 1
      vertex 3.67082 0.463733 -1
    endloop
  endfacet
  facet normal -0.998026 -0.0627999 0
    outer loop
      vertex 3.67082 0.463733 1
      vertex 3.7 0 -1
      vertex 3.7 0 1
    endloop
  endfacet
  facet normal 0.998026 -0.0627999 0
    outer loop
      vertex -3.7 0 1
      vertex -3.67082 0.463733 -1
      vertex -3.67082 0.463733 1
    endloop
  endfacet
  facet normal 0.998026 -0.0627999 0
    outer loop
      vertex -3.67082 0.463733 -1
      vertex -3.7 0 1
      vertex -3.7 0 -1
    endloop
  endfacet
  facet normal 0 -1 0
    outer loop
      vertex -0.232325 3.6927 -1
      vertex 0.232325 3.6927 1
      vertex -0.232325 3.6927 1
    endloop
  endfacet
  facet normal 0 -1 -0
    outer loop
      vertex 0.232325 3.6927 1
      vertex -0.232325 3.6927 -1
      vertex 0.232325 3.6927 -1
    endloop
  endfacet
  facet normal 0 1 -0
    outer loop
      vertex 0.232325 -3.6927 -1
      vertex -0.232325 -3.6927 1
      vertex 0.232325 -3.6927 1
    endloop
  endfacet
  facet normal 0 1 0
    outer loop
      vertex -0.232325 -3.6927 1
      vertex 0.232325 -3.6927 -1
      vertex -0.232325 -3.6927 -1
    endloop
  endfacet
  facet normal -0.684559 -0.728958 0
    outer loop
      vertex 2.35847 2.8509 -1
      vertex 2.69718 2.53282 1
      vertex 2.35847 2.8509 1
    endloop
  endfacet
  facet normal -0.684559 -0.728958 -0
    outer loop
      vertex 2.69718 2.53282 1
      vertex 2.35847 2.8509 -1
      vertex 2.69718 2.53282 -1
    endloop
  endfacet
  facet normal 0.684559 -0.728958 0
    outer loop
      vertex -2.69718 2.53282 -1
      vertex -2.35847 2.8509 1
      vertex -2.69718 2.53282 1
    endloop
  endfacet
  facet normal 0.684559 -0.728958 0
    outer loop
      vertex -2.35847 2.8509 1
      vertex -2.69718 2.53282 -1
      vertex -2.35847 2.8509 -1
    endloop
  endfacet
  facet normal 0.368127 -0.929776 0
    outer loop
      vertex -1.57538 3.34786 -1
      vertex -1.14336 3.51891 1
      vertex -1.57538 3.34786 1
    endloop
  endfacet
  facet normal 0.368127 -0.929776 0
    outer loop
      vertex -1.14336 3.51891 1
      vertex -1.57538 3.34786 -1
      vertex -1.14336 3.51891 -1
    endloop
  endfacet
  facet normal -0.904827 -0.42578 0
    outer loop
      vertex 3.44017 1.36206 -1
      vertex 3.24233 1.78249 1
      vertex 3.24233 1.78249 -1
    endloop
  endfacet
  facet normal -0.904827 -0.42578 0
    outer loop
      vertex 3.24233 1.78249 1
      vertex 3.44017 1.36206 -1
      vertex 3.44017 1.36206 1
    endloop
  endfacet
  facet normal -0.98229 -0.187368 0
    outer loop
      vertex 3.67082 0.463733 -1
      vertex 3.58376 0.920152 1
      vertex 3.58376 0.920152 -1
    endloop
  endfacet
  facet normal -0.98229 -0.187368 0
    outer loop
      vertex 3.58376 0.920152 1
      vertex 3.67082 0.463733 -1
      vertex 3.67082 0.463733 1
    endloop
  endfacet
  facet normal -0.368127 -0.929776 0
    outer loop
      vertex 1.14336 3.51891 -1
      vertex 1.57538 3.34786 1
      vertex 1.14336 3.51891 1
    endloop
  endfacet
  facet normal -0.368127 -0.929776 -0
    outer loop
      vertex 1.57538 3.34786 1
      vertex 1.14336 3.51891 -1
      vertex 1.57538 3.34786 -1
    endloop
  endfacet
  facet normal -0.248684 -0.968585 0
    outer loop
      vertex 0.693311 3.63446 -1
      vertex 1.14336 3.51891 1
      vertex 0.693311 3.63446 1
    endloop
  endfacet
  facet normal -0.248684 -0.968585 -0
    outer loop
      vertex 1.14336 3.51891 1
      vertex 0.693311 3.63446 -1
      vertex 1.14336 3.51891 -1
    endloop
  endfacet
  facet normal -0.481755 -0.876306 0
    outer loop
      vertex 1.57538 3.34786 -1
      vertex 1.98256 3.12401 1
      vertex 1.57538 3.34786 1
    endloop
  endfacet
  facet normal -0.481755 -0.876306 -0
    outer loop
      vertex 1.98256 3.12401 1
      vertex 1.57538 3.34786 -1
      vertex 1.98256 3.12401 -1
    endloop
  endfacet
  facet normal 0.904827 -0.42578 0
    outer loop
      vertex -3.44017 1.36206 1
      vertex -3.24233 1.78249 -1
      vertex -3.24233 1.78249 1
    endloop
  endfacet
  facet normal 0.904827 -0.42578 0
    outer loop
      vertex -3.24233 1.78249 -1
      vertex -3.44017 1.36206 1
      vertex -3.44017 1.36206 -1
    endloop
  endfacet
  facet normal 0.951053 -0.309027 0
    outer loop
      vertex -3.58376 0.920152 1
      vertex -3.44017 1.36206 -1
      vertex -3.44017 1.36206 1
    endloop
  endfacet
  facet normal 0.951053 -0.309027 0
    outer loop
      vertex -3.44017 1.36206 -1
      vertex -3.58376 0.920152 1
      vertex -3.58376 0.920152 -1
    endloop
  endfacet
  facet normal 0.125342 -0.992114 0
    outer loop
      vertex -0.693311 3.63446 -1
      vertex -0.232325 3.6927 1
      vertex -0.693311 3.63446 1
    endloop
  endfacet
  facet normal 0.125342 -0.992114 0
    outer loop
      vertex -0.232325 3.6927 1
      vertex -0.693311 3.63446 -1
      vertex -0.232325 3.6927 -1
    endloop
  endfacet
  facet normal -0.125342 0.992114 0
    outer loop
      vertex 0.693311 -3.63446 -1
      vertex 0.232325 -3.6927 1
      vertex 0.693311 -3.63446 1
    endloop
  endfacet
  facet normal -0.125342 0.992114 0
    outer loop
      vertex 0.232325 -3.6927 1
      vertex 0.693311 -3.63446 -1
      vertex 0.232325 -3.6927 -1
    endloop
  endfacet
  facet normal -0.368127 0.929776 0
    outer loop
      vertex 1.57538 -3.34786 -1
      vertex 1.14336 -3.51891 1
      vertex 1.57538 -3.34786 1
    endloop
  endfacet
  facet normal -0.368127 0.929776 0
    outer loop
      vertex 1.14336 -3.51891 1
      vertex 1.57538 -3.34786 -1
      vertex 1.14336 -3.51891 -1
    endloop
  endfacet
  facet normal -0.951053 -0.309027 0
    outer loop
      vertex 3.58376 0.920152 -1
      vertex 3.44017 1.36206 1
      vertex 3.44017 1.36206 -1
    endloop
  endfacet
  facet normal -0.951053 -0.309027 0
    outer loop
      vertex 3.44017 1.36206 1
      vertex 3.58376 0.920152 -1
      vertex 3.58376 0.920152 1
    endloop
  endfacet
  facet normal -0.770513 -0.637424 0
    outer loop
      vertex 2.99336 2.1748 -1
      vertex 2.69718 2.53282 1
      vertex 2.69718 2.53282 -1
    endloop
  endfacet
  facet normal -0.770513 -0.637424 0
    outer loop
      vertex 2.69718 2.53282 1
      vertex 2.99336 2.1748 -1
      vertex 2.99336 2.1748 1
    endloop
  endfacet
  facet normal -0.844325 -0.535831 0
    outer loop
      vertex 3.24233 1.78249 -1
      vertex 2.99336 2.1748 1
      vertex 2.99336 2.1748 -1
    endloop
  endfacet
  facet normal -0.844325 -0.535831 0
    outer loop
      vertex 2.99336 2.1748 1
      vertex 3.24233 1.78249 -1
      vertex 3.24233 1.78249 1
    endloop
  endfacet
  facet normal -0.125342 -0.992114 0
    outer loop
      vertex 0.232325 3.6927 -1
      vertex 0.693311 3.63446 1
      vertex 0.232325 3.6927 1
    endloop
  endfacet
  facet normal -0.125342 -0.992114 -0
    outer loop
      vertex 0.693311 3.63446 1
      vertex 0.232325 3.6927 -1
      vertex 0.693311 3.63446 -1
    endloop
  endfacet
  facet normal -0.587779 -0.809022 0
    outer loop
      vertex 1.98256 3.12401 -1
      vertex 2.35847 2.8509 1
      vertex 1.98256 3.12401 1
    endloop
  endfacet
  facet normal -0.587779 -0.809022 -0
    outer loop
      vertex 2.35847 2.8509 1
      vertex 1.98256 3.12401 -1
      vertex 2.35847 2.8509 -1
    endloop
  endfacet
  facet normal 0.844325 -0.535831 0
    outer loop
      vertex -3.24233 1.78249 1
      vertex -2.99336 2.1748 -1
      vertex -2.99336 2.1748 1
    endloop
  endfacet
  facet normal 0.844325 -0.535831 0
    outer loop
      vertex -2.99336 2.1748 -1
      vertex -3.24233 1.78249 1
      vertex -3.24233 1.78249 -1
    endloop
  endfacet
  facet normal 0.770513 -0.637424 0
    outer loop
      vertex -2.99336 2.1748 1
      vertex -2.69718 2.53282 -1
      vertex -2.69718 2.53282 1
    endloop
  endfacet
  facet normal 0.770513 -0.637424 0
    outer loop
      vertex -2.69718 2.53282 -1
      vertex -2.99336 2.1748 1
      vertex -2.99336 2.1748 -1
    endloop
  endfacet
  facet normal 0.98229 -0.187368 0
    outer loop
      vertex -3.67082 0.463733 1
      vertex -3.58376 0.920152 -1
      vertex -3.58376 0.920152 1
    endloop
  endfacet
  facet normal 0.98229 -0.187368 0
    outer loop
      vertex -3.58376 0.920152 -1
      vertex -3.67082 0.463733 1
      vertex -3.67082 0.463733 -1
    endloop
  endfacet
  facet normal 0.481755 -0.876306 0
    outer loop
      vertex -1.98256 3.12401 -1
      vertex -1.57538 3.34786 1
      vertex -1.98256 3.12401 1
    endloop
  endfacet
  facet normal 0.481755 -0.876306 0
    outer loop
      vertex -1.57538 3.34786 1
      vertex -1.98256 3.12401 -1
      vertex -1.57538 3.34786 -1
    endloop
  endfacet
  facet normal 0.587779 -0.809022 0
    outer loop
      vertex -2.35847 2.8509 -1
      vertex -1.98256 3.12401 1
      vertex -2.35847 2.8509 1
    endloop
  endfacet
  facet normal 0.587779 -0.809022 0
    outer loop
      vertex -1.98256 3.12401 1
      vertex -2.35847 2.8509 -1
      vertex -1.98256 3.12401 -1
    endloop
  endfacet
  facet normal 0.248684 -0.968585 0
    outer loop
      vertex -1.14336 3.51891 -1
      vertex -0.693311 3.63446 1
      vertex -1.14336 3.51891 1
    endloop
  endfacet
  facet normal 0.248684 -0.968585 0
    outer loop
      vertex -0.693311 3.63446 1
      vertex -1.14336 3.51891 -1
      vertex -0.693311 3.63446 -1
    endloop
  endfacet
  facet normal -0.998026 0.0627999 0
    outer loop
      vertex 3.67082 -0.463733 -1
      vertex 3.7 0 1
      vertex 3.7 0 -1
    endloop
  endfacet
  facet normal -0.998026 0.0627999 0
    outer loop
      vertex 3.7 0 1
      vertex 3.67082 -0.463733 -1
      vertex 3.67082 -0.463733 1
    endloop
  endfacet
  facet normal -0.481755 0.876306 0
    outer loop
      vertex 1.98256 -3.12401 -1
      vertex 1.57538 -3.34786 1
      vertex 1.98256 -3.12401 1
    endloop
  endfacet
  facet normal -0.481755 0.876306 0
    outer loop
      vertex 1.57538 -3.34786 1
      vertex 1.98256 -3.12401 -1
      vertex 1.57538 -3.34786 -1
    endloop
  endfacet
  facet normal -0.684559 0.728958 0
    outer loop
      vertex 2.69718 -2.53282 -1
      vertex 2.35847 -2.8509 1
      vertex 2.69718 -2.53282 1
    endloop
  endfacet
  facet normal -0.684559 0.728958 0
    outer loop
      vertex 2.35847 -2.8509 1
      vertex 2.69718 -2.53282 -1
      vertex 2.35847 -2.8509 -1
    endloop
  endfacet
  facet normal -0.98229 0.187368 0
    outer loop
      vertex 3.58376 -0.920152 -1
      vertex 3.67082 -0.463733 1
      vertex 3.67082 -0.463733 -1
    endloop
  endfacet
  facet normal -0.98229 0.187368 0
    outer loop
      vertex 3.67082 -0.463733 1
      vertex 3.58376 -0.920152 -1
      vertex 3.58376 -0.920152 1
    endloop
  endfacet
  facet normal -0.904827 0.42578 0
    outer loop
      vertex 3.24233 -1.78249 -1
      vertex 3.44017 -1.36206 1
      vertex 3.44017 -1.36206 -1
    endloop
  endfacet
  facet normal -0.904827 0.42578 0
    outer loop
      vertex 3.44017 -1.36206 1
      vertex 3.24233 -1.78249 -1
      vertex 3.24233 -1.78249 1
    endloop
  endfacet
  facet normal -0.770513 0.637424 0
    outer loop
      vertex 2.69718 -2.53282 -1
      vertex 2.99336 -2.1748 1
      vertex 2.99336 -2.1748 -1
    endloop
  endfacet
  facet normal -0.770513 0.637424 0
    outer loop
      vertex 2.99336 -2.1748 1
      vertex 2.69718 -2.53282 -1
      vertex 2.69718 -2.53282 1
    endloop
  endfacet
  facet normal 0.684559 0.728958 -0
    outer loop
      vertex -2.35847 -2.8509 -1
      vertex -2.69718 -2.53282 1
      vertex -2.35847 -2.8509 1
    endloop
  endfacet
  facet normal 0.684559 0.728958 0
    outer loop
      vertex -2.69718 -2.53282 1
      vertex -2.35847 -2.8509 -1
      vertex -2.69718 -2.53282 -1
    endloop
  endfacet
  facet normal 0.844325 0.535831 0
    outer loop
      vertex -2.99336 -2.1748 1
      vertex -3.24233 -1.78249 -1
      vertex -3.24233 -1.78249 1
    endloop
  endfacet
  facet normal 0.844325 0.535831 0
    outer loop
      vertex -3.24233 -1.78249 -1
      vertex -2.99336 -2.1748 1
      vertex -2.99336 -2.1748 -1
    endloop
  endfacet
  facet normal 0.951053 0.309027 0
    outer loop
      vertex -3.44017 -1.36206 1
      vertex -3.58376 -0.920152 -1
      vertex -3.58376 -0.920152 1
    endloop
  endfacet
  facet normal 0.951053 0.309027 0
    outer loop
      vertex -3.58376 -0.920152 -1
      vertex -3.44017 -1.36206 1
      vertex -3.44017 -1.36206 -1
    endloop
  endfacet
  facet normal -0.248684 0.968585 0
    outer loop
      vertex 1.14336 -3.51891 -1
      vertex 0.693311 -3.63446 1
      vertex 1.14336 -3.51891 1
    endloop
  endfacet
  facet normal -0.248684 0.968585 0
    outer loop
      vertex 0.693311 -3.63446 1
      vertex 1.14336 -3.51891 -1
      vertex 0.693311 -3.63446 -1
    endloop
  endfacet
  facet normal -0.587779 0.809022 0
    outer loop
      vertex 2.35847 -2.8509 -1
      vertex 1.98256 -3.12401 1
      vertex 2.35847 -2.8509 1
    endloop
  endfacet
  facet normal -0.587779 0.809022 0
    outer loop
      vertex 1.98256 -3.12401 1
      vertex 2.35847 -2.8509 -1
      vertex 1.98256 -3.12401 -1
    endloop
  endfacet
  facet normal -0.951053 0.309027 0
    outer loop
      vertex 3.44017 -1.36206 -1
      vertex 3.58376 -0.920152 1
      vertex 3.58376 -0.920152 -1
    endloop
  endfacet
  facet normal -0.951053 0.309027 0
    outer loop
      vertex 3.58376 -0.920152 1
      vertex 3.44017 -1.36206 -1
      vertex 3.44017 -1.36206 1
    endloop
  endfacet
  facet normal -0.844325 0.535831 0
    outer loop
      vertex 2.99336 -2.1748 -1
      vertex 3.24233 -1.78249 1
      vertex 3.24233 -1.78249 -1
    endloop
  endfacet
  facet normal -0.844325 0.535831 0
    outer loop
      vertex 3.24233 -1.78249 1
      vertex 2.99336 -2.1748 -1
      vertex 2.99336 -2.1748 1
    endloop
  endfacet
  facet normal 0.125342 0.992114 -0
    outer loop
      vertex -0.232325 -3.6927 -1
      vertex -0.693311 -3.63446 1
      vertex -0.232325 -3.6927 1
    endloop
  endfacet
  facet normal 0.125342 0.992114 0
    outer loop
      vertex -0.693311 -3.63446 1
      vertex -0.232325 -3.6927 -1
      vertex -0.693311 -3.63446 -1
    endloop
  endfacet
  facet normal 0.368127 0.929776 -0
    outer loop
      vertex -1.14336 -3.51891 -1
      vertex -1.57538 -3.34786 1
      vertex -1.14336 -3.51891 1
    endloop
  endfacet
  facet normal 0.368127 0.929776 0
    outer loop
      vertex -1.57538 -3.34786 1
      vertex -1.14336 -3.51891 -1
      vertex -1.57538 -3.34786 -1
    endloop
  endfacet
  facet normal 0.248684 0.968585 -0
    outer loop
      vertex -0.693311 -3.63446 -1
      vertex -1.14336 -3.51891 1
      vertex -0.693311 -3.63446 1
    endloop
  endfacet
  facet normal 0.248684 0.968585 0
    outer loop
      vertex -1.14336 -3.51891 1
      vertex -0.693311 -3.63446 -1
      vertex -1.14336 -3.51891 -1
    endloop
  endfacet
  facet normal 0.770513 0.637424 0
    outer loop
      vertex -2.69718 -2.53282 1
      vertex -2.99336 -2.1748 -1
      vertex -2.99336 -2.1748 1
    endloop
  endfacet
  facet normal 0.770513 0.637424 0
    outer loop
      vertex -2.99336 -2.1748 -1
      vertex -2.69718 -2.53282 1
      vertex -2.69718 -2.53282 -1
    endloop
  endfacet
  facet normal 0.904827 0.42578 0
    outer loop
      vertex -3.24233 -1.78249 1
      vertex -3.44017 -1.36206 -1
      vertex -3.44017 -1.36206 1
    endloop
  endfacet
  facet normal 0.904827 0.42578 0
    outer loop
      vertex -3.44017 -1.36206 -1
      vertex -3.24233 -1.78249 1
      vertex -3.24233 -1.78249 -1
    endloop
  endfacet
  facet normal 0.98229 0.187368 0
    outer loop
      vertex -3.58376 -0.920152 1
      vertex -3.67082 -0.463733 -1
      vertex -3.67082 -0.463733 1
    endloop
  endfacet
  facet normal 0.98229 0.187368 0
    outer loop
      vertex -3.67082 -0.463733 -1
      vertex -3.58376 -0.920152 1
      vertex -3.58376 -0.920152 -1
    endloop
  endfacet
  facet normal 0.998026 0.0627999 0
    outer loop
      vertex -3.67082 -0.463733 1
      vertex -3.7 0 -1
      vertex -3.7 0 1
    endloop
  endfacet
  facet normal 0.998026 0.0627999 0
    outer loop
      vertex -3.7 0 -1
      vertex -3.67082 -0.463733 1
      vertex -3.67082 -0.463733 -1
    endloop
  endfacet
  facet normal 0.481755 0.876306 -0
    outer loop
      vertex -1.57538 -3.34786 -1
      vertex -1.98256 -3.12401 1
      vertex -1.57538 -3.34786 1
    endloop
  endfacet
  facet normal 0.481755 0.876306 0
    outer loop
      vertex -1.98256 -3.12401 1
      vertex -1.57538 -3.34786 -1
      vertex -1.98256 -3.12401 -1
    endloop
  endfacet
  facet normal 0.587779 0.809022 -0
    outer loop
      vertex -1.98256 -3.12401 -1
      vertex -2.35847 -2.8509 1
      vertex -1.98256 -3.12401 1
    endloop
  endfacet
  facet normal 0.587779 0.809022 0
    outer loop
      vertex -2.35847 -2.8509 1
      vertex -1.98256 -3.12401 -1
      vertex -2.35847 -2.8509 -1
    endloop
  endfacet
  facet normal 1 -0 0
    outer loop
      vertex -7 9 1
      vertex -7 13 -1
      vertex -7 13 1
    endloop
  endfacet
  facet normal 1 0 0
    outer loop
      vertex -7 13 -1
      vertex -7 9 1
      vertex -7 9 -1
    endloop
  endfacet
  facet normal -1 0 0
    outer loop
      vertex 7 9 -1
      vertex 7 13 1
      vertex 7 13 -1
    endloop
  endfacet
  facet normal -1 -0 0
    outer loop
      vertex 7 13 1
      vertex 7 9 -1
      vertex 7 9 1
    endloop
  endfacet
  facet normal 0 1 -0
    outer loop
      vertex 7 9 -1
      vertex -7 9 1
      vertex 7 9 1
    endloop
  endfacet
  facet normal 0 1 0
    outer loop
      vertex -7 9 1
      vertex 7 9 -1
      vertex -7 9 -1
    endloop
  endfacet
  facet normal 0 -1 0
    outer loop
      vertex -7 13 -1
      vertex 7 13 1
      vertex -7 13 1
    endloop
  endfacet
  facet normal 0 -1 -0
    outer loop
      vertex 7 13 1
      vertex -7 13 -1
      vertex 7 13 -1
    endloop
  endfacet
  facet normal -0.998018 -0.0629292 0
    outer loop
      vertex -10.38 -16 -1
      vertex -10.3928 -15.797 1
      vertex -10.3928 -15.797 -1
    endloop
  endfacet
  facet normal -0.998018 -0.0629292 0
    outer loop
      vertex -10.3928 -15.797 1
      vertex -10.38 -16 -1
      vertex -10.38 -16 1
    endloop
  endfacet
  facet normal 0.998018 -0.0629292 0
    outer loop
      vertex -13.62 -16 1
      vertex -13.6072 -15.797 -1
      vertex -13.6072 -15.797 1
    endloop
  endfacet
  facet normal 0.998018 -0.0629292 0
    outer loop
      vertex -13.6072 -15.797 -1
      vertex -13.62 -16 1
      vertex -13.62 -16 -1
    endloop
  endfacet
  facet normal 0 -1 0
    outer loop
      vertex -12.1017 -14.3832 -1
      vertex -11.8983 -14.3832 1
      vertex -12.1017 -14.3832 1
    endloop
  endfacet
  facet normal 0 -1 -0
    outer loop
      vertex -11.8983 -14.3832 1
      vertex -12.1017 -14.3832 -1
      vertex -11.8983 -14.3832 -1
    endloop
  endfacet
  facet normal 0 1 -0
    outer loop
      vertex -11.8983 -17.6168 -1
      vertex -12.1017 -17.6168 1
      vertex -11.8983 -17.6168 1
    endloop
  endfacet
  facet normal 0 1 0
    outer loop
      vertex -12.1017 -17.6168 1
      vertex -11.8983 -17.6168 -1
      vertex -12.1017 -17.6168 -1
    endloop
  endfacet
  facet normal -0.684383 -0.729123 0
    outer loop
      vertex -10.9674 -14.7518 -1
      vertex -10.8191 -14.891 1
      vertex -10.9674 -14.7518 1
    endloop
  endfacet
  facet normal -0.684383 -0.729123 -0
    outer loop
      vertex -10.8191 -14.891 1
      vertex -10.9674 -14.7518 -1
      vertex -10.8191 -14.891 -1
    endloop
  endfacet
  facet normal 0.684383 -0.729123 0
    outer loop
      vertex -13.1809 -14.891 -1
      vertex -13.0326 -14.7518 1
      vertex -13.1809 -14.891 1
    endloop
  endfacet
  facet normal 0.684383 -0.729123 0
    outer loop
      vertex -13.0326 -14.7518 1
      vertex -13.1809 -14.891 -1
      vertex -13.0326 -14.7518 -1
    endloop
  endfacet
  facet normal 0.368084 -0.929793 0
    outer loop
      vertex -12.6898 -14.5342 -1
      vertex -12.5006 -14.4593 1
      vertex -12.6898 -14.5342 1
    endloop
  endfacet
  facet normal 0.368084 -0.929793 0
    outer loop
      vertex -12.5006 -14.4593 1
      vertex -12.6898 -14.5342 -1
      vertex -12.5006 -14.4593 -1
    endloop
  endfacet
  facet normal -0.844389 0.53573 0
    outer loop
      vertex -10.6894 -16.9522 -1
      vertex -10.5804 -16.7804 1
      vertex -10.5804 -16.7804 -1
    endloop
  endfacet
  facet normal -0.844389 0.53573 0
    outer loop
      vertex -10.5804 -16.7804 1
      vertex -10.6894 -16.9522 -1
      vertex -10.6894 -16.9522 1
    endloop
  endfacet
  facet normal -0.904796 -0.425844 0
    outer loop
      vertex -10.4938 -15.4036 -1
      vertex -10.5804 -15.2196 1
      vertex -10.5804 -15.2196 -1
    endloop
  endfacet
  facet normal -0.904796 -0.425844 0
    outer loop
      vertex -10.5804 -15.2196 1
      vertex -10.4938 -15.4036 -1
      vertex -10.4938 -15.4036 1
    endloop
  endfacet
  facet normal -0.982317 -0.187225 0
    outer loop
      vertex -10.3928 -15.797 -1
      vertex -10.4309 -15.5971 1
      vertex -10.4309 -15.5971 -1
    endloop
  endfacet
  facet normal -0.982317 -0.187225 0
    outer loop
      vertex -10.4309 -15.5971 1
      vertex -10.3928 -15.797 -1
      vertex -10.3928 -15.797 1
    endloop
  endfacet
  facet normal -0.368084 -0.929793 0
    outer loop
      vertex -11.4994 -14.4593 -1
      vertex -11.3102 -14.5342 1
      vertex -11.4994 -14.4593 1
    endloop
  endfacet
  facet normal -0.368084 -0.929793 -0
    outer loop
      vertex -11.3102 -14.5342 1
      vertex -11.4994 -14.4593 -1
      vertex -11.3102 -14.5342 -1
    endloop
  endfacet
  facet normal -0.587821 -0.808991 0
    outer loop
      vertex -11.132 -14.6322 -1
      vertex -10.9674 -14.7518 1
      vertex -11.132 -14.6322 1
    endloop
  endfacet
  facet normal -0.587821 -0.808991 -0
    outer loop
      vertex -10.9674 -14.7518 1
      vertex -11.132 -14.6322 -1
      vertex -10.9674 -14.7518 -1
    endloop
  endfacet
  facet normal 0.904796 -0.425844 0
    outer loop
      vertex -13.5062 -15.4036 1
      vertex -13.4196 -15.2196 -1
      vertex -13.4196 -15.2196 1
    endloop
  endfacet
  facet normal 0.904796 -0.425844 0
    outer loop
      vertex -13.4196 -15.2196 -1
      vertex -13.5062 -15.4036 1
      vertex -13.5062 -15.4036 -1
    endloop
  endfacet
  facet normal 0.844389 -0.53573 0
    outer loop
      vertex -13.4196 -15.2196 1
      vertex -13.3106 -15.0478 -1
      vertex -13.3106 -15.0478 1
    endloop
  endfacet
  facet normal 0.844389 -0.53573 0
    outer loop
      vertex -13.3106 -15.0478 -1
      vertex -13.4196 -15.2196 1
      vertex -13.4196 -15.2196 -1
    endloop
  endfacet
  facet normal 0.951016 -0.309142 0
    outer loop
      vertex -13.5691 -15.5971 1
      vertex -13.5062 -15.4036 -1
      vertex -13.5062 -15.4036 1
    endloop
  endfacet
  facet normal 0.951016 -0.309142 0
    outer loop
      vertex -13.5062 -15.4036 -1
      vertex -13.5691 -15.5971 1
      vertex -13.5691 -15.5971 -1
    endloop
  endfacet
  facet normal 0.481881 -0.876237 0
    outer loop
      vertex -12.868 -14.6322 -1
      vertex -12.6898 -14.5342 1
      vertex -12.868 -14.6322 1
    endloop
  endfacet
  facet normal 0.481881 -0.876237 0
    outer loop
      vertex -12.6898 -14.5342 1
      vertex -12.868 -14.6322 -1
      vertex -12.6898 -14.5342 -1
    endloop
  endfacet
  facet normal 0.248778 -0.968561 0
    outer loop
      vertex -12.5006 -14.4593 -1
      vertex -12.3036 -14.4087 1
      vertex -12.5006 -14.4593 1
    endloop
  endfacet
  facet normal 0.248778 -0.968561 0
    outer loop
      vertex -12.3036 -14.4087 1
      vertex -12.5006 -14.4593 -1
      vertex -12.3036 -14.4087 -1
    endloop
  endfacet
  facet normal -0.951016 0.309142 0
    outer loop
      vertex -10.4938 -16.5964 -1
      vertex -10.4309 -16.4029 1
      vertex -10.4309 -16.4029 -1
    endloop
  endfacet
  facet normal -0.951016 0.309142 0
    outer loop
      vertex -10.4309 -16.4029 1
      vertex -10.4938 -16.5964 -1
      vertex -10.4938 -16.5964 1
    endloop
  endfacet
  facet normal -0.368084 0.929793 0
    outer loop
      vertex -11.3102 -17.4658 -1
      vertex -11.4994 -17.5407 1
      vertex -11.3102 -17.4658 1
    endloop
  endfacet
  facet normal -0.368084 0.929793 0
    outer loop
      vertex -11.4994 -17.5407 1
      vertex -11.3102 -17.4658 -1
      vertex -11.4994 -17.5407 -1
    endloop
  endfacet
  facet normal -0.951016 -0.309142 0
    outer loop
      vertex -10.4309 -15.5971 -1
      vertex -10.4938 -15.4036 1
      vertex -10.4938 -15.4036 -1
    endloop
  endfacet
  facet normal -0.951016 -0.309142 0
    outer loop
      vertex -10.4938 -15.4036 1
      vertex -10.4309 -15.5971 -1
      vertex -10.4309 -15.5971 1
    endloop
  endfacet
  facet normal -0.770552 -0.637377 0
    outer loop
      vertex -10.6894 -15.0478 -1
      vertex -10.8191 -14.891 1
      vertex -10.8191 -14.891 -1
    endloop
  endfacet
  facet normal -0.770552 -0.637377 0
    outer loop
      vertex -10.8191 -14.891 1
      vertex -10.6894 -15.0478 -1
      vertex -10.6894 -15.0478 1
    endloop
  endfacet
  facet normal -0.844389 -0.53573 0
    outer loop
      vertex -10.5804 -15.2196 -1
      vertex -10.6894 -15.0478 1
      vertex -10.6894 -15.0478 -1
    endloop
  endfacet
  facet normal -0.844389 -0.53573 0
    outer loop
      vertex -10.6894 -15.0478 1
      vertex -10.5804 -15.2196 -1
      vertex -10.5804 -15.2196 1
    endloop
  endfacet
  facet normal -0.248778 -0.968561 0
    outer loop
      vertex -11.6964 -14.4087 -1
      vertex -11.4994 -14.4593 1
      vertex -11.6964 -14.4087 1
    endloop
  endfacet
  facet normal -0.248778 -0.968561 -0
    outer loop
      vertex -11.4994 -14.4593 1
      vertex -11.6964 -14.4087 -1
      vertex -11.4994 -14.4593 -1
    endloop
  endfacet
  facet normal -0.125305 -0.992118 0
    outer loop
      vertex -11.8983 -14.3832 -1
      vertex -11.6964 -14.4087 1
      vertex -11.8983 -14.3832 1
    endloop
  endfacet
  facet normal -0.125305 -0.992118 -0
    outer loop
      vertex -11.6964 -14.4087 1
      vertex -11.8983 -14.3832 -1
      vertex -11.6964 -14.4087 -1
    endloop
  endfacet
  facet normal 0.982317 -0.187225 0
    outer loop
      vertex -13.6072 -15.797 1
      vertex -13.5691 -15.5971 -1
      vertex -13.5691 -15.5971 1
    endloop
  endfacet
  facet normal 0.982317 -0.187225 0
    outer loop
      vertex -13.5691 -15.5971 -1
      vertex -13.6072 -15.797 1
      vertex -13.6072 -15.797 -1
    endloop
  endfacet
  facet normal 0.587821 -0.808991 0
    outer loop
      vertex -13.0326 -14.7518 -1
      vertex -12.868 -14.6322 1
      vertex -13.0326 -14.7518 1
    endloop
  endfacet
  facet normal 0.587821 -0.808991 0
    outer loop
      vertex -12.868 -14.6322 1
      vertex -13.0326 -14.7518 -1
      vertex -12.868 -14.6322 -1
    endloop
  endfacet
  facet normal 0.125305 -0.992118 0
    outer loop
      vertex -12.3036 -14.4087 -1
      vertex -12.1017 -14.3832 1
      vertex -12.3036 -14.4087 1
    endloop
  endfacet
  facet normal 0.125305 -0.992118 0
    outer loop
      vertex -12.1017 -14.3832 1
      vertex -12.3036 -14.4087 -1
      vertex -12.1017 -14.3832 -1
    endloop
  endfacet
  facet normal -0.770552 0.637377 0
    outer loop
      vertex -10.8191 -17.109 -1
      vertex -10.6894 -16.9522 1
      vertex -10.6894 -16.9522 -1
    endloop
  endfacet
  facet normal -0.770552 0.637377 0
    outer loop
      vertex -10.6894 -16.9522 1
      vertex -10.8191 -17.109 -1
      vertex -10.8191 -17.109 1
    endloop
  endfacet
  facet normal -0.982317 0.187225 0
    outer loop
      vertex -10.4309 -16.4029 -1
      vertex -10.3928 -16.203 1
      vertex -10.3928 -16.203 -1
    endloop
  endfacet
  facet normal -0.982317 0.187225 0
    outer loop
      vertex -10.3928 -16.203 1
      vertex -10.4309 -16.4029 -1
      vertex -10.4309 -16.4029 1
    endloop
  endfacet
  facet normal 0.368084 0.929793 -0
    outer loop
      vertex -12.5006 -17.5407 -1
      vertex -12.6898 -17.4658 1
      vertex -12.5006 -17.5407 1
    endloop
  endfacet
  facet normal 0.368084 0.929793 0
    outer loop
      vertex -12.6898 -17.4658 1
      vertex -12.5006 -17.5407 -1
      vertex -12.6898 -17.4658 -1
    endloop
  endfacet
  facet normal 0.904796 0.425844 0
    outer loop
      vertex -13.4196 -16.7804 1
      vertex -13.5062 -16.5964 -1
      vertex -13.5062 -16.5964 1
    endloop
  endfacet
  facet normal 0.904796 0.425844 0
    outer loop
      vertex -13.5062 -16.5964 -1
      vertex -13.4196 -16.7804 1
      vertex -13.4196 -16.7804 -1
    endloop
  endfacet
  facet normal -0.481881 0.876237 0
    outer loop
      vertex -11.132 -17.3678 -1
      vertex -11.3102 -17.4658 1
      vertex -11.132 -17.3678 1
    endloop
  endfacet
  facet normal -0.481881 0.876237 0
    outer loop
      vertex -11.3102 -17.4658 1
      vertex -11.132 -17.3678 -1
      vertex -11.3102 -17.4658 -1
    endloop
  endfacet
  facet normal -0.481881 -0.876237 0
    outer loop
      vertex -11.3102 -14.5342 -1
      vertex -11.132 -14.6322 1
      vertex -11.3102 -14.5342 1
    endloop
  endfacet
  facet normal -0.481881 -0.876237 -0
    outer loop
      vertex -11.132 -14.6322 1
      vertex -11.3102 -14.5342 -1
      vertex -11.132 -14.6322 -1
    endloop
  endfacet
  facet normal 0.770552 -0.637377 0
    outer loop
      vertex -13.3106 -15.0478 1
      vertex -13.1809 -14.891 -1
      vertex -13.1809 -14.891 1
    endloop
  endfacet
  facet normal 0.770552 -0.637377 0
    outer loop
      vertex -13.1809 -14.891 -1
      vertex -13.3106 -15.0478 1
      vertex -13.3106 -15.0478 -1
    endloop
  endfacet
  facet normal -0.587821 0.808991 0
    outer loop
      vertex -10.9674 -17.2482 -1
      vertex -11.132 -17.3678 1
      vertex -10.9674 -17.2482 1
    endloop
  endfacet
  facet normal -0.587821 0.808991 0
    outer loop
      vertex -11.132 -17.3678 1
      vertex -10.9674 -17.2482 -1
      vertex -11.132 -17.3678 -1
    endloop
  endfacet
  facet normal -0.904796 0.425844 0
    outer loop
      vertex -10.5804 -16.7804 -1
      vertex -10.4938 -16.5964 1
      vertex -10.4938 -16.5964 -1
    endloop
  endfacet
  facet normal -0.904796 0.425844 0
    outer loop
      vertex -10.4938 -16.5964 1
      vertex -10.5804 -16.7804 -1
      vertex -10.5804 -16.7804 1
    endloop
  endfacet
  facet normal -0.998018 0.0629292 0
    outer loop
      vertex -10.3928 -16.203 -1
      vertex -10.38 -16 1
      vertex -10.38 -16 -1
    endloop
  endfacet
  facet normal -0.998018 0.0629292 0
    outer loop
      vertex -10.38 -16 1
      vertex -10.3928 -16.203 -1
      vertex -10.3928 -16.203 1
    endloop
  endfacet
  facet normal 0.684383 0.729123 -0
    outer loop
      vertex -13.0326 -17.2482 -1
      vertex -13.1809 -17.109 1
      vertex -13.0326 -17.2482 1
    endloop
  endfacet
  facet normal 0.684383 0.729123 0
    outer loop
      vertex -13.1809 -17.109 1
      vertex -13.0326 -17.2482 -1
      vertex -13.1809 -17.109 -1
    endloop
  endfacet
  facet normal 0.951016 0.309142 0
    outer loop
      vertex -13.5062 -16.5964 1
      vertex -13.5691 -16.4029 -1
      vertex -13.5691 -16.4029 1
    endloop
  endfacet
  facet normal 0.951016 0.309142 0
    outer loop
      vertex -13.5691 -16.4029 -1
      vertex -13.5062 -16.5964 1
      vertex -13.5062 -16.5964 -1
    endloop
  endfacet
  facet normal 0.998018 0.0629292 0
    outer loop
      vertex -13.6072 -16.203 1
      vertex -13.62 -16 -1
      vertex -13.62 -16 1
    endloop
  endfacet
  facet normal 0.998018 0.0629292 0
    outer loop
      vertex -13.62 -16 -1
      vertex -13.6072 -16.203 1
      vertex -13.6072 -16.203 -1
    endloop
  endfacet
  facet normal -0.125305 0.992118 0
    outer loop
      vertex -11.6964 -17.5913 -1
      vertex -11.8983 -17.6168 1
      vertex -11.6964 -17.5913 1
    endloop
  endfacet
  facet normal -0.125305 0.992118 0
    outer loop
      vertex -11.8983 -17.6168 1
      vertex -11.6964 -17.5913 -1
      vertex -11.8983 -17.6168 -1
    endloop
  endfacet
  facet normal -0.684383 0.729123 0
    outer loop
      vertex -10.8191 -17.109 -1
      vertex -10.9674 -17.2482 1
      vertex -10.8191 -17.109 1
    endloop
  endfacet
  facet normal -0.684383 0.729123 0
    outer loop
      vertex -10.9674 -17.2482 1
      vertex -10.8191 -17.109 -1
      vertex -10.9674 -17.2482 -1
    endloop
  endfacet
  facet normal 0.125305 0.992118 -0
    outer loop
      vertex -12.1017 -17.6168 -1
      vertex -12.3036 -17.5913 1
      vertex -12.1017 -17.6168 1
    endloop
  endfacet
  facet normal 0.125305 0.992118 0
    outer loop
      vertex -12.3036 -17.5913 1
      vertex -12.1017 -17.6168 -1
      vertex -12.3036 -17.5913 -1
    endloop
  endfacet
  facet normal 0.481881 0.876237 -0
    outer loop
      vertex -12.6898 -17.4658 -1
      vertex -12.868 -17.3678 1
      vertex -12.6898 -17.4658 1
    endloop
  endfacet
  facet normal 0.481881 0.876237 0
    outer loop
      vertex -12.868 -17.3678 1
      vertex -12.6898 -17.4658 -1
      vertex -12.868 -17.3678 -1
    endloop
  endfacet
  facet normal 0.248778 0.968561 -0
    outer loop
      vertex -12.3036 -17.5913 -1
      vertex -12.5006 -17.5407 1
      vertex -12.3036 -17.5913 1
    endloop
  endfacet
  facet normal 0.248778 0.968561 0
    outer loop
      vertex -12.5006 -17.5407 1
      vertex -12.3036 -17.5913 -1
      vertex -12.5006 -17.5407 -1
    endloop
  endfacet
  facet normal 0.844389 0.53573 0
    outer loop
      vertex -13.3106 -16.9522 1
      vertex -13.4196 -16.7804 -1
      vertex -13.4196 -16.7804 1
    endloop
  endfacet
  facet normal 0.844389 0.53573 0
    outer loop
      vertex -13.4196 -16.7804 -1
      vertex -13.3106 -16.9522 1
      vertex -13.3106 -16.9522 -1
    endloop
  endfacet
  facet normal 0.982317 0.187225 0
    outer loop
      vertex -13.5691 -16.4029 1
      vertex -13.6072 -16.203 -1
      vertex -13.6072 -16.203 1
    endloop
  endfacet
  facet normal 0.982317 0.187225 0
    outer loop
      vertex -13.6072 -16.203 -1
      vertex -13.5691 -16.4029 1
      vertex -13.5691 -16.4029 -1
    endloop
  endfacet
  facet normal -0.248778 0.968561 0
    outer loop
      vertex -11.4994 -17.5407 -1
      vertex -11.6964 -17.5913 1
      vertex -11.4994 -17.5407 1
    endloop
  endfacet
  facet normal -0.248778 0.968561 0
    outer loop
      vertex -11.6964 -17.5913 1
      vertex -11.4994 -17.5407 -1
      vertex -11.6964 -17.5913 -1
    endloop
  endfacet
  facet normal 0.587821 0.808991 -0
    outer loop
      vertex -12.868 -17.3678 -1
      vertex -13.0326 -17.2482 1
      vertex -12.868 -17.3678 1
    endloop
  endfacet
  facet normal 0.587821 0.808991 0
    outer loop
      vertex -13.0326 -17.2482 1
      vertex -12.868 -17.3678 -1
      vertex -13.0326 -17.2482 -1
    endloop
  endfacet
  facet normal 0.770552 0.637377 0
    outer loop
      vertex -13.1809 -17.109 1
      vertex -13.3106 -16.9522 -1
      vertex -13.3106 -16.9522 1
    endloop
  endfacet
  facet normal 0.770552 0.637377 0
    outer loop
      vertex -13.3106 -16.9522 -1
      vertex -13.1809 -17.109 1
      vertex -13.1809 -17.109 -1
    endloop
  endfacet
  facet normal -1 0 0
    outer loop
      vertex -7 -5.95 1
      vertex -7 5.95 5
      vertex -7 5.95 1
    endloop
  endfacet
  facet normal -1 -0 0
    outer loop
      vertex -7 5.95 5
      vertex -7 -5.95 1
      vertex -7 -5.95 5
    endloop
  endfacet
  facet normal -0 0 1
    outer loop
      vertex 6 5.95 5
      vertex 7 -5.95 5
      vertex 7 5.95 5
    endloop
  endfacet
  facet normal 0 0 1
    outer loop
      vertex 7 -5.95 5
      vertex 6 5.95 5
      vertex 6 -5.95 5
    endloop
  endfacet
  facet normal -0 0 1
    outer loop
      vertex -7 5.95 5
      vertex -6 -5.95 5
      vertex -6 5.95 5
    endloop
  endfacet
  facet normal 0 0 1
    outer loop
      vertex -6 -5.95 5
      vertex -7 5.95 5
      vertex -7 -5.95 5
    endloop
  endfacet
  facet normal 1 -0 0
    outer loop
      vertex 7 -5.95 5
      vertex 7 5.95 1
      vertex 7 5.95 5
    endloop
  endfacet
  facet normal 1 0 0
    outer loop
      vertex 7 5.95 1
      vertex 7 -5.95 5
      vertex 7 -5.95 1
    endloop
  endfacet
  facet normal 0 -1 0
    outer loop
      vertex 6 -5.95 1
      vertex 7 -5.95 5
      vertex 6 -5.95 5
    endloop
  endfacet
  facet normal 0 -1 -0
    outer loop
      vertex 7 -5.95 5
      vertex 6 -5.95 1
      vertex 7 -5.95 1
    endloop
  endfacet
  facet normal 0 -1 0
    outer loop
      vertex -7 -5.95 1
      vertex -6 -5.95 5
      vertex -7 -5.95 5
    endloop
  endfacet
  facet normal 0 -1 -0
    outer loop
      vertex -6 -5.95 5
      vertex -7 -5.95 1
      vertex -6 -5.95 1
    endloop
  endfacet
  facet normal 0 1 -0
    outer loop
      vertex 7 5.95 1
      vertex 6 5.95 5
      vertex 7 5.95 5
    endloop
  endfacet
  facet normal 0 1 0
    outer loop
      vertex 6 5.95 5
      vertex 7 5.95 1
      vertex 6 5.95 1
    endloop
  endfacet
  facet normal 0 1 -0
    outer loop
      vertex -6 5.95 1
      vertex -7 5.95 5
      vertex -6 5.95 5
    endloop
  endfacet
  facet normal 0 1 0
    outer loop
      vertex -7 5.95 5
      vertex -6 5.95 1
      vertex -7 5.95 1
    endloop
  endfacet
  facet normal 1 -0 0
    outer loop
      vertex -6 -5.95 5
      vertex -6 5.95 1
      vertex -6 5.95 5
    endloop
  endfacet
  facet normal 1 0 0
    outer loop
      vertex -6 5.95 1
      vertex -6 -5.95 5
      vertex -6 -5.95 1
    endloop
  endfacet
  facet normal -1 0 0
    outer loop
      vertex 6 -5.95 1
      vertex 6 5.95 5
      vertex 6 5.95 1
    endloop
  endfacet
  facet normal -1 -0 0
    outer loop
      vertex 6 5.95 5
      vertex 6 -5.95 1
      vertex 6 -5.95 5
    endloop
  endfacet
  facet normal -1 0 0
    outer loop
      vertex -9 6 1
      vertex -9 17 10
      vertex -9 17 1
    endloop
  endfacet
  facet normal -1 -0 0
    outer loop
      vertex -9 17 10
      vertex -9 6 1
      vertex -9 6 10
    endloop
  endfacet
  facet normal 0 0 1
    outer loop
      vertex 9 17 10
      vertex 8 16 10
      vertex 9 6 10
    endloop
  endfacet
  facet normal 0 0 1
    outer loop
      vertex 9 17 10
      vertex -8 16 10
      vertex 8 16 10
    endloop
  endfacet
  facet normal 0 0 1
    outer loop
      vertex -8 16 10
      vertex -9 17 10
      vertex -8 7 10
    endloop
  endfacet
  facet normal -0 0 1
    outer loop
      vertex -9 17 10
      vertex -8 16 10
      vertex 9 17 10
    endloop
  endfacet
  facet normal -0 0 1
    outer loop
      vertex 8 7 10
      vertex 9 6 10
      vertex 8 16 10
    endloop
  endfacet
  facet normal -0 0 1
    outer loop
      vertex -8 7 10
      vertex 9 6 10
      vertex 8 7 10
    endloop
  endfacet
  facet normal 0 0 1
    outer loop
      vertex -8 7 10
      vertex -9 6 10
      vertex 9 6 10
    endloop
  endfacet
  facet normal 0 0 1
    outer loop
      vertex -9 6 10
      vertex -8 7 10
      vertex -9 17 10
    endloop
  endfacet
  facet normal 1 -0 0
    outer loop
      vertex 9 6 10
      vertex 9 17 1
      vertex 9 17 10
    endloop
  endfacet
  facet normal 1 0 0
    outer loop
      vertex 9 17 1
      vertex 9 6 10
      vertex 9 6 1
    endloop
  endfacet
  facet normal 0 1 -0
    outer loop
      vertex 9 17 1
      vertex -9 17 10
      vertex 9 17 10
    endloop
  endfacet
  facet normal 0 1 0
    outer loop
      vertex -9 17 10
      vertex 9 17 1
      vertex -9 17 1
    endloop
  endfacet
  facet normal 0 -1 0
    outer loop
      vertex -9 6 1
      vertex 9 6 10
      vertex -9 6 10
    endloop
  endfacet
  facet normal 0 -1 -0
    outer loop
      vertex 9 6 10
      vertex -9 6 1
      vertex 9 6 1
    endloop
  endfacet
  facet normal 1 -0 0
    outer loop
      vertex -8 7 10
      vertex -8 16 1
      vertex -8 16 10
    endloop
  endfacet
  facet normal 1 0 0
    outer loop
      vertex -8 16 1
      vertex -8 7 10
      vertex -8 7 1
    endloop
  endfacet
  facet normal -1 0 0
    outer loop
      vertex 8 7 1
      vertex 8 16 10
      vertex 8 16 1
    endloop
  endfacet
  facet normal -1 -0 0
    outer loop
      vertex 8 16 10
      vertex 8 7 1
      vertex 8 7 10
    endloop
  endfacet
  facet normal 0 1 -0
    outer loop
      vertex 8 7 1
      vertex -8 7 10
      vertex 8 7 10
    endloop
  endfacet
  facet normal 0 1 0
    outer loop
      vertex -8 7 10
      vertex 8 7 1
      vertex -8 7 1
    endloop
  endfacet
  facet normal 0 -1 0
    outer loop
      vertex -8 16 1
      vertex 8 16 10
      vertex -8 16 10
    endloop
  endfacet
  facet normal 0 -1 -0
    outer loop
      vertex 8 16 10
      vertex -8 16 1
      vertex 8 16 1
    endloop
  endfacet
endsolid OpenSCAD_Model
