solid OpenSCAD_Model
  facet normal -1 0 0
    outer loop
      vertex -15 -19 -1
      vertex -15 19 1
      vertex -15 19 -1
    endloop
  endfacet
  facet normal -1 -0 0
    outer loop
      vertex -15 19 1
      vertex -15 -19 -1
      vertex -15 -19 1
    endloop
  endfacet
  facet normal 0 0 1
    outer loop
      vertex 9.7 5.8 1
      vertex 3.58376 -0.279847 1
      vertex 3.7 -1.2 1
    endloop
  endfacet
  facet normal 0 0 1
    outer loop
      vertex 9 6 1
      vertex 3.24233 0.582488 1
      vertex 3.58376 -0.279847 1
    endloop
  endfacet
  facet normal 0 0 1
    outer loop
      vertex 9 6 1
      vertex 2.69718 1.33282 1
      vertex 3.24233 0.582488 1
    endloop
  endfacet
  facet normal 0 0 1
    outer loop
      vertex 9 6 1
      vertex 1.98256 1.92401 1
      vertex 2.69718 1.33282 1
    endloop
  endfacet
  facet normal 0 0 1
    outer loop
      vertex 9 6 1
      vertex 1.14336 2.31891 1
      vertex 1.98256 1.92401 1
    endloop
  endfacet
  facet normal 0 0 1
    outer loop
      vertex 9 6 1
      vertex 0.232325 2.4927 1
      vertex 1.14336 2.31891 1
    endloop
  endfacet
  facet normal -0 0 1
    outer loop
      vertex -6.7 5.8 1
      vertex 0.232325 2.4927 1
      vertex 9 6 1
    endloop
  endfacet
  facet normal 0 0 1
    outer loop
      vertex 0.232325 2.4927 1
      vertex -6.7 5.8 1
      vertex -0.693311 2.43446 1
    endloop
  endfacet
  facet normal 0 0 1
    outer loop
      vertex -3.67082 -0.736266 1
      vertex -6.7 5.8 1
      vertex -3.67082 -1.66373 1
    endloop
  endfacet
  facet normal 0 0 1
    outer loop
      vertex -3.44017 0.162061 1
      vertex -6.7 5.8 1
      vertex -3.67082 -0.736266 1
    endloop
  endfacet
  facet normal 0 0 1
    outer loop
      vertex -2.99336 0.974805 1
      vertex -6.7 5.8 1
      vertex -3.44017 0.162061 1
    endloop
  endfacet
  facet normal 0 0 1
    outer loop
      vertex -2.35847 1.6509 1
      vertex -6.7 5.8 1
      vertex -2.99336 0.974805 1
    endloop
  endfacet
  facet normal 0 0 1
    outer loop
      vertex -1.57538 2.14786 1
      vertex -6.7 5.8 1
      vertex -2.35847 1.6509 1
    endloop
  endfacet
  facet normal 0 0 1
    outer loop
      vertex -0.693311 2.43446 1
      vertex -6.7 5.8 1
      vertex -1.57538 2.14786 1
    endloop
  endfacet
  facet normal -0 0 1
    outer loop
      vertex -9 6 1
      vertex -6.7 5.8 1
      vertex 9 6 1
    endloop
  endfacet
  facet normal 0 0 1
    outer loop
      vertex -7.7 5.8 1
      vertex -9 6 1
      vertex -7.7 -8.2 1
    endloop
  endfacet
  facet normal 0 0 1
    outer loop
      vertex -6.7 5.8 1
      vertex -9 6 1
      vertex -7.7 5.8 1
    endloop
  endfacet
  facet normal 0 0 1
    outer loop
      vertex 15 19 1
      vertex 10.7 5.8 1
      vertex 15 -19 1
    endloop
  endfacet
  facet normal -0 0 1
    outer loop
      vertex 9 17 1
      vertex 10.7 5.8 1
      vertex 15 19 1
    endloop
  endfacet
  facet normal 0 0 1
    outer loop
      vertex 10.7 5.8 1
      vertex 9 6 1
      vertex 9.7 5.8 1
    endloop
  endfacet
  facet normal -0 0 1
    outer loop
      vertex 9 6 1
      vertex 10.7 5.8 1
      vertex 9 17 1
    endloop
  endfacet
  facet normal 0 0 1
    outer loop
      vertex 15 19 1
      vertex -9 17 1
      vertex 9 17 1
    endloop
  endfacet
  facet normal 0 0 1
    outer loop
      vertex -15 19 1
      vertex -9 6 1
      vertex -9 17 1
    endloop
  endfacet
  facet normal 0 0 1
    outer loop
      vertex -9 6 1
      vertex -10.9309 -16.0971 1
      vertex -10.88 -16.5 1
    endloop
  endfacet
  facet normal 0 0 1
    outer loop
      vertex -9 6 1
      vertex -11.0804 -15.7196 1
      vertex -10.9309 -16.0971 1
    endloop
  endfacet
  facet normal 0 0 1
    outer loop
      vertex -9 6 1
      vertex -11.3191 -15.391 1
      vertex -11.0804 -15.7196 1
    endloop
  endfacet
  facet normal 0 0 1
    outer loop
      vertex -9 6 1
      vertex -11.632 -15.1322 1
      vertex -11.3191 -15.391 1
    endloop
  endfacet
  facet normal 0 0 1
    outer loop
      vertex -9 6 1
      vertex -11.9994 -14.9593 1
      vertex -11.632 -15.1322 1
    endloop
  endfacet
  facet normal 0 0 1
    outer loop
      vertex -9 6 1
      vertex -12.3983 -14.8832 1
      vertex -11.9994 -14.9593 1
    endloop
  endfacet
  facet normal 0 0 1
    outer loop
      vertex -9 6 1
      vertex -12.8036 -14.9087 1
      vertex -12.3983 -14.8832 1
    endloop
  endfacet
  facet normal 0 -0 1
    outer loop
      vertex -13.8106 -15.5478 1
      vertex -9 6 1
      vertex -15 19 1
    endloop
  endfacet
  facet normal 0 0 1
    outer loop
      vertex -9 6 1
      vertex -13.1898 -15.0342 1
      vertex -12.8036 -14.9087 1
    endloop
  endfacet
  facet normal 0 0 1
    outer loop
      vertex -9 6 1
      vertex -13.5326 -15.2518 1
      vertex -13.1898 -15.0342 1
    endloop
  endfacet
  facet normal 0 0 1
    outer loop
      vertex -9 6 1
      vertex -13.8106 -15.5478 1
      vertex -13.5326 -15.2518 1
    endloop
  endfacet
  facet normal 0 0 1
    outer loop
      vertex -13.8106 -15.5478 1
      vertex -15 19 1
      vertex -14.0062 -15.9036 1
    endloop
  endfacet
  facet normal 0 0 1
    outer loop
      vertex -14.0062 -15.9036 1
      vertex -15 -19 1
      vertex -14.1072 -16.297 1
    endloop
  endfacet
  facet normal 0 0 1
    outer loop
      vertex -15 -19 1
      vertex -14.0062 -15.9036 1
      vertex -15 19 1
    endloop
  endfacet
  facet normal -0 0 1
    outer loop
      vertex -15 19 1
      vertex -9 17 1
      vertex 15 19 1
    endloop
  endfacet
  facet normal -0 0 1
    outer loop
      vertex 10.7 -8.2 1
      vertex 15 -19 1
      vertex 10.7 5.8 1
    endloop
  endfacet
  facet normal -0 0 1
    outer loop
      vertex 9.7 -8.2 1
      vertex 15 -19 1
      vertex 10.7 -8.2 1
    endloop
  endfacet
  facet normal 0 0 1
    outer loop
      vertex 3.58376 -0.279847 1
      vertex 9.7 5.8 1
      vertex 9 6 1
    endloop
  endfacet
  facet normal 0 0 1
    outer loop
      vertex 9.7 5.8 1
      vertex 3.7 -1.2 1
      vertex 9.7 -8.2 1
    endloop
  endfacet
  facet normal -0 0 1
    outer loop
      vertex 3.58376 -2.12015 1
      vertex 9.7 -8.2 1
      vertex 3.7 -1.2 1
    endloop
  endfacet
  facet normal -0 0 1
    outer loop
      vertex 3.24233 -2.98249 1
      vertex 9.7 -8.2 1
      vertex 3.58376 -2.12015 1
    endloop
  endfacet
  facet normal -0 0 1
    outer loop
      vertex 2.69718 -3.73282 1
      vertex 9.7 -8.2 1
      vertex 3.24233 -2.98249 1
    endloop
  endfacet
  facet normal -0 0 1
    outer loop
      vertex 1.98256 -4.32401 1
      vertex 9.7 -8.2 1
      vertex 2.69718 -3.73282 1
    endloop
  endfacet
  facet normal -0 0 1
    outer loop
      vertex 1.14336 -4.71891 1
      vertex 9.7 -8.2 1
      vertex 1.98256 -4.32401 1
    endloop
  endfacet
  facet normal -0 0 1
    outer loop
      vertex 0.232325 -4.8927 1
      vertex 9.7 -8.2 1
      vertex 1.14336 -4.71891 1
    endloop
  endfacet
  facet normal 0 0 1
    outer loop
      vertex -6.7 -8.2 1
      vertex 9.7 -8.2 1
      vertex 0.232325 -4.8927 1
    endloop
  endfacet
  facet normal 0 0 1
    outer loop
      vertex -6.7 -8.2 1
      vertex 0.232325 -4.8927 1
      vertex -0.693311 -4.83446 1
    endloop
  endfacet
  facet normal 0 0 1
    outer loop
      vertex -6.7 -8.2 1
      vertex -0.693311 -4.83446 1
      vertex -1.57538 -4.54786 1
    endloop
  endfacet
  facet normal 0 0 1
    outer loop
      vertex -6.7 -8.2 1
      vertex -1.57538 -4.54786 1
      vertex -2.35847 -4.0509 1
    endloop
  endfacet
  facet normal 0 0 1
    outer loop
      vertex -6.7 -8.2 1
      vertex -3.67082 -1.66373 1
      vertex -6.7 5.8 1
    endloop
  endfacet
  facet normal 0 0 1
    outer loop
      vertex -3.67082 -1.66373 1
      vertex -6.7 -8.2 1
      vertex -3.44017 -2.56206 1
    endloop
  endfacet
  facet normal 0 0 1
    outer loop
      vertex -6.7 -8.2 1
      vertex -2.99336 -3.3748 1
      vertex -3.44017 -2.56206 1
    endloop
  endfacet
  facet normal 0 0 1
    outer loop
      vertex -6.7 -8.2 1
      vertex -2.35847 -4.0509 1
      vertex -2.99336 -3.3748 1
    endloop
  endfacet
  facet normal 0 0 1
    outer loop
      vertex -10.88 -16.5 1
      vertex 9.7 -8.2 1
      vertex -6.7 -8.2 1
    endloop
  endfacet
  facet normal 0 0 1
    outer loop
      vertex -10.88 -16.5 1
      vertex -6.7 -8.2 1
      vertex -7.7 -8.2 1
    endloop
  endfacet
  facet normal 0 0 1
    outer loop
      vertex -10.88 -16.5 1
      vertex -7.7 -8.2 1
      vertex -9 6 1
    endloop
  endfacet
  facet normal 0 0 1
    outer loop
      vertex -10.9309 -16.9029 1
      vertex 9.7 -8.2 1
      vertex -10.88 -16.5 1
    endloop
  endfacet
  facet normal 0 0 1
    outer loop
      vertex 9.7 -8.2 1
      vertex -10.9309 -16.9029 1
      vertex 15 -19 1
    endloop
  endfacet
  facet normal -0 0 1
    outer loop
      vertex -11.0804 -17.2804 1
      vertex 15 -19 1
      vertex -10.9309 -16.9029 1
    endloop
  endfacet
  facet normal -0 0 1
    outer loop
      vertex -11.3191 -17.609 1
      vertex 15 -19 1
      vertex -11.0804 -17.2804 1
    endloop
  endfacet
  facet normal -0 0 1
    outer loop
      vertex -11.632 -17.8678 1
      vertex 15 -19 1
      vertex -11.3191 -17.609 1
    endloop
  endfacet
  facet normal -0 0 1
    outer loop
      vertex -11.9994 -18.0407 1
      vertex 15 -19 1
      vertex -11.632 -17.8678 1
    endloop
  endfacet
  facet normal 0 0 1
    outer loop
      vertex -15 -19 1
      vertex -11.9994 -18.0407 1
      vertex -12.3983 -18.1168 1
    endloop
  endfacet
  facet normal 0 0 1
    outer loop
      vertex -11.9994 -18.0407 1
      vertex -15 -19 1
      vertex 15 -19 1
    endloop
  endfacet
  facet normal 0 0 1
    outer loop
      vertex -12.8036 -18.0913 1
      vertex -15 -19 1
      vertex -12.3983 -18.1168 1
    endloop
  endfacet
  facet normal 0 0 1
    outer loop
      vertex -13.1898 -17.9658 1
      vertex -15 -19 1
      vertex -12.8036 -18.0913 1
    endloop
  endfacet
  facet normal 0 0 1
    outer loop
      vertex -13.5326 -17.7482 1
      vertex -15 -19 1
      vertex -13.1898 -17.9658 1
    endloop
  endfacet
  facet normal 0 0 1
    outer loop
      vertex -13.8106 -17.4522 1
      vertex -15 -19 1
      vertex -13.5326 -17.7482 1
    endloop
  endfacet
  facet normal 0 0 1
    outer loop
      vertex -14.0062 -17.0964 1
      vertex -15 -19 1
      vertex -13.8106 -17.4522 1
    endloop
  endfacet
  facet normal 0 0 1
    outer loop
      vertex -14.1072 -16.703 1
      vertex -15 -19 1
      vertex -14.0062 -17.0964 1
    endloop
  endfacet
  facet normal 0 0 1
    outer loop
      vertex -14.1072 -16.297 1
      vertex -15 -19 1
      vertex -14.1072 -16.703 1
    endloop
  endfacet
  facet normal 0 0 1
    outer loop
      vertex 8 16 1
      vertex 7 13 1
      vertex 8 7 1
    endloop
  endfacet
  facet normal 0 0 1
    outer loop
      vertex 8 16 1
      vertex -7 13 1
      vertex 7 13 1
    endloop
  endfacet
  facet normal 0 0 1
    outer loop
      vertex -8 7 1
      vertex -7 13 1
      vertex -8 16 1
    endloop
  endfacet
  facet normal -0 0 1
    outer loop
      vertex -8 16 1
      vertex -7 13 1
      vertex 8 16 1
    endloop
  endfacet
  facet normal -0 0 1
    outer loop
      vertex 7 9 1
      vertex 8 7 1
      vertex 7 13 1
    endloop
  endfacet
  facet normal -0 0 1
    outer loop
      vertex -7 9 1
      vertex 8 7 1
      vertex 7 9 1
    endloop
  endfacet
  facet normal 0 0 1
    outer loop
      vertex -7 9 1
      vertex -8 7 1
      vertex 8 7 1
    endloop
  endfacet
  facet normal 0 0 1
    outer loop
      vertex -7 13 1
      vertex -8 7 1
      vertex -7 9 1
    endloop
  endfacet
  facet normal 1 -0 0
    outer loop
      vertex 15 -19 1
      vertex 15 19 -1
      vertex 15 19 1
    endloop
  endfacet
  facet normal 1 0 0
    outer loop
      vertex 15 19 -1
      vertex 15 -19 1
      vertex 15 -19 -1
    endloop
  endfacet
  facet normal 0 1 -0
    outer loop
      vertex 15 19 -1
      vertex -15 19 1
      vertex 15 19 1
    endloop
  endfacet
  facet normal 0 1 0
    outer loop
      vertex -15 19 1
      vertex 15 19 -1
      vertex -15 19 -1
    endloop
  endfacet
  facet normal 0 0 -1
    outer loop
      vertex 15 -19 -1
      vertex 7 9 -1
      vertex 15 19 -1
    endloop
  endfacet
  facet normal 0 0 -1
    outer loop
      vertex 15 -19 -1
      vertex 3.7 -1.2 -1
      vertex 7 9 -1
    endloop
  endfacet
  facet normal 0 0 -1
    outer loop
      vertex 15 -19 -1
      vertex 3.58376 -2.12015 -1
      vertex 3.7 -1.2 -1
    endloop
  endfacet
  facet normal 0 0 -1
    outer loop
      vertex 15 -19 -1
      vertex 3.24233 -2.98249 -1
      vertex 3.58376 -2.12015 -1
    endloop
  endfacet
  facet normal 0 0 -1
    outer loop
      vertex 15 -19 -1
      vertex 2.69718 -3.73282 -1
      vertex 3.24233 -2.98249 -1
    endloop
  endfacet
  facet normal 0 0 -1
    outer loop
      vertex 15 -19 -1
      vertex 1.98256 -4.32401 -1
      vertex 2.69718 -3.73282 -1
    endloop
  endfacet
  facet normal 0 0 -1
    outer loop
      vertex 15 -19 -1
      vertex 1.14336 -4.71891 -1
      vertex 1.98256 -4.32401 -1
    endloop
  endfacet
  facet normal 0 0 -1
    outer loop
      vertex 15 -19 -1
      vertex 0.232325 -4.8927 -1
      vertex 1.14336 -4.71891 -1
    endloop
  endfacet
  facet normal 0 0 -1
    outer loop
      vertex -10.88 -16.5 -1
      vertex 0.232325 -4.8927 -1
      vertex 15 -19 -1
    endloop
  endfacet
  facet normal -0 0 -1
    outer loop
      vertex 0.232325 -4.8927 -1
      vertex -10.88 -16.5 -1
      vertex -0.693311 -4.83446 -1
    endloop
  endfacet
  facet normal 0 0 -1
    outer loop
      vertex -10.9309 -16.0971 -1
      vertex -0.693311 -4.83446 -1
      vertex -10.88 -16.5 -1
    endloop
  endfacet
  facet normal 0 0 -1
    outer loop
      vertex -13.1898 -15.0342 -1
      vertex -3.67082 -0.736266 -1
      vertex -3.67082 -1.66373 -1
    endloop
  endfacet
  facet normal 0 0 -1
    outer loop
      vertex -12.8036 -14.9087 -1
      vertex -3.67082 -1.66373 -1
      vertex -3.44017 -2.56206 -1
    endloop
  endfacet
  facet normal 0 0 -1
    outer loop
      vertex -11.632 -15.1322 -1
      vertex -2.35847 -4.0509 -1
      vertex -11.3191 -15.391 -1
    endloop
  endfacet
  facet normal -0 0 -1
    outer loop
      vertex -1.57538 -4.54786 -1
      vertex -11.3191 -15.391 -1
      vertex -2.35847 -4.0509 -1
    endloop
  endfacet
  facet normal 0 0 -1
    outer loop
      vertex -11.3191 -15.391 -1
      vertex -1.57538 -4.54786 -1
      vertex -11.0804 -15.7196 -1
    endloop
  endfacet
  facet normal -0 0 -1
    outer loop
      vertex -0.693311 -4.83446 -1
      vertex -11.0804 -15.7196 -1
      vertex -1.57538 -4.54786 -1
    endloop
  endfacet
  facet normal 0 0 -1
    outer loop
      vertex -11.0804 -15.7196 -1
      vertex -0.693311 -4.83446 -1
      vertex -10.9309 -16.0971 -1
    endloop
  endfacet
  facet normal 0 0 -1
    outer loop
      vertex 15 -19 -1
      vertex -10.9309 -16.9029 -1
      vertex -10.88 -16.5 -1
    endloop
  endfacet
  facet normal 0 0 -1
    outer loop
      vertex 15 -19 -1
      vertex -11.0804 -17.2804 -1
      vertex -10.9309 -16.9029 -1
    endloop
  endfacet
  facet normal 0 0 -1
    outer loop
      vertex 15 -19 -1
      vertex -11.3191 -17.609 -1
      vertex -11.0804 -17.2804 -1
    endloop
  endfacet
  facet normal 0 0 -1
    outer loop
      vertex 15 -19 -1
      vertex -11.632 -17.8678 -1
      vertex -11.3191 -17.609 -1
    endloop
  endfacet
  facet normal 0 0 -1
    outer loop
      vertex 15 -19 -1
      vertex -11.9994 -18.0407 -1
      vertex -11.632 -17.8678 -1
    endloop
  endfacet
  facet normal 0 0 -1
    outer loop
      vertex -15 -19 -1
      vertex -11.9994 -18.0407 -1
      vertex 15 -19 -1
    endloop
  endfacet
  facet normal -0 0 -1
    outer loop
      vertex -14.1072 -16.703 -1
      vertex -15 -19 -1
      vertex -14.1072 -16.297 -1
    endloop
  endfacet
  facet normal -0 0 -1
    outer loop
      vertex -14.0062 -17.0964 -1
      vertex -15 -19 -1
      vertex -14.1072 -16.703 -1
    endloop
  endfacet
  facet normal -0 0 -1
    outer loop
      vertex -13.8106 -17.4522 -1
      vertex -15 -19 -1
      vertex -14.0062 -17.0964 -1
    endloop
  endfacet
  facet normal -0 0 -1
    outer loop
      vertex -13.5326 -17.7482 -1
      vertex -15 -19 -1
      vertex -13.8106 -17.4522 -1
    endloop
  endfacet
  facet normal -0 0 -1
    outer loop
      vertex -13.1898 -17.9658 -1
      vertex -15 -19 -1
      vertex -13.5326 -17.7482 -1
    endloop
  endfacet
  facet normal -0 0 -1
    outer loop
      vertex -12.8036 -18.0913 -1
      vertex -15 -19 -1
      vertex -13.1898 -17.9658 -1
    endloop
  endfacet
  facet normal -0 0 -1
    outer loop
      vertex -12.3983 -18.1168 -1
      vertex -15 -19 -1
      vertex -12.8036 -18.0913 -1
    endloop
  endfacet
  facet normal 0 0 -1
    outer loop
      vertex -11.9994 -18.0407 -1
      vertex -15 -19 -1
      vertex -12.3983 -18.1168 -1
    endloop
  endfacet
  facet normal 0 0 -1
    outer loop
      vertex 7 13 -1
      vertex 15 19 -1
      vertex 7 9 -1
    endloop
  endfacet
  facet normal 0 0 -1
    outer loop
      vertex -7 13 -1
      vertex 15 19 -1
      vertex 7 13 -1
    endloop
  endfacet
  facet normal -0 0 -1
    outer loop
      vertex -2.35847 -4.0509 -1
      vertex -11.632 -15.1322 -1
      vertex -2.99336 -3.3748 -1
    endloop
  endfacet
  facet normal 0 0 -1
    outer loop
      vertex -11.9994 -14.9593 -1
      vertex -2.99336 -3.3748 -1
      vertex -11.632 -15.1322 -1
    endloop
  endfacet
  facet normal -0 0 -1
    outer loop
      vertex -2.99336 -3.3748 -1
      vertex -11.9994 -14.9593 -1
      vertex -3.44017 -2.56206 -1
    endloop
  endfacet
  facet normal 0 0 -1
    outer loop
      vertex -12.3983 -14.8832 -1
      vertex -3.44017 -2.56206 -1
      vertex -11.9994 -14.9593 -1
    endloop
  endfacet
  facet normal 0 0 -1
    outer loop
      vertex -12.8036 -14.9087 -1
      vertex -3.44017 -2.56206 -1
      vertex -12.3983 -14.8832 -1
    endloop
  endfacet
  facet normal 0 0 -1
    outer loop
      vertex -3.67082 -1.66373 -1
      vertex -12.8036 -14.9087 -1
      vertex -13.1898 -15.0342 -1
    endloop
  endfacet
  facet normal -0 0 -1
    outer loop
      vertex -3.67082 -0.736266 -1
      vertex -13.1898 -15.0342 -1
      vertex -7 9 -1
    endloop
  endfacet
  facet normal 0 0 -1
    outer loop
      vertex -13.5326 -15.2518 -1
      vertex -7 9 -1
      vertex -13.1898 -15.0342 -1
    endloop
  endfacet
  facet normal -0 0 -1
    outer loop
      vertex -7 9 -1
      vertex -13.5326 -15.2518 -1
      vertex -15 19 -1
    endloop
  endfacet
  facet normal 0 0 -1
    outer loop
      vertex -15 19 -1
      vertex -13.5326 -15.2518 -1
      vertex -13.8106 -15.5478 -1
    endloop
  endfacet
  facet normal 0 0 -1
    outer loop
      vertex -15 19 -1
      vertex -13.8106 -15.5478 -1
      vertex -14.0062 -15.9036 -1
    endloop
  endfacet
  facet normal 0 0 -1
    outer loop
      vertex -15 -19 -1
      vertex -14.0062 -15.9036 -1
      vertex -14.1072 -16.297 -1
    endloop
  endfacet
  facet normal -0 0 -1
    outer loop
      vertex -14.0062 -15.9036 -1
      vertex -15 -19 -1
      vertex -15 19 -1
    endloop
  endfacet
  facet normal 0 0 -1
    outer loop
      vertex -7 13 -1
      vertex -15 19 -1
      vertex 15 19 -1
    endloop
  endfacet
  facet normal 0 0 -1
    outer loop
      vertex -7 9 -1
      vertex -15 19 -1
      vertex -7 13 -1
    endloop
  endfacet
  facet normal 0 0 -1
    outer loop
      vertex 3.58376 -0.279847 -1
      vertex 7 9 -1
      vertex 3.7 -1.2 -1
    endloop
  endfacet
  facet normal 0 0 -1
    outer loop
      vertex 3.24233 0.582488 -1
      vertex 7 9 -1
      vertex 3.58376 -0.279847 -1
    endloop
  endfacet
  facet normal 0 0 -1
    outer loop
      vertex 2.69718 1.33282 -1
      vertex 7 9 -1
      vertex 3.24233 0.582488 -1
    endloop
  endfacet
  facet normal 0 0 -1
    outer loop
      vertex 1.98256 1.92401 -1
      vertex 7 9 -1
      vertex 2.69718 1.33282 -1
    endloop
  endfacet
  facet normal 0 0 -1
    outer loop
      vertex 1.14336 2.31891 -1
      vertex 7 9 -1
      vertex 1.98256 1.92401 -1
    endloop
  endfacet
  facet normal 0 0 -1
    outer loop
      vertex 0.232325 2.4927 -1
      vertex 7 9 -1
      vertex 1.14336 2.31891 -1
    endloop
  endfacet
  facet normal 0 0 -1
    outer loop
      vertex -7 9 -1
      vertex 0.232325 2.4927 -1
      vertex -0.693311 2.43446 -1
    endloop
  endfacet
  facet normal 0 0 -1
    outer loop
      vertex -7 9 -1
      vertex -0.693311 2.43446 -1
      vertex -1.57538 2.14786 -1
    endloop
  endfacet
  facet normal 0 0 -1
    outer loop
      vertex -7 9 -1
      vertex -1.57538 2.14786 -1
      vertex -2.35847 1.6509 -1
    endloop
  endfacet
  facet normal 0 0 -1
    outer loop
      vertex 0.232325 2.4927 -1
      vertex -7 9 -1
      vertex 7 9 -1
    endloop
  endfacet
  facet normal 0 0 -1
    outer loop
      vertex -2.99336 0.974805 -1
      vertex -7 9 -1
      vertex -2.35847 1.6509 -1
    endloop
  endfacet
  facet normal 0 0 -1
    outer loop
      vertex -3.44017 0.162061 -1
      vertex -7 9 -1
      vertex -2.99336 0.974805 -1
    endloop
  endfacet
  facet normal 0 0 -1
    outer loop
      vertex -7 9 -1
      vertex -3.44017 0.162061 -1
      vertex -3.67082 -0.736266 -1
    endloop
  endfacet
  facet normal 0 -1 0
    outer loop
      vertex -15 -19 -1
      vertex 15 -19 1
      vertex -15 -19 1
    endloop
  endfacet
  facet normal 0 -1 -0
    outer loop
      vertex 15 -19 1
      vertex -15 -19 -1
      vertex 15 -19 -1
    endloop
  endfacet
  facet normal -0.992115 -0.125331 0
    outer loop
      vertex 3.7 -1.2 -1
      vertex 3.58376 -0.279847 1
      vertex 3.58376 -0.279847 -1
    endloop
  endfacet
  facet normal -0.992115 -0.125331 0
    outer loop
      vertex 3.58376 -0.279847 1
      vertex 3.7 -1.2 -1
      vertex 3.7 -1.2 1
    endloop
  endfacet
  facet normal 1 -0 0
    outer loop
      vertex -3.67082 -1.66373 1
      vertex -3.67082 -0.736266 -1
      vertex -3.67082 -0.736266 1
    endloop
  endfacet
  facet normal 1 0 0
    outer loop
      vertex -3.67082 -0.736266 -1
      vertex -3.67082 -1.66373 1
      vertex -3.67082 -1.66373 -1
    endloop
  endfacet
  facet normal 0.0627947 -0.998026 0
    outer loop
      vertex -0.693311 2.43446 -1
      vertex 0.232325 2.4927 1
      vertex -0.693311 2.43446 1
    endloop
  endfacet
  facet normal 0.0627947 -0.998026 0
    outer loop
      vertex 0.232325 2.4927 1
      vertex -0.693311 2.43446 -1
      vertex 0.232325 2.4927 -1
    endloop
  endfacet
  facet normal -0.637427 -0.770511 0
    outer loop
      vertex 1.98256 1.92401 -1
      vertex 2.69718 1.33282 1
      vertex 1.98256 1.92401 1
    endloop
  endfacet
  facet normal -0.637427 -0.770511 -0
    outer loop
      vertex 2.69718 1.33282 1
      vertex 1.98256 1.92401 -1
      vertex 2.69718 1.33282 -1
    endloop
  endfacet
  facet normal 0.728972 -0.684544 0
    outer loop
      vertex -2.99336 0.974805 1
      vertex -2.35847 1.6509 -1
      vertex -2.35847 1.6509 1
    endloop
  endfacet
  facet normal 0.728972 -0.684544 0
    outer loop
      vertex -2.35847 1.6509 -1
      vertex -2.99336 0.974805 1
      vertex -2.99336 0.974805 -1
    endloop
  endfacet
  facet normal 0.535824 -0.84433 0
    outer loop
      vertex -2.35847 1.6509 -1
      vertex -1.57538 2.14786 1
      vertex -2.35847 1.6509 1
    endloop
  endfacet
  facet normal 0.535824 -0.84433 0
    outer loop
      vertex -1.57538 2.14786 1
      vertex -2.35847 1.6509 -1
      vertex -1.57538 2.14786 -1
    endloop
  endfacet
  facet normal -0.809016 -0.587787 0
    outer loop
      vertex 3.24233 0.582488 -1
      vertex 2.69718 1.33282 1
      vertex 2.69718 1.33282 -1
    endloop
  endfacet
  facet normal -0.809016 -0.587787 0
    outer loop
      vertex 2.69718 1.33282 1
      vertex 3.24233 0.582488 -1
      vertex 3.24233 0.582488 1
    endloop
  endfacet
  facet normal -0.929774 -0.368131 0
    outer loop
      vertex 3.58376 -0.279847 -1
      vertex 3.24233 0.582488 1
      vertex 3.24233 0.582488 -1
    endloop
  endfacet
  facet normal -0.929774 -0.368131 0
    outer loop
      vertex 3.24233 0.582488 1
      vertex 3.58376 -0.279847 -1
      vertex 3.58376 -0.279847 1
    endloop
  endfacet
  facet normal -0.187382 -0.982287 0
    outer loop
      vertex 0.232325 2.4927 -1
      vertex 1.14336 2.31891 1
      vertex 0.232325 2.4927 1
    endloop
  endfacet
  facet normal -0.187382 -0.982287 -0
    outer loop
      vertex 1.14336 2.31891 1
      vertex 0.232325 2.4927 -1
      vertex 1.14336 2.31891 -1
    endloop
  endfacet
  facet normal -0.425781 -0.904826 0
    outer loop
      vertex 1.14336 2.31891 -1
      vertex 1.98256 1.92401 1
      vertex 1.14336 2.31891 1
    endloop
  endfacet
  facet normal -0.425781 -0.904826 -0
    outer loop
      vertex 1.98256 1.92401 1
      vertex 1.14336 2.31891 -1
      vertex 1.98256 1.92401 -1
    endloop
  endfacet
  facet normal 0.876307 -0.481754 0
    outer loop
      vertex -3.44017 0.162061 1
      vertex -2.99336 0.974805 -1
      vertex -2.99336 0.974805 1
    endloop
  endfacet
  facet normal 0.876307 -0.481754 0
    outer loop
      vertex -2.99336 0.974805 -1
      vertex -3.44017 0.162061 1
      vertex -3.44017 0.162061 -1
    endloop
  endfacet
  facet normal 0.968583 -0.248689 0
    outer loop
      vertex -3.67082 -0.736266 1
      vertex -3.44017 0.162061 -1
      vertex -3.44017 0.162061 1
    endloop
  endfacet
  facet normal 0.968583 -0.248689 0
    outer loop
      vertex -3.44017 0.162061 -1
      vertex -3.67082 -0.736266 1
      vertex -3.67082 -0.736266 -1
    endloop
  endfacet
  facet normal 0.309015 -0.951057 0
    outer loop
      vertex -1.57538 2.14786 -1
      vertex -0.693311 2.43446 1
      vertex -1.57538 2.14786 1
    endloop
  endfacet
  facet normal 0.309015 -0.951057 0
    outer loop
      vertex -0.693311 2.43446 1
      vertex -1.57538 2.14786 -1
      vertex -0.693311 2.43446 -1
    endloop
  endfacet
  facet normal -0.187382 0.982287 0
    outer loop
      vertex 1.14336 -4.71891 -1
      vertex 0.232325 -4.8927 1
      vertex 1.14336 -4.71891 1
    endloop
  endfacet
  facet normal -0.187382 0.982287 0
    outer loop
      vertex 0.232325 -4.8927 1
      vertex 1.14336 -4.71891 -1
      vertex 0.232325 -4.8927 -1
    endloop
  endfacet
  facet normal -0.637427 0.770511 0
    outer loop
      vertex 2.69718 -3.73282 -1
      vertex 1.98256 -4.32401 1
      vertex 2.69718 -3.73282 1
    endloop
  endfacet
  facet normal -0.637427 0.770511 0
    outer loop
      vertex 1.98256 -4.32401 1
      vertex 2.69718 -3.73282 -1
      vertex 1.98256 -4.32401 -1
    endloop
  endfacet
  facet normal 0.535824 0.84433 -0
    outer loop
      vertex -1.57538 -4.54786 -1
      vertex -2.35847 -4.0509 1
      vertex -1.57538 -4.54786 1
    endloop
  endfacet
  facet normal 0.535824 0.84433 0
    outer loop
      vertex -2.35847 -4.0509 1
      vertex -1.57538 -4.54786 -1
      vertex -2.35847 -4.0509 -1
    endloop
  endfacet
  facet normal 0.0627947 0.998026 -0
    outer loop
      vertex 0.232325 -4.8927 -1
      vertex -0.693311 -4.83446 1
      vertex 0.232325 -4.8927 1
    endloop
  endfacet
  facet normal 0.0627947 0.998026 0
    outer loop
      vertex -0.693311 -4.83446 1
      vertex 0.232325 -4.8927 -1
      vertex -0.693311 -4.83446 -1
    endloop
  endfacet
  facet normal 0.728974 0.684541 0
    outer loop
      vertex -2.35847 -4.0509 1
      vertex -2.99336 -3.3748 -1
      vertex -2.99336 -3.3748 1
    endloop
  endfacet
  facet normal 0.728974 0.684541 0
    outer loop
      vertex -2.99336 -3.3748 -1
      vertex -2.35847 -4.0509 1
      vertex -2.35847 -4.0509 -1
    endloop
  endfacet
  facet normal 0.968584 0.248688 0
    outer loop
      vertex -3.44017 -2.56206 1
      vertex -3.67082 -1.66373 -1
      vertex -3.67082 -1.66373 1
    endloop
  endfacet
  facet normal 0.968584 0.248688 0
    outer loop
      vertex -3.67082 -1.66373 -1
      vertex -3.44017 -2.56206 1
      vertex -3.44017 -2.56206 -1
    endloop
  endfacet
  facet normal -0.425781 0.904826 0
    outer loop
      vertex 1.98256 -4.32401 -1
      vertex 1.14336 -4.71891 1
      vertex 1.98256 -4.32401 1
    endloop
  endfacet
  facet normal -0.425781 0.904826 0
    outer loop
      vertex 1.14336 -4.71891 1
      vertex 1.98256 -4.32401 -1
      vertex 1.14336 -4.71891 -1
    endloop
  endfacet
  facet normal -0.929774 0.36813 0
    outer loop
      vertex 3.24233 -2.98249 -1
      vertex 3.58376 -2.12015 1
      vertex 3.58376 -2.12015 -1
    endloop
  endfacet
  facet normal -0.929774 0.36813 0
    outer loop
      vertex 3.58376 -2.12015 1
      vertex 3.24233 -2.98249 -1
      vertex 3.24233 -2.98249 1
    endloop
  endfacet
  facet normal -0.809015 0.587788 0
    outer loop
      vertex 2.69718 -3.73282 -1
      vertex 3.24233 -2.98249 1
      vertex 3.24233 -2.98249 -1
    endloop
  endfacet
  facet normal -0.809015 0.587788 0
    outer loop
      vertex 3.24233 -2.98249 1
      vertex 2.69718 -3.73282 -1
      vertex 2.69718 -3.73282 1
    endloop
  endfacet
  facet normal -0.992115 0.125331 0
    outer loop
      vertex 3.58376 -2.12015 -1
      vertex 3.7 -1.2 1
      vertex 3.7 -1.2 -1
    endloop
  endfacet
  facet normal -0.992115 0.125331 0
    outer loop
      vertex 3.7 -1.2 1
      vertex 3.58376 -2.12015 -1
      vertex 3.58376 -2.12015 1
    endloop
  endfacet
  facet normal 0.309015 0.951057 -0
    outer loop
      vertex -0.693311 -4.83446 -1
      vertex -1.57538 -4.54786 1
      vertex -0.693311 -4.83446 1
    endloop
  endfacet
  facet normal 0.309015 0.951057 0
    outer loop
      vertex -1.57538 -4.54786 1
      vertex -0.693311 -4.83446 -1
      vertex -1.57538 -4.54786 -1
    endloop
  endfacet
  facet normal 0.876306 0.481756 0
    outer loop
      vertex -2.99336 -3.3748 1
      vertex -3.44017 -2.56206 -1
      vertex -3.44017 -2.56206 1
    endloop
  endfacet
  facet normal 0.876306 0.481756 0
    outer loop
      vertex -3.44017 -2.56206 -1
      vertex -2.99336 -3.3748 1
      vertex -2.99336 -3.3748 -1
    endloop
  endfacet
  facet normal 1 -0 0
    outer loop
      vertex -7 9 1
      vertex -7 13 -1
      vertex -7 13 1
    endloop
  endfacet
  facet normal 1 0 0
    outer loop
      vertex -7 13 -1
      vertex -7 9 1
      vertex -7 9 -1
    endloop
  endfacet
  facet normal -1 0 0
    outer loop
      vertex 7 9 -1
      vertex 7 13 1
      vertex 7 13 -1
    endloop
  endfacet
  facet normal -1 -0 0
    outer loop
      vertex 7 13 1
      vertex 7 9 -1
      vertex 7 9 1
    endloop
  endfacet
  facet normal 0 1 -0
    outer loop
      vertex 7 9 -1
      vertex -7 9 1
      vertex 7 9 1
    endloop
  endfacet
  facet normal 0 1 0
    outer loop
      vertex -7 9 1
      vertex 7 9 -1
      vertex -7 9 -1
    endloop
  endfacet
  facet normal 0 -1 0
    outer loop
      vertex -7 13 -1
      vertex 7 13 1
      vertex -7 13 1
    endloop
  endfacet
  facet normal 0 -1 -0
    outer loop
      vertex 7 13 1
      vertex -7 13 -1
      vertex 7 13 -1
    endloop
  endfacet
  facet normal -0.992114 -0.125338 0
    outer loop
      vertex -10.88 -16.5 -1
      vertex -10.9309 -16.0971 1
      vertex -10.9309 -16.0971 -1
    endloop
  endfacet
  facet normal -0.992114 -0.125338 0
    outer loop
      vertex -10.9309 -16.0971 1
      vertex -10.88 -16.5 -1
      vertex -10.88 -16.5 1
    endloop
  endfacet
  facet normal 1 -0 0
    outer loop
      vertex -14.1072 -16.703 1
      vertex -14.1072 -16.297 -1
      vertex -14.1072 -16.297 1
    endloop
  endfacet
  facet normal 1 0 0
    outer loop
      vertex -14.1072 -16.297 -1
      vertex -14.1072 -16.703 1
      vertex -14.1072 -16.703 -1
    endloop
  endfacet
  facet normal 0.0627922 -0.998027 0
    outer loop
      vertex -12.8036 -14.9087 -1
      vertex -12.3983 -14.8832 1
      vertex -12.8036 -14.9087 1
    endloop
  endfacet
  facet normal 0.0627922 -0.998027 0
    outer loop
      vertex -12.3983 -14.8832 1
      vertex -12.8036 -14.9087 -1
      vertex -12.3983 -14.8832 -1
    endloop
  endfacet
  facet normal -0.809066 -0.587718 0
    outer loop
      vertex -11.0804 -15.7196 -1
      vertex -11.3191 -15.391 1
      vertex -11.3191 -15.391 -1
    endloop
  endfacet
  facet normal -0.809066 -0.587718 0
    outer loop
      vertex -11.3191 -15.391 1
      vertex -11.0804 -15.7196 -1
      vertex -11.0804 -15.7196 1
    endloop
  endfacet
  facet normal -0.929745 -0.368204 0
    outer loop
      vertex -10.9309 -16.0971 -1
      vertex -11.0804 -15.7196 1
      vertex -11.0804 -15.7196 -1
    endloop
  endfacet
  facet normal -0.929745 -0.368204 0
    outer loop
      vertex -11.0804 -15.7196 1
      vertex -10.9309 -16.0971 -1
      vertex -10.9309 -16.0971 1
    endloop
  endfacet
  facet normal -0.187395 -0.982285 0
    outer loop
      vertex -12.3983 -14.8832 -1
      vertex -11.9994 -14.9593 1
      vertex -12.3983 -14.8832 1
    endloop
  endfacet
  facet normal -0.187395 -0.982285 -0
    outer loop
      vertex -11.9994 -14.9593 1
      vertex -12.3983 -14.8832 -1
      vertex -11.9994 -14.9593 -1
    endloop
  endfacet
  facet normal 0.309053 -0.951045 0
    outer loop
      vertex -13.1898 -15.0342 -1
      vertex -12.8036 -14.9087 1
      vertex -13.1898 -15.0342 1
    endloop
  endfacet
  facet normal 0.309053 -0.951045 0
    outer loop
      vertex -12.8036 -14.9087 1
      vertex -13.1898 -15.0342 -1
      vertex -12.8036 -14.9087 -1
    endloop
  endfacet
  facet normal 0.968588 -0.248672 0
    outer loop
      vertex -14.1072 -16.297 1
      vertex -14.0062 -15.9036 -1
      vertex -14.0062 -15.9036 1
    endloop
  endfacet
  facet normal 0.968588 -0.248672 0
    outer loop
      vertex -14.0062 -15.9036 -1
      vertex -14.1072 -16.297 1
      vertex -14.1072 -16.297 -1
    endloop
  endfacet
  facet normal -0.637346 -0.770578 0
    outer loop
      vertex -11.632 -15.1322 -1
      vertex -11.3191 -15.391 1
      vertex -11.632 -15.1322 1
    endloop
  endfacet
  facet normal -0.637346 -0.770578 -0
    outer loop
      vertex -11.3191 -15.391 1
      vertex -11.632 -15.1322 -1
      vertex -11.3191 -15.391 -1
    endloop
  endfacet
  facet normal -0.425809 -0.904813 0
    outer loop
      vertex -11.9994 -14.9593 -1
      vertex -11.632 -15.1322 1
      vertex -11.9994 -14.9593 1
    endloop
  endfacet
  facet normal -0.425809 -0.904813 -0
    outer loop
      vertex -11.632 -15.1322 1
      vertex -11.9994 -14.9593 -1
      vertex -11.632 -15.1322 -1
    endloop
  endfacet
  facet normal 0.876309 -0.481749 0
    outer loop
      vertex -14.0062 -15.9036 1
      vertex -13.8106 -15.5478 -1
      vertex -13.8106 -15.5478 1
    endloop
  endfacet
  facet normal 0.876309 -0.481749 0
    outer loop
      vertex -13.8106 -15.5478 -1
      vertex -14.0062 -15.9036 1
      vertex -14.0062 -15.9036 -1
    endloop
  endfacet
  facet normal 0.535919 -0.844269 0
    outer loop
      vertex -13.5326 -15.2518 -1
      vertex -13.1898 -15.0342 1
      vertex -13.5326 -15.2518 1
    endloop
  endfacet
  facet normal 0.535919 -0.844269 0
    outer loop
      vertex -13.1898 -15.0342 1
      vertex -13.5326 -15.2518 -1
      vertex -13.1898 -15.0342 -1
    endloop
  endfacet
  facet normal 0.728923 -0.684596 0
    outer loop
      vertex -13.8106 -15.5478 1
      vertex -13.5326 -15.2518 -1
      vertex -13.5326 -15.2518 1
    endloop
  endfacet
  facet normal 0.728923 -0.684596 0
    outer loop
      vertex -13.5326 -15.2518 -1
      vertex -13.8106 -15.5478 1
      vertex -13.8106 -15.5478 -1
    endloop
  endfacet
  facet normal -0.929745 0.368204 0
    outer loop
      vertex -11.0804 -17.2804 -1
      vertex -10.9309 -16.9029 1
      vertex -10.9309 -16.9029 -1
    endloop
  endfacet
  facet normal -0.929745 0.368204 0
    outer loop
      vertex -10.9309 -16.9029 1
      vertex -11.0804 -17.2804 -1
      vertex -11.0804 -17.2804 1
    endloop
  endfacet
  facet normal 0.728923 0.684596 0
    outer loop
      vertex -13.5326 -17.7482 1
      vertex -13.8106 -17.4522 -1
      vertex -13.8106 -17.4522 1
    endloop
  endfacet
  facet normal 0.728923 0.684596 0
    outer loop
      vertex -13.8106 -17.4522 -1
      vertex -13.5326 -17.7482 1
      vertex -13.5326 -17.7482 -1
    endloop
  endfacet
  facet normal -0.425809 0.904813 0
    outer loop
      vertex -11.632 -17.8678 -1
      vertex -11.9994 -18.0407 1
      vertex -11.632 -17.8678 1
    endloop
  endfacet
  facet normal -0.425809 0.904813 0
    outer loop
      vertex -11.9994 -18.0407 1
      vertex -11.632 -17.8678 -1
      vertex -11.9994 -18.0407 -1
    endloop
  endfacet
  facet normal -0.637346 0.770578 0
    outer loop
      vertex -11.3191 -17.609 -1
      vertex -11.632 -17.8678 1
      vertex -11.3191 -17.609 1
    endloop
  endfacet
  facet normal -0.637346 0.770578 0
    outer loop
      vertex -11.632 -17.8678 1
      vertex -11.3191 -17.609 -1
      vertex -11.632 -17.8678 -1
    endloop
  endfacet
  facet normal -0.992114 0.125338 0
    outer loop
      vertex -10.9309 -16.9029 -1
      vertex -10.88 -16.5 1
      vertex -10.88 -16.5 -1
    endloop
  endfacet
  facet normal -0.992114 0.125338 0
    outer loop
      vertex -10.88 -16.5 1
      vertex -10.9309 -16.9029 -1
      vertex -10.9309 -16.9029 1
    endloop
  endfacet
  facet normal -0.187395 0.982285 0
    outer loop
      vertex -11.9994 -18.0407 -1
      vertex -12.3983 -18.1168 1
      vertex -11.9994 -18.0407 1
    endloop
  endfacet
  facet normal -0.187395 0.982285 0
    outer loop
      vertex -12.3983 -18.1168 1
      vertex -11.9994 -18.0407 -1
      vertex -12.3983 -18.1168 -1
    endloop
  endfacet
  facet normal 0.968588 0.248672 0
    outer loop
      vertex -14.0062 -17.0964 1
      vertex -14.1072 -16.703 -1
      vertex -14.1072 -16.703 1
    endloop
  endfacet
  facet normal 0.968588 0.248672 0
    outer loop
      vertex -14.1072 -16.703 -1
      vertex -14.0062 -17.0964 1
      vertex -14.0062 -17.0964 -1
    endloop
  endfacet
  facet normal 0.309053 0.951045 -0
    outer loop
      vertex -12.8036 -18.0913 -1
      vertex -13.1898 -17.9658 1
      vertex -12.8036 -18.0913 1
    endloop
  endfacet
  facet normal 0.309053 0.951045 0
    outer loop
      vertex -13.1898 -17.9658 1
      vertex -12.8036 -18.0913 -1
      vertex -13.1898 -17.9658 -1
    endloop
  endfacet
  facet normal 0.876309 0.481749 0
    outer loop
      vertex -13.8106 -17.4522 1
      vertex -14.0062 -17.0964 -1
      vertex -14.0062 -17.0964 1
    endloop
  endfacet
  facet normal 0.876309 0.481749 0
    outer loop
      vertex -14.0062 -17.0964 -1
      vertex -13.8106 -17.4522 1
      vertex -13.8106 -17.4522 -1
    endloop
  endfacet
  facet normal 0.535919 0.844269 -0
    outer loop
      vertex -13.1898 -17.9658 -1
      vertex -13.5326 -17.7482 1
      vertex -13.1898 -17.9658 1
    endloop
  endfacet
  facet normal 0.535919 0.844269 0
    outer loop
      vertex -13.5326 -17.7482 1
      vertex -13.1898 -17.9658 -1
      vertex -13.5326 -17.7482 -1
    endloop
  endfacet
  facet normal -0.809066 0.587718 0
    outer loop
      vertex -11.3191 -17.609 -1
      vertex -11.0804 -17.2804 1
      vertex -11.0804 -17.2804 -1
    endloop
  endfacet
  facet normal -0.809066 0.587718 0
    outer loop
      vertex -11.0804 -17.2804 1
      vertex -11.3191 -17.609 -1
      vertex -11.3191 -17.609 1
    endloop
  endfacet
  facet normal 0.0627922 0.998027 -0
    outer loop
      vertex -12.3983 -18.1168 -1
      vertex -12.8036 -18.0913 1
      vertex -12.3983 -18.1168 1
    endloop
  endfacet
  facet normal 0.0627922 0.998027 0
    outer loop
      vertex -12.8036 -18.0913 1
      vertex -12.3983 -18.1168 -1
      vertex -12.8036 -18.0913 -1
    endloop
  endfacet
  facet normal -1 0 0
    outer loop
      vertex -7.7 -8.2 1
      vertex -7.7 5.8 5
      vertex -7.7 5.8 1
    endloop
  endfacet
  facet normal -1 -0 0
    outer loop
      vertex -7.7 5.8 5
      vertex -7.7 -8.2 1
      vertex -7.7 -8.2 5
    endloop
  endfacet
  facet normal -0 0 1
    outer loop
      vertex 9.7 5.8 5
      vertex 10.7 -8.2 5
      vertex 10.7 5.8 5
    endloop
  endfacet
  facet normal 0 0 1
    outer loop
      vertex 10.7 -8.2 5
      vertex 9.7 5.8 5
      vertex 9.7 -8.2 5
    endloop
  endfacet
  facet normal -0 0 1
    outer loop
      vertex -7.7 5.8 5
      vertex -6.7 -8.2 5
      vertex -6.7 5.8 5
    endloop
  endfacet
  facet normal 0 0 1
    outer loop
      vertex -6.7 -8.2 5
      vertex -7.7 5.8 5
      vertex -7.7 -8.2 5
    endloop
  endfacet
  facet normal 1 -0 0
    outer loop
      vertex 10.7 -8.2 5
      vertex 10.7 5.8 1
      vertex 10.7 5.8 5
    endloop
  endfacet
  facet normal 1 0 0
    outer loop
      vertex 10.7 5.8 1
      vertex 10.7 -8.2 5
      vertex 10.7 -8.2 1
    endloop
  endfacet
  facet normal 0 1 -0
    outer loop
      vertex 10.7 5.8 1
      vertex 9.7 5.8 5
      vertex 10.7 5.8 5
    endloop
  endfacet
  facet normal 0 1 0
    outer loop
      vertex 9.7 5.8 5
      vertex 10.7 5.8 1
      vertex 9.7 5.8 1
    endloop
  endfacet
  facet normal 0 1 -0
    outer loop
      vertex -6.7 5.8 1
      vertex -7.7 5.8 5
      vertex -6.7 5.8 5
    endloop
  endfacet
  facet normal 0 1 0
    outer loop
      vertex -7.7 5.8 5
      vertex -6.7 5.8 1
      vertex -7.7 5.8 1
    endloop
  endfacet
  facet normal 0 -1 0
    outer loop
      vertex 9.7 -8.2 1
      vertex 10.7 -8.2 5
      vertex 9.7 -8.2 5
    endloop
  endfacet
  facet normal 0 -1 -0
    outer loop
      vertex 10.7 -8.2 5
      vertex 9.7 -8.2 1
      vertex 10.7 -8.2 1
    endloop
  endfacet
  facet normal 0 -1 0
    outer loop
      vertex -7.7 -8.2 1
      vertex -6.7 -8.2 5
      vertex -7.7 -8.2 5
    endloop
  endfacet
  facet normal 0 -1 -0
    outer loop
      vertex -6.7 -8.2 5
      vertex -7.7 -8.2 1
      vertex -6.7 -8.2 1
    endloop
  endfacet
  facet normal 1 -0 0
    outer loop
      vertex -6.7 -8.2 5
      vertex -6.7 5.8 1
      vertex -6.7 5.8 5
    endloop
  endfacet
  facet normal 1 0 0
    outer loop
      vertex -6.7 5.8 1
      vertex -6.7 -8.2 5
      vertex -6.7 -8.2 1
    endloop
  endfacet
  facet normal -1 0 0
    outer loop
      vertex 9.7 -8.2 1
      vertex 9.7 5.8 5
      vertex 9.7 5.8 1
    endloop
  endfacet
  facet normal -1 -0 0
    outer loop
      vertex 9.7 5.8 5
      vertex 9.7 -8.2 1
      vertex 9.7 -8.2 5
    endloop
  endfacet
  facet normal -1 0 0
    outer loop
      vertex -9 6 1
      vertex -9 17 10
      vertex -9 17 1
    endloop
  endfacet
  facet normal -1 -0 0
    outer loop
      vertex -9 17 10
      vertex -9 6 1
      vertex -9 6 10
    endloop
  endfacet
  facet normal 0 0 1
    outer loop
      vertex 9 17 10
      vertex 8 16 10
      vertex 9 6 10
    endloop
  endfacet
  facet normal 0 0 1
    outer loop
      vertex 9 17 10
      vertex -8 16 10
      vertex 8 16 10
    endloop
  endfacet
  facet normal 0 0 1
    outer loop
      vertex -8 16 10
      vertex -9 17 10
      vertex -8 7 10
    endloop
  endfacet
  facet normal -0 0 1
    outer loop
      vertex -9 17 10
      vertex -8 16 10
      vertex 9 17 10
    endloop
  endfacet
  facet normal -0 0 1
    outer loop
      vertex 8 7 10
      vertex 9 6 10
      vertex 8 16 10
    endloop
  endfacet
  facet normal -0 0 1
    outer loop
      vertex -8 7 10
      vertex 9 6 10
      vertex 8 7 10
    endloop
  endfacet
  facet normal 0 0 1
    outer loop
      vertex -8 7 10
      vertex -9 6 10
      vertex 9 6 10
    endloop
  endfacet
  facet normal 0 0 1
    outer loop
      vertex -9 6 10
      vertex -8 7 10
      vertex -9 17 10
    endloop
  endfacet
  facet normal 1 -0 0
    outer loop
      vertex 9 6 10
      vertex 9 17 1
      vertex 9 17 10
    endloop
  endfacet
  facet normal 1 0 0
    outer loop
      vertex 9 17 1
      vertex 9 6 10
      vertex 9 6 1
    endloop
  endfacet
  facet normal 0 1 -0
    outer loop
      vertex 9 17 1
      vertex -9 17 10
      vertex 9 17 10
    endloop
  endfacet
  facet normal 0 1 0
    outer loop
      vertex -9 17 10
      vertex 9 17 1
      vertex -9 17 1
    endloop
  endfacet
  facet normal 0 -1 0
    outer loop
      vertex -9 6 1
      vertex 9 6 10
      vertex -9 6 10
    endloop
  endfacet
  facet normal 0 -1 -0
    outer loop
      vertex 9 6 10
      vertex -9 6 1
      vertex 9 6 1
    endloop
  endfacet
  facet normal 1 -0 0
    outer loop
      vertex -8 7 10
      vertex -8 16 1
      vertex -8 16 10
    endloop
  endfacet
  facet normal 1 0 0
    outer loop
      vertex -8 16 1
      vertex -8 7 10
      vertex -8 7 1
    endloop
  endfacet
  facet normal -1 0 0
    outer loop
      vertex 8 7 1
      vertex 8 16 10
      vertex 8 16 1
    endloop
  endfacet
  facet normal -1 -0 0
    outer loop
      vertex 8 16 10
      vertex 8 7 1
      vertex 8 7 10
    endloop
  endfacet
  facet normal 0 1 -0
    outer loop
      vertex 8 7 1
      vertex -8 7 10
      vertex 8 7 10
    endloop
  endfacet
  facet normal 0 1 0
    outer loop
      vertex -8 7 10
      vertex 8 7 1
      vertex -8 7 1
    endloop
  endfacet
  facet normal 0 -1 0
    outer loop
      vertex -8 16 1
      vertex 8 16 10
      vertex -8 16 10
    endloop
  endfacet
  facet normal 0 -1 -0
    outer loop
      vertex 8 16 10
      vertex -8 16 1
      vertex 8 16 1
    endloop
  endfacet
endsolid OpenSCAD_Model
