solid OpenSCAD_Model
  facet normal -1 0 0
    outer loop
      vertex -78.95 52.4854 -10
      vertex -78.95 52.5 10
      vertex -78.95 52.5 -10
    endloop
  endfacet
  facet normal -1 -0 0
    outer loop
      vertex -78.95 52.5 10
      vertex -78.95 52.4854 -10
      vertex -78.95 52.4854 10
    endloop
  endfacet
  facet normal 0 1 -0
    outer loop
      vertex -81.9763 49.45 -10
      vertex -82 49.45 10
      vertex -81.9763 49.45 10
    endloop
  endfacet
  facet normal 0 1 0
    outer loop
      vertex -82 49.45 10
      vertex -81.9763 49.45 -10
      vertex -82 49.45 -10
    endloop
  endfacet
  facet normal -0.728969 0.684547 0
    outer loop
      vertex -81.427 51.2634 -10
      vertex -80.9123 51.8115 10
      vertex -80.9123 51.8115 -10
    endloop
  endfacet
  facet normal -0.728969 0.684547 0
    outer loop
      vertex -80.9123 51.8115 10
      vertex -81.427 51.2634 -10
      vertex -81.427 51.2634 10
    endloop
  endfacet
  facet normal -1 0 0
    outer loop
      vertex -81.9763 49.45 -10
      vertex -81.9763 49.876 10
      vertex -81.9763 49.876 -10
    endloop
  endfacet
  facet normal -1 -0 0
    outer loop
      vertex -81.9763 49.876 10
      vertex -81.9763 49.45 -10
      vertex -81.9763 49.45 10
    endloop
  endfacet
  facet normal -0.309038 0.95105 0
    outer loop
      vertex -79.5621 52.4469 -10
      vertex -80.2773 52.2145 10
      vertex -79.5621 52.4469 10
    endloop
  endfacet
  facet normal -0.309038 0.95105 0
    outer loop
      vertex -80.2773 52.2145 10
      vertex -79.5621 52.4469 -10
      vertex -80.2773 52.2145 -10
    endloop
  endfacet
  facet normal -0.0627742 0.998028 0
    outer loop
      vertex -78.95 52.4854 -10
      vertex -79.5621 52.4469 10
      vertex -78.95 52.4854 10
    endloop
  endfacet
  facet normal -0.0627742 0.998028 0
    outer loop
      vertex -79.5621 52.4469 10
      vertex -78.95 52.4854 -10
      vertex -79.5621 52.4469 -10
    endloop
  endfacet
  facet normal -0.535843 0.844318 0
    outer loop
      vertex -80.2773 52.2145 -10
      vertex -80.9123 51.8115 10
      vertex -80.2773 52.2145 10
    endloop
  endfacet
  facet normal -0.535843 0.844318 0
    outer loop
      vertex -80.9123 51.8115 10
      vertex -80.2773 52.2145 -10
      vertex -80.9123 51.8115 -10
    endloop
  endfacet
  facet normal -0.8763 0.481766 0
    outer loop
      vertex -81.7893 50.6044 -10
      vertex -81.427 51.2634 10
      vertex -81.427 51.2634 -10
    endloop
  endfacet
  facet normal -0.8763 0.481766 0
    outer loop
      vertex -81.427 51.2634 10
      vertex -81.7893 50.6044 -10
      vertex -81.7893 50.6044 10
    endloop
  endfacet
  facet normal -0.96859 0.248663 0
    outer loop
      vertex -81.9763 49.876 -10
      vertex -81.7893 50.6044 10
      vertex -81.7893 50.6044 -10
    endloop
  endfacet
  facet normal -0.96859 0.248663 0
    outer loop
      vertex -81.7893 50.6044 10
      vertex -81.9763 49.876 -10
      vertex -81.9763 49.876 10
    endloop
  endfacet
  facet normal -1 0 0
    outer loop
      vertex -15.5 44 -10
      vertex -15.5 48 -7
      vertex -15.5 48 -10
    endloop
  endfacet
  facet normal -1 -0 0
    outer loop
      vertex -15.5 48 -7
      vertex -15.5 44 -10
      vertex -15.5 44 -7
    endloop
  endfacet
  facet normal 1 -0 0
    outer loop
      vertex -29.5 44 -7
      vertex -29.5 48 -10
      vertex -29.5 48 -7
    endloop
  endfacet
  facet normal 1 0 0
    outer loop
      vertex -29.5 48 -10
      vertex -29.5 44 -7
      vertex -29.5 44 -10
    endloop
  endfacet
  facet normal 0 -1 0
    outer loop
      vertex -29.5 48 -10
      vertex -15.5 48 -7
      vertex -29.5 48 -7
    endloop
  endfacet
  facet normal 0 -1 -0
    outer loop
      vertex -15.5 48 -7
      vertex -29.5 48 -10
      vertex -15.5 48 -10
    endloop
  endfacet
  facet normal 0 1 -0
    outer loop
      vertex -15.5 44 -10
      vertex -29.5 44 -7
      vertex -15.5 44 -7
    endloop
  endfacet
  facet normal 0 1 0
    outer loop
      vertex -29.5 44 -7
      vertex -15.5 44 -10
      vertex -29.5 44 -10
    endloop
  endfacet
  facet normal -1 0 0
    outer loop
      vertex -50.5 44 -10
      vertex -50.5 48 -7
      vertex -50.5 48 -10
    endloop
  endfacet
  facet normal -1 -0 0
    outer loop
      vertex -50.5 48 -7
      vertex -50.5 44 -10
      vertex -50.5 44 -7
    endloop
  endfacet
  facet normal 1 -0 0
    outer loop
      vertex -64.5 44 -7
      vertex -64.5 48 -10
      vertex -64.5 48 -7
    endloop
  endfacet
  facet normal 1 0 0
    outer loop
      vertex -64.5 48 -10
      vertex -64.5 44 -7
      vertex -64.5 44 -10
    endloop
  endfacet
  facet normal 0 -1 0
    outer loop
      vertex -64.5 48 -10
      vertex -50.5 48 -7
      vertex -64.5 48 -7
    endloop
  endfacet
  facet normal 0 -1 -0
    outer loop
      vertex -50.5 48 -7
      vertex -64.5 48 -10
      vertex -50.5 48 -10
    endloop
  endfacet
  facet normal 0 1 -0
    outer loop
      vertex -50.5 44 -10
      vertex -64.5 44 -7
      vertex -50.5 44 -7
    endloop
  endfacet
  facet normal 0 1 0
    outer loop
      vertex -64.5 44 -7
      vertex -50.5 44 -10
      vertex -64.5 44 -10
    endloop
  endfacet
  facet normal -0.929757 -0.368173 0
    outer loop
      vertex -18.9162 32.7201 -10
      vertex -19.2577 33.5825 -7
      vertex -19.2577 33.5825 -10
    endloop
  endfacet
  facet normal -0.929757 -0.368173 0
    outer loop
      vertex -19.2577 33.5825 -7
      vertex -18.9162 32.7201 -10
      vertex -18.9162 32.7201 -7
    endloop
  endfacet
  facet normal -0.992119 -0.125295 0
    outer loop
      vertex -18.8 31.8 -10
      vertex -18.9162 32.7201 -7
      vertex -18.9162 32.7201 -10
    endloop
  endfacet
  facet normal -0.992119 -0.125295 0
    outer loop
      vertex -18.9162 32.7201 -7
      vertex -18.8 31.8 -10
      vertex -18.8 31.8 -7
    endloop
  endfacet
  facet normal -0.80903 -0.587768 0
    outer loop
      vertex -19.2577 33.5825 -10
      vertex -19.8028 34.3328 -7
      vertex -19.8028 34.3328 -10
    endloop
  endfacet
  facet normal -0.80903 -0.587768 0
    outer loop
      vertex -19.8028 34.3328 -7
      vertex -19.2577 33.5825 -10
      vertex -19.2577 33.5825 -7
    endloop
  endfacet
  facet normal 0.0627542 -0.998029 0
    outer loop
      vertex -23.1933 35.4345 -10
      vertex -22.2677 35.4927 -7
      vertex -23.1933 35.4345 -7
    endloop
  endfacet
  facet normal 0.0627542 -0.998029 0
    outer loop
      vertex -22.2677 35.4927 -7
      vertex -23.1933 35.4345 -10
      vertex -22.2677 35.4927 -10
    endloop
  endfacet
  facet normal 0.728969 -0.684547 0
    outer loop
      vertex -25.4934 33.9748 -7
      vertex -24.8585 34.6509 -10
      vertex -24.8585 34.6509 -7
    endloop
  endfacet
  facet normal 0.728969 -0.684547 0
    outer loop
      vertex -24.8585 34.6509 -10
      vertex -25.4934 33.9748 -7
      vertex -25.4934 33.9748 -10
    endloop
  endfacet
  facet normal -0.637444 -0.770497 0
    outer loop
      vertex -20.5174 34.924 -10
      vertex -19.8028 34.3328 -7
      vertex -20.5174 34.924 -7
    endloop
  endfacet
  facet normal -0.637444 -0.770497 -0
    outer loop
      vertex -19.8028 34.3328 -7
      vertex -20.5174 34.924 -10
      vertex -19.8028 34.3328 -10
    endloop
  endfacet
  facet normal -0.992121 0.125282 0
    outer loop
      vertex -18.9162 30.8798 -10
      vertex -18.8 31.8 -7
      vertex -18.8 31.8 -10
    endloop
  endfacet
  facet normal -0.992121 0.125282 0
    outer loop
      vertex -18.8 31.8 -7
      vertex -18.9162 30.8798 -10
      vertex -18.9162 30.8798 -7
    endloop
  endfacet
  facet normal -0.425781 -0.904826 0
    outer loop
      vertex -21.3566 35.3189 -10
      vertex -20.5174 34.924 -7
      vertex -21.3566 35.3189 -7
    endloop
  endfacet
  facet normal -0.425781 -0.904826 -0
    outer loop
      vertex -20.5174 34.924 -7
      vertex -21.3566 35.3189 -10
      vertex -20.5174 34.924 -10
    endloop
  endfacet
  facet normal -0.425781 0.904826 0
    outer loop
      vertex -20.5174 28.676 -10
      vertex -21.3566 28.2811 -7
      vertex -20.5174 28.676 -7
    endloop
  endfacet
  facet normal -0.425781 0.904826 0
    outer loop
      vertex -21.3566 28.2811 -7
      vertex -20.5174 28.676 -10
      vertex -21.3566 28.2811 -10
    endloop
  endfacet
  facet normal -0.80903 0.587768 0
    outer loop
      vertex -19.8028 29.2672 -10
      vertex -19.2577 30.0175 -7
      vertex -19.2577 30.0175 -10
    endloop
  endfacet
  facet normal -0.80903 0.587768 0
    outer loop
      vertex -19.2577 30.0175 -7
      vertex -19.8028 29.2672 -10
      vertex -19.8028 29.2672 -7
    endloop
  endfacet
  facet normal 0.0627542 0.998029 -0
    outer loop
      vertex -22.2677 28.1073 -10
      vertex -23.1933 28.1655 -7
      vertex -22.2677 28.1073 -7
    endloop
  endfacet
  facet normal 0.0627542 0.998029 0
    outer loop
      vertex -23.1933 28.1655 -7
      vertex -22.2677 28.1073 -10
      vertex -23.1933 28.1655 -10
    endloop
  endfacet
  facet normal 0.309006 -0.95106 0
    outer loop
      vertex -24.0754 35.1479 -10
      vertex -23.1933 35.4345 -7
      vertex -24.0754 35.1479 -7
    endloop
  endfacet
  facet normal 0.309006 -0.95106 0
    outer loop
      vertex -23.1933 35.4345 -7
      vertex -24.0754 35.1479 -10
      vertex -23.1933 35.4345 -10
    endloop
  endfacet
  facet normal -0.637444 0.770497 0
    outer loop
      vertex -19.8028 29.2672 -10
      vertex -20.5174 28.676 -7
      vertex -19.8028 29.2672 -7
    endloop
  endfacet
  facet normal -0.637444 0.770497 0
    outer loop
      vertex -20.5174 28.676 -7
      vertex -19.8028 29.2672 -10
      vertex -20.5174 28.676 -10
    endloop
  endfacet
  facet normal 0.728969 0.684547 0
    outer loop
      vertex -24.8585 28.9491 -7
      vertex -25.4934 29.6252 -10
      vertex -25.4934 29.6252 -7
    endloop
  endfacet
  facet normal 0.728969 0.684547 0
    outer loop
      vertex -25.4934 29.6252 -10
      vertex -24.8585 28.9491 -7
      vertex -24.8585 28.9491 -10
    endloop
  endfacet
  facet normal 0.53585 0.844313 -0
    outer loop
      vertex -24.0754 28.4521 -10
      vertex -24.8585 28.9491 -7
      vertex -24.0754 28.4521 -7
    endloop
  endfacet
  facet normal 0.53585 0.844313 0
    outer loop
      vertex -24.8585 28.9491 -7
      vertex -24.0754 28.4521 -10
      vertex -24.8585 28.9491 -10
    endloop
  endfacet
  facet normal 0.968601 0.248619 0
    outer loop
      vertex -25.9402 30.4379 -7
      vertex -26.1708 31.3363 -10
      vertex -26.1708 31.3363 -7
    endloop
  endfacet
  facet normal 0.968601 0.248619 0
    outer loop
      vertex -26.1708 31.3363 -10
      vertex -25.9402 30.4379 -7
      vertex -25.9402 30.4379 -10
    endloop
  endfacet
  facet normal 0.309006 0.95106 -0
    outer loop
      vertex -23.1933 28.1655 -10
      vertex -24.0754 28.4521 -7
      vertex -23.1933 28.1655 -7
    endloop
  endfacet
  facet normal 0.309006 0.95106 0
    outer loop
      vertex -24.0754 28.4521 -7
      vertex -23.1933 28.1655 -10
      vertex -24.0754 28.4521 -10
    endloop
  endfacet
  facet normal 0.8763 -0.481766 0
    outer loop
      vertex -25.9402 33.1621 -7
      vertex -25.4934 33.9748 -10
      vertex -25.4934 33.9748 -7
    endloop
  endfacet
  facet normal 0.8763 -0.481766 0
    outer loop
      vertex -25.4934 33.9748 -10
      vertex -25.9402 33.1621 -7
      vertex -25.9402 33.1621 -10
    endloop
  endfacet
  facet normal -0.929743 0.36821 0
    outer loop
      vertex -19.2577 30.0175 -10
      vertex -18.9162 30.8798 -7
      vertex -18.9162 30.8798 -10
    endloop
  endfacet
  facet normal -0.929743 0.36821 0
    outer loop
      vertex -18.9162 30.8798 -7
      vertex -19.2577 30.0175 -10
      vertex -19.2577 30.0175 -7
    endloop
  endfacet
  facet normal -0.18738 0.982288 0
    outer loop
      vertex -21.3566 28.2811 -10
      vertex -22.2677 28.1073 -7
      vertex -21.3566 28.2811 -7
    endloop
  endfacet
  facet normal -0.18738 0.982288 0
    outer loop
      vertex -22.2677 28.1073 -7
      vertex -21.3566 28.2811 -10
      vertex -22.2677 28.1073 -10
    endloop
  endfacet
  facet normal 1 -0 0
    outer loop
      vertex -26.1708 31.3363 -7
      vertex -26.1708 32.2637 -10
      vertex -26.1708 32.2637 -7
    endloop
  endfacet
  facet normal 1 0 0
    outer loop
      vertex -26.1708 32.2637 -10
      vertex -26.1708 31.3363 -7
      vertex -26.1708 31.3363 -10
    endloop
  endfacet
  facet normal 0.8763 0.481766 0
    outer loop
      vertex -25.4934 29.6252 -7
      vertex -25.9402 30.4379 -10
      vertex -25.9402 30.4379 -7
    endloop
  endfacet
  facet normal 0.8763 0.481766 0
    outer loop
      vertex -25.9402 30.4379 -10
      vertex -25.4934 29.6252 -7
      vertex -25.4934 29.6252 -10
    endloop
  endfacet
  facet normal -0.18738 -0.982288 0
    outer loop
      vertex -22.2677 35.4927 -10
      vertex -21.3566 35.3189 -7
      vertex -22.2677 35.4927 -7
    endloop
  endfacet
  facet normal -0.18738 -0.982288 -0
    outer loop
      vertex -21.3566 35.3189 -7
      vertex -22.2677 35.4927 -10
      vertex -21.3566 35.3189 -10
    endloop
  endfacet
  facet normal 0.53585 -0.844313 0
    outer loop
      vertex -24.8585 34.6509 -10
      vertex -24.0754 35.1479 -7
      vertex -24.8585 34.6509 -7
    endloop
  endfacet
  facet normal 0.53585 -0.844313 0
    outer loop
      vertex -24.0754 35.1479 -7
      vertex -24.8585 34.6509 -10
      vertex -24.0754 35.1479 -10
    endloop
  endfacet
  facet normal 0.968601 -0.248619 0
    outer loop
      vertex -26.1708 32.2637 -7
      vertex -25.9402 33.1621 -10
      vertex -25.9402 33.1621 -7
    endloop
  endfacet
  facet normal 0.968601 -0.248619 0
    outer loop
      vertex -25.9402 33.1621 -10
      vertex -26.1708 32.2637 -7
      vertex -26.1708 32.2637 -10
    endloop
  endfacet
  facet normal -0.929757 -0.368173 0
    outer loop
      vertex -53.9162 32.7201 -10
      vertex -54.2577 33.5825 -7
      vertex -54.2577 33.5825 -10
    endloop
  endfacet
  facet normal -0.929757 -0.368173 0
    outer loop
      vertex -54.2577 33.5825 -7
      vertex -53.9162 32.7201 -10
      vertex -53.9162 32.7201 -7
    endloop
  endfacet
  facet normal -0.992119 -0.125295 0
    outer loop
      vertex -53.8 31.8 -10
      vertex -53.9162 32.7201 -7
      vertex -53.9162 32.7201 -10
    endloop
  endfacet
  facet normal -0.992119 -0.125295 0
    outer loop
      vertex -53.9162 32.7201 -7
      vertex -53.8 31.8 -10
      vertex -53.8 31.8 -7
    endloop
  endfacet
  facet normal -0.80903 -0.587768 0
    outer loop
      vertex -54.2577 33.5825 -10
      vertex -54.8028 34.3328 -7
      vertex -54.8028 34.3328 -10
    endloop
  endfacet
  facet normal -0.80903 -0.587768 0
    outer loop
      vertex -54.8028 34.3328 -7
      vertex -54.2577 33.5825 -10
      vertex -54.2577 33.5825 -7
    endloop
  endfacet
  facet normal 0.0627542 -0.998029 0
    outer loop
      vertex -58.1933 35.4345 -10
      vertex -57.2677 35.4927 -7
      vertex -58.1933 35.4345 -7
    endloop
  endfacet
  facet normal 0.0627542 -0.998029 0
    outer loop
      vertex -57.2677 35.4927 -7
      vertex -58.1933 35.4345 -10
      vertex -57.2677 35.4927 -10
    endloop
  endfacet
  facet normal 0.728969 -0.684547 0
    outer loop
      vertex -60.4934 33.9748 -7
      vertex -59.8585 34.6509 -10
      vertex -59.8585 34.6509 -7
    endloop
  endfacet
  facet normal 0.728969 -0.684547 0
    outer loop
      vertex -59.8585 34.6509 -10
      vertex -60.4934 33.9748 -7
      vertex -60.4934 33.9748 -10
    endloop
  endfacet
  facet normal -0.637444 -0.770497 0
    outer loop
      vertex -55.5174 34.924 -10
      vertex -54.8028 34.3328 -7
      vertex -55.5174 34.924 -7
    endloop
  endfacet
  facet normal -0.637444 -0.770497 -0
    outer loop
      vertex -54.8028 34.3328 -7
      vertex -55.5174 34.924 -10
      vertex -54.8028 34.3328 -10
    endloop
  endfacet
  facet normal -0.992121 0.125282 0
    outer loop
      vertex -53.9162 30.8798 -10
      vertex -53.8 31.8 -7
      vertex -53.8 31.8 -10
    endloop
  endfacet
  facet normal -0.992121 0.125282 0
    outer loop
      vertex -53.8 31.8 -7
      vertex -53.9162 30.8798 -10
      vertex -53.9162 30.8798 -7
    endloop
  endfacet
  facet normal -0.425781 -0.904826 0
    outer loop
      vertex -56.3566 35.3189 -10
      vertex -55.5174 34.924 -7
      vertex -56.3566 35.3189 -7
    endloop
  endfacet
  facet normal -0.425781 -0.904826 -0
    outer loop
      vertex -55.5174 34.924 -7
      vertex -56.3566 35.3189 -10
      vertex -55.5174 34.924 -10
    endloop
  endfacet
  facet normal -0.425781 0.904826 0
    outer loop
      vertex -55.5174 28.676 -10
      vertex -56.3566 28.2811 -7
      vertex -55.5174 28.676 -7
    endloop
  endfacet
  facet normal -0.425781 0.904826 0
    outer loop
      vertex -56.3566 28.2811 -7
      vertex -55.5174 28.676 -10
      vertex -56.3566 28.2811 -10
    endloop
  endfacet
  facet normal -0.80903 0.587768 0
    outer loop
      vertex -54.8028 29.2672 -10
      vertex -54.2577 30.0175 -7
      vertex -54.2577 30.0175 -10
    endloop
  endfacet
  facet normal -0.80903 0.587768 0
    outer loop
      vertex -54.2577 30.0175 -7
      vertex -54.8028 29.2672 -10
      vertex -54.8028 29.2672 -7
    endloop
  endfacet
  facet normal 0.0627542 0.998029 -0
    outer loop
      vertex -57.2677 28.1073 -10
      vertex -58.1933 28.1655 -7
      vertex -57.2677 28.1073 -7
    endloop
  endfacet
  facet normal 0.0627542 0.998029 0
    outer loop
      vertex -58.1933 28.1655 -7
      vertex -57.2677 28.1073 -10
      vertex -58.1933 28.1655 -10
    endloop
  endfacet
  facet normal 0.309006 -0.95106 0
    outer loop
      vertex -59.0754 35.1479 -10
      vertex -58.1933 35.4345 -7
      vertex -59.0754 35.1479 -7
    endloop
  endfacet
  facet normal 0.309006 -0.95106 0
    outer loop
      vertex -58.1933 35.4345 -7
      vertex -59.0754 35.1479 -10
      vertex -58.1933 35.4345 -10
    endloop
  endfacet
  facet normal -0.637444 0.770497 0
    outer loop
      vertex -54.8028 29.2672 -10
      vertex -55.5174 28.676 -7
      vertex -54.8028 29.2672 -7
    endloop
  endfacet
  facet normal -0.637444 0.770497 0
    outer loop
      vertex -55.5174 28.676 -7
      vertex -54.8028 29.2672 -10
      vertex -55.5174 28.676 -10
    endloop
  endfacet
  facet normal 0.728969 0.684547 0
    outer loop
      vertex -59.8585 28.9491 -7
      vertex -60.4934 29.6252 -10
      vertex -60.4934 29.6252 -7
    endloop
  endfacet
  facet normal 0.728969 0.684547 0
    outer loop
      vertex -60.4934 29.6252 -10
      vertex -59.8585 28.9491 -7
      vertex -59.8585 28.9491 -10
    endloop
  endfacet
  facet normal 0.53585 0.844313 -0
    outer loop
      vertex -59.0754 28.4521 -10
      vertex -59.8585 28.9491 -7
      vertex -59.0754 28.4521 -7
    endloop
  endfacet
  facet normal 0.53585 0.844313 0
    outer loop
      vertex -59.8585 28.9491 -7
      vertex -59.0754 28.4521 -10
      vertex -59.8585 28.9491 -10
    endloop
  endfacet
  facet normal 0.968601 0.248619 0
    outer loop
      vertex -60.9402 30.4379 -7
      vertex -61.1708 31.3363 -10
      vertex -61.1708 31.3363 -7
    endloop
  endfacet
  facet normal 0.968601 0.248619 0
    outer loop
      vertex -61.1708 31.3363 -10
      vertex -60.9402 30.4379 -7
      vertex -60.9402 30.4379 -10
    endloop
  endfacet
  facet normal 0.309006 0.95106 -0
    outer loop
      vertex -58.1933 28.1655 -10
      vertex -59.0754 28.4521 -7
      vertex -58.1933 28.1655 -7
    endloop
  endfacet
  facet normal 0.309006 0.95106 0
    outer loop
      vertex -59.0754 28.4521 -7
      vertex -58.1933 28.1655 -10
      vertex -59.0754 28.4521 -10
    endloop
  endfacet
  facet normal 0.8763 -0.481766 0
    outer loop
      vertex -60.9402 33.1621 -7
      vertex -60.4934 33.9748 -10
      vertex -60.4934 33.9748 -7
    endloop
  endfacet
  facet normal 0.8763 -0.481766 0
    outer loop
      vertex -60.4934 33.9748 -10
      vertex -60.9402 33.1621 -7
      vertex -60.9402 33.1621 -10
    endloop
  endfacet
  facet normal -0.929743 0.36821 0
    outer loop
      vertex -54.2577 30.0175 -10
      vertex -53.9162 30.8798 -7
      vertex -53.9162 30.8798 -10
    endloop
  endfacet
  facet normal -0.929743 0.36821 0
    outer loop
      vertex -53.9162 30.8798 -7
      vertex -54.2577 30.0175 -10
      vertex -54.2577 30.0175 -7
    endloop
  endfacet
  facet normal -0.18738 0.982288 0
    outer loop
      vertex -56.3566 28.2811 -10
      vertex -57.2677 28.1073 -7
      vertex -56.3566 28.2811 -7
    endloop
  endfacet
  facet normal -0.18738 0.982288 0
    outer loop
      vertex -57.2677 28.1073 -7
      vertex -56.3566 28.2811 -10
      vertex -57.2677 28.1073 -10
    endloop
  endfacet
  facet normal 1 -0 0
    outer loop
      vertex -61.1708 31.3363 -7
      vertex -61.1708 32.2637 -10
      vertex -61.1708 32.2637 -7
    endloop
  endfacet
  facet normal 1 0 0
    outer loop
      vertex -61.1708 32.2637 -10
      vertex -61.1708 31.3363 -7
      vertex -61.1708 31.3363 -10
    endloop
  endfacet
  facet normal 0.8763 0.481766 0
    outer loop
      vertex -60.4934 29.6252 -7
      vertex -60.9402 30.4379 -10
      vertex -60.9402 30.4379 -7
    endloop
  endfacet
  facet normal 0.8763 0.481766 0
    outer loop
      vertex -60.9402 30.4379 -10
      vertex -60.4934 29.6252 -7
      vertex -60.4934 29.6252 -10
    endloop
  endfacet
  facet normal -0.18738 -0.982288 0
    outer loop
      vertex -57.2677 35.4927 -10
      vertex -56.3566 35.3189 -7
      vertex -57.2677 35.4927 -7
    endloop
  endfacet
  facet normal -0.18738 -0.982288 -0
    outer loop
      vertex -56.3566 35.3189 -7
      vertex -57.2677 35.4927 -10
      vertex -56.3566 35.3189 -10
    endloop
  endfacet
  facet normal 0.53585 -0.844313 0
    outer loop
      vertex -59.8585 34.6509 -10
      vertex -59.0754 35.1479 -7
      vertex -59.8585 34.6509 -7
    endloop
  endfacet
  facet normal 0.53585 -0.844313 0
    outer loop
      vertex -59.0754 35.1479 -7
      vertex -59.8585 34.6509 -10
      vertex -59.0754 35.1479 -10
    endloop
  endfacet
  facet normal 0.968601 -0.248619 0
    outer loop
      vertex -61.1708 32.2637 -7
      vertex -60.9402 33.1621 -10
      vertex -60.9402 33.1621 -7
    endloop
  endfacet
  facet normal 0.968601 -0.248619 0
    outer loop
      vertex -60.9402 33.1621 -10
      vertex -61.1708 32.2637 -7
      vertex -61.1708 32.2637 -10
    endloop
  endfacet
  facet normal 0 0 1
    outer loop
      vertex -81.9763 49.45 10
      vertex -80.4525 48.2269 10
      vertex -80.5834 48.7368 10
    endloop
  endfacet
  facet normal -0 0 1
    outer loop
      vertex -81.9763 49.876 10
      vertex -80.4525 49.7731 10
      vertex -81.7893 50.6044 10
    endloop
  endfacet
  facet normal 0 0 1
    outer loop
      vertex -80.4525 49.7731 10
      vertex -81.9763 49.876 10
      vertex -80.5834 49.2632 10
    endloop
  endfacet
  facet normal 0 0 1
    outer loop
      vertex -80.4525 48.2269 10
      vertex -81.9763 49.45 10
      vertex -82 49.45 10
    endloop
  endfacet
  facet normal -0 0 1
    outer loop
      vertex -81.9763 49.45 10
      vertex -80.5834 49.2632 10
      vertex -81.9763 49.876 10
    endloop
  endfacet
  facet normal 0 0 1
    outer loop
      vertex -80.4525 48.2269 10
      vertex -81.5 5 10
      vertex -80.5 5 10
    endloop
  endfacet
  facet normal 0 0 1
    outer loop
      vertex -80.5834 49.2632 10
      vertex -81.9763 49.45 10
      vertex -80.5834 48.7368 10
    endloop
  endfacet
  facet normal 0 0 1
    outer loop
      vertex -80.4525 48.2269 10
      vertex -82 49.45 10
      vertex -81.5 5 10
    endloop
  endfacet
  facet normal 0 0 1
    outer loop
      vertex -82 0 10
      vertex -81.5 5 10
      vertex -82 49.45 10
    endloop
  endfacet
  facet normal 0 0 1
    outer loop
      vertex -81.5 5 10
      vertex -82 0 10
      vertex -81.5 0 10
    endloop
  endfacet
  facet normal 0 0 1
    outer loop
      vertex 0 52.5 10
      vertex -5 52 10
      vertex 0 52 10
    endloop
  endfacet
  facet normal 0 0 1
    outer loop
      vertex -5 52 10
      vertex -76.4014 50.5 10
      vertex -5 51 10
    endloop
  endfacet
  facet normal -0 0 1
    outer loop
      vertex -78.95 52.5 10
      vertex -5 52 10
      vertex 0 52.5 10
    endloop
  endfacet
  facet normal 0 0 1
    outer loop
      vertex -76.2216 50.2526 10
      vertex -76.6598 50.0117 10
      vertex -76.466 49.5222 10
    endloop
  endfacet
  facet normal 0 0 1
    outer loop
      vertex -76.4014 50.5 10
      vertex -76.9692 50.4375 10
      vertex -76.6598 50.0117 10
    endloop
  endfacet
  facet normal 0 0 1
    outer loop
      vertex -76.4014 50.5 10
      vertex -77.3748 50.7731 10
      vertex -76.9692 50.4375 10
    endloop
  endfacet
  facet normal 0 0 1
    outer loop
      vertex -5 52 10
      vertex -78.95 52.5 10
      vertex -76.4014 50.5 10
    endloop
  endfacet
  facet normal 0 0 1
    outer loop
      vertex -76.4014 50.5 10
      vertex -78.95 52.5 10
      vertex -77.3748 50.7731 10
    endloop
  endfacet
  facet normal 0 0 1
    outer loop
      vertex -77.3748 50.7731 10
      vertex -78.95 52.5 10
      vertex -77.8511 50.9972 10
    endloop
  endfacet
  facet normal -0 0 1
    outer loop
      vertex -78.95 52.4854 10
      vertex -77.8511 50.9972 10
      vertex -78.95 52.5 10
    endloop
  endfacet
  facet normal 0 0 1
    outer loop
      vertex -77.8511 50.9972 10
      vertex -78.95 52.4854 10
      vertex -78.3681 51.0959 10
    endloop
  endfacet
  facet normal 0 0 1
    outer loop
      vertex -78.3681 51.0959 10
      vertex -78.95 52.4854 10
      vertex -78.8935 51.0628 10
    endloop
  endfacet
  facet normal -0 0 1
    outer loop
      vertex -79.5621 52.4469 10
      vertex -78.8935 51.0628 10
      vertex -78.95 52.4854 10
    endloop
  endfacet
  facet normal 0 0 1
    outer loop
      vertex -78.8935 51.0628 10
      vertex -79.5621 52.4469 10
      vertex -79.3941 50.9001 10
    endloop
  endfacet
  facet normal -0 0 1
    outer loop
      vertex -80.2773 52.2145 10
      vertex -79.3941 50.9001 10
      vertex -79.5621 52.4469 10
    endloop
  endfacet
  facet normal 0 0 1
    outer loop
      vertex -79.3941 50.9001 10
      vertex -80.2773 52.2145 10
      vertex -79.8386 50.6181 10
    endloop
  endfacet
  facet normal -0 0 1
    outer loop
      vertex -80.9123 51.8115 10
      vertex -79.8386 50.6181 10
      vertex -80.2773 52.2145 10
    endloop
  endfacet
  facet normal -0 0 1
    outer loop
      vertex -81.427 51.2634 10
      vertex -79.8386 50.6181 10
      vertex -80.9123 51.8115 10
    endloop
  endfacet
  facet normal 0 0 1
    outer loop
      vertex -79.8386 50.6181 10
      vertex -81.427 51.2634 10
      vertex -80.1989 50.2343 10
    endloop
  endfacet
  facet normal 0 0 1
    outer loop
      vertex -80.1989 50.2343 10
      vertex -81.7893 50.6044 10
      vertex -80.4525 49.7731 10
    endloop
  endfacet
  facet normal -0 0 1
    outer loop
      vertex -81.7893 50.6044 10
      vertex -80.1989 50.2343 10
      vertex -81.427 51.2634 10
    endloop
  endfacet
  facet normal -0 0 1
    outer loop
      vertex -5 51 10
      vertex 0 50.5 10
      vertex 0 51 10
    endloop
  endfacet
  facet normal 0 0 1
    outer loop
      vertex 0 50.5 10
      vertex -5 51 10
      vertex -76.4014 50.5 10
    endloop
  endfacet
  facet normal 0 0 1
    outer loop
      vertex -76.4 49 10
      vertex -75.9 49 10
      vertex -75.9817 49.6466 10
    endloop
  endfacet
  facet normal 0 0 1
    outer loop
      vertex -76.466 49.5222 10
      vertex -75.9817 49.6466 10
      vertex -76.2216 50.2526 10
    endloop
  endfacet
  facet normal 0 0 1
    outer loop
      vertex -75.9 49 10
      vertex -76.4 49 10
      vertex -75.9817 48.3534 10
    endloop
  endfacet
  facet normal -0 0 1
    outer loop
      vertex -76.466 48.4778 10
      vertex -75.9817 48.3534 10
      vertex -76.4 49 10
    endloop
  endfacet
  facet normal 0 0 1
    outer loop
      vertex -76.6598 50.0117 10
      vertex -76.2216 50.2526 10
      vertex -76.4014 50.5 10
    endloop
  endfacet
  facet normal 0 0 1
    outer loop
      vertex -75.9817 49.6466 10
      vertex -76.466 49.5222 10
      vertex -76.4 49 10
    endloop
  endfacet
  facet normal 0 0 1
    outer loop
      vertex -75.9817 48.3534 10
      vertex -76.466 48.4778 10
      vertex -76.2216 47.7474 10
    endloop
  endfacet
  facet normal -0 0 1
    outer loop
      vertex -76.6598 47.9883 10
      vertex -76.2216 47.7474 10
      vertex -76.466 48.4778 10
    endloop
  endfacet
  facet normal 0 0 1
    outer loop
      vertex -76.2216 47.7474 10
      vertex -76.6598 47.9883 10
      vertex -76.6047 47.2202 10
    endloop
  endfacet
  facet normal -0 0 1
    outer loop
      vertex -76.9692 47.5625 10
      vertex -76.6047 47.2202 10
      vertex -76.6598 47.9883 10
    endloop
  endfacet
  facet normal 0 0 1
    outer loop
      vertex -76.9692 47.5625 10
      vertex -77.1068 46.8047 10
      vertex -76.6047 47.2202 10
    endloop
  endfacet
  facet normal -0 0 1
    outer loop
      vertex -77.3748 47.2269 10
      vertex -77.1068 46.8047 10
      vertex -76.9692 47.5625 10
    endloop
  endfacet
  facet normal 0 0 1
    outer loop
      vertex -77.3748 47.2269 10
      vertex -77.6966 46.5273 10
      vertex -77.1068 46.8047 10
    endloop
  endfacet
  facet normal -0 0 1
    outer loop
      vertex -77.8511 47.0028 10
      vertex -77.6966 46.5273 10
      vertex -77.3748 47.2269 10
    endloop
  endfacet
  facet normal 0 0 1
    outer loop
      vertex -77.8511 47.0028 10
      vertex -78.3367 46.4051 10
      vertex -77.6966 46.5273 10
    endloop
  endfacet
  facet normal -0 0 1
    outer loop
      vertex -78.3681 46.9041 10
      vertex -78.3367 46.4051 10
      vertex -77.8511 47.0028 10
    endloop
  endfacet
  facet normal 0 0 1
    outer loop
      vertex -78.8935 46.9372 10
      vertex -78.3367 46.4051 10
      vertex -78.3681 46.9041 10
    endloop
  endfacet
  facet normal 0 0 1
    outer loop
      vertex -78.8935 46.9372 10
      vertex -78.9872 46.4461 10
      vertex -78.3367 46.4051 10
    endloop
  endfacet
  facet normal 0 0 1
    outer loop
      vertex -79.3941 47.0999 10
      vertex -78.9872 46.4461 10
      vertex -78.8935 46.9372 10
    endloop
  endfacet
  facet normal 0 0 1
    outer loop
      vertex -79.3941 47.0999 10
      vertex -79.607 46.6474 10
      vertex -78.9872 46.4461 10
    endloop
  endfacet
  facet normal 0 0 1
    outer loop
      vertex -80 46.8968 10
      vertex -79.3941 47.0999 10
      vertex -79.8386 47.3819 10
    endloop
  endfacet
  facet normal 0 0 1
    outer loop
      vertex -79.3941 47.0999 10
      vertex -80 46.8968 10
      vertex -79.607 46.6474 10
    endloop
  endfacet
  facet normal 0 0 1
    outer loop
      vertex -80.1989 47.7657 10
      vertex -80 46.8968 10
      vertex -79.8386 47.3819 10
    endloop
  endfacet
  facet normal 0 0 1
    outer loop
      vertex -80.4525 48.2269 10
      vertex -80 46.8968 10
      vertex -80.1989 47.7657 10
    endloop
  endfacet
  facet normal 0 0 1
    outer loop
      vertex -80 46.8968 10
      vertex -80.4525 48.2269 10
      vertex -80.5 5 10
    endloop
  endfacet
  facet normal 0 0 1
    outer loop
      vertex -80 46.8968 10
      vertex -80.5 5 10
      vertex -80 0 10
    endloop
  endfacet
  facet normal 0 0 1
    outer loop
      vertex -80 0 10
      vertex -80.5 5 10
      vertex -80.5 0 10
    endloop
  endfacet
  facet normal 0 0 -1
    outer loop
      vertex -82 0 -10
      vertex -68.75 18.75 -10
      vertex -68.75 0 -10
    endloop
  endfacet
  facet normal 0 0 -1
    outer loop
      vertex -68.75 18.75 -10
      vertex -81.9763 49.45 -10
      vertex -78.95 52.4854 -10
    endloop
  endfacet
  facet normal 0 -0 -1
    outer loop
      vertex -80.2773 52.2145 -10
      vertex -78.95 52.4854 -10
      vertex -81.9763 49.45 -10
    endloop
  endfacet
  facet normal 0 0 -1
    outer loop
      vertex -78.95 52.4854 -10
      vertex -80.2773 52.2145 -10
      vertex -79.5621 52.4469 -10
    endloop
  endfacet
  facet normal 0 0 -1
    outer loop
      vertex -80.2773 52.2145 -10
      vertex -81.9763 49.45 -10
      vertex -80.9123 51.8115 -10
    endloop
  endfacet
  facet normal 0 0 -1
    outer loop
      vertex -80.9123 51.8115 -10
      vertex -81.9763 49.45 -10
      vertex -81.427 51.2634 -10
    endloop
  endfacet
  facet normal 0 0 -1
    outer loop
      vertex -81.427 51.2634 -10
      vertex -81.9763 49.45 -10
      vertex -81.7893 50.6044 -10
    endloop
  endfacet
  facet normal 0 0 -1
    outer loop
      vertex -82 49.45 -10
      vertex -68.75 18.75 -10
      vertex -82 0 -10
    endloop
  endfacet
  facet normal 0 0 -1
    outer loop
      vertex -68.75 18.75 -10
      vertex -82 49.45 -10
      vertex -81.9763 49.45 -10
    endloop
  endfacet
  facet normal 0 0 -1
    outer loop
      vertex -6.25 18.75 -10
      vertex 0 27.6 -10
      vertex 0 0 -10
    endloop
  endfacet
  facet normal 0 0 -1
    outer loop
      vertex -18.9162 30.8798 -10
      vertex -1.55 28 -10
      vertex -1.55 27.6 -10
    endloop
  endfacet
  facet normal 0 0 -1
    outer loop
      vertex -1.55 28 -10
      vertex -18.8 31.8 -10
      vertex -1.55 35.6 -10
    endloop
  endfacet
  facet normal -0 0 -1
    outer loop
      vertex 0 27.6 -10
      vertex -6.25 18.75 -10
      vertex -1.55 27.6 -10
    endloop
  endfacet
  facet normal 0 0 -1
    outer loop
      vertex -6.25 18.75 -10
      vertex 0 0 -10
      vertex -6.25 0 -10
    endloop
  endfacet
  facet normal 0 0 -1
    outer loop
      vertex -1.55 28 -10
      vertex 0 35.6 -10
      vertex 0 28 -10
    endloop
  endfacet
  facet normal -0 0 -1
    outer loop
      vertex 0 35.6 -10
      vertex -1.55 28 -10
      vertex -1.55 35.6 -10
    endloop
  endfacet
  facet normal 0 0 -1
    outer loop
      vertex -1.55 36 -10
      vertex 0 52.5 -10
      vertex 0 36 -10
    endloop
  endfacet
  facet normal 0 0 -1
    outer loop
      vertex -19.2577 30.0175 -10
      vertex -1.55 27.6 -10
      vertex -6.25 18.75 -10
    endloop
  endfacet
  facet normal 0 0 -1
    outer loop
      vertex -1.55 28 -10
      vertex -18.9162 30.8798 -10
      vertex -18.8 31.8 -10
    endloop
  endfacet
  facet normal 0 0 -1
    outer loop
      vertex -1.55 36 -10
      vertex -15.5 44 -10
      vertex 0 52.5 -10
    endloop
  endfacet
  facet normal 0 0 -1
    outer loop
      vertex -15.5 48 -10
      vertex 0 52.5 -10
      vertex -15.5 44 -10
    endloop
  endfacet
  facet normal 0 0 -1
    outer loop
      vertex -29.5 48 -10
      vertex 0 52.5 -10
      vertex -15.5 48 -10
    endloop
  endfacet
  facet normal 0 0 -1
    outer loop
      vertex -50.5 48 -10
      vertex -29.5 48 -10
      vertex -50.5 44 -10
    endloop
  endfacet
  facet normal 0 0 -1
    outer loop
      vertex -50.5 48 -10
      vertex 0 52.5 -10
      vertex -29.5 48 -10
    endloop
  endfacet
  facet normal 0 0 -1
    outer loop
      vertex -78.95 52.5 -10
      vertex -50.5 48 -10
      vertex -64.5 48 -10
    endloop
  endfacet
  facet normal 0 0 -1
    outer loop
      vertex -64.5 44 -10
      vertex -78.95 52.4854 -10
      vertex -64.5 48 -10
    endloop
  endfacet
  facet normal 0 0 -1
    outer loop
      vertex -78.95 52.5 -10
      vertex -64.5 48 -10
      vertex -78.95 52.4854 -10
    endloop
  endfacet
  facet normal 0 0 -1
    outer loop
      vertex -50.5 48 -10
      vertex -78.95 52.5 -10
      vertex 0 52.5 -10
    endloop
  endfacet
  facet normal 0 0 -1
    outer loop
      vertex -81.7893 50.6044 -10
      vertex -81.9763 49.45 -10
      vertex -81.9763 49.876 -10
    endloop
  endfacet
  facet normal -0 0 -1
    outer loop
      vertex -1.55 35.6 -10
      vertex -18.9162 32.7201 -10
      vertex -1.55 36 -10
    endloop
  endfacet
  facet normal 0 0 -1
    outer loop
      vertex -18.9162 32.7201 -10
      vertex -1.55 35.6 -10
      vertex -18.8 31.8 -10
    endloop
  endfacet
  facet normal 0 0 -1
    outer loop
      vertex -1.55 27.6 -10
      vertex -19.2577 30.0175 -10
      vertex -18.9162 30.8798 -10
    endloop
  endfacet
  facet normal 0 0 -1
    outer loop
      vertex -6.25 18.75 -10
      vertex -19.8028 29.2672 -10
      vertex -19.2577 30.0175 -10
    endloop
  endfacet
  facet normal 0 0 -1
    outer loop
      vertex -6.25 18.75 -10
      vertex -20.5174 28.676 -10
      vertex -19.8028 29.2672 -10
    endloop
  endfacet
  facet normal 0 0 -1
    outer loop
      vertex -6.25 18.75 -10
      vertex -21.3566 28.2811 -10
      vertex -20.5174 28.676 -10
    endloop
  endfacet
  facet normal 0 0 -1
    outer loop
      vertex -6.25 18.75 -10
      vertex -22.2677 28.1073 -10
      vertex -21.3566 28.2811 -10
    endloop
  endfacet
  facet normal 0 0 -1
    outer loop
      vertex -6.25 18.75 -10
      vertex -23.1933 28.1655 -10
      vertex -22.2677 28.1073 -10
    endloop
  endfacet
  facet normal 0 0 -1
    outer loop
      vertex -68.75 18.75 -10
      vertex -23.1933 28.1655 -10
      vertex -6.25 18.75 -10
    endloop
  endfacet
  facet normal 0 0 -1
    outer loop
      vertex -53.8 31.8 -10
      vertex -26.1708 32.2637 -10
      vertex -26.1708 31.3363 -10
    endloop
  endfacet
  facet normal 0 0 -1
    outer loop
      vertex -53.9162 30.8798 -10
      vertex -26.1708 31.3363 -10
      vertex -25.9402 30.4379 -10
    endloop
  endfacet
  facet normal 0 0 -1
    outer loop
      vertex -29.5 44 -10
      vertex -50.5 44 -10
      vertex -29.5 48 -10
    endloop
  endfacet
  facet normal 0 0 -1
    outer loop
      vertex -26.1708 32.2637 -10
      vertex -53.9162 32.7201 -10
      vertex -29.5 44 -10
    endloop
  endfacet
  facet normal 0 0 -1
    outer loop
      vertex -54.2577 30.0175 -10
      vertex -25.9402 30.4379 -10
      vertex -25.4934 29.6252 -10
    endloop
  endfacet
  facet normal 0 0 -1
    outer loop
      vertex -54.8028 29.2672 -10
      vertex -25.4934 29.6252 -10
      vertex -24.8585 28.9491 -10
    endloop
  endfacet
  facet normal 0 0 -1
    outer loop
      vertex -55.5174 28.676 -10
      vertex -24.8585 28.9491 -10
      vertex -24.0754 28.4521 -10
    endloop
  endfacet
  facet normal -0 0 -1
    outer loop
      vertex -26.1708 32.2637 -10
      vertex -53.8 31.8 -10
      vertex -53.9162 32.7201 -10
    endloop
  endfacet
  facet normal -0 0 -1
    outer loop
      vertex -23.1933 28.1655 -10
      vertex -68.75 18.75 -10
      vertex -24.0754 28.4521 -10
    endloop
  endfacet
  facet normal -0 0 -1
    outer loop
      vertex -26.1708 31.3363 -10
      vertex -53.9162 30.8798 -10
      vertex -53.8 31.8 -10
    endloop
  endfacet
  facet normal -0 0 -1
    outer loop
      vertex -25.9402 30.4379 -10
      vertex -54.2577 30.0175 -10
      vertex -53.9162 30.8798 -10
    endloop
  endfacet
  facet normal -0 0 -1
    outer loop
      vertex -25.4934 29.6252 -10
      vertex -54.8028 29.2672 -10
      vertex -54.2577 30.0175 -10
    endloop
  endfacet
  facet normal -0 0 -1
    outer loop
      vertex -24.8585 28.9491 -10
      vertex -55.5174 28.676 -10
      vertex -54.8028 29.2672 -10
    endloop
  endfacet
  facet normal -0 0 -1
    outer loop
      vertex -24.0754 28.4521 -10
      vertex -68.75 18.75 -10
      vertex -55.5174 28.676 -10
    endloop
  endfacet
  facet normal 0 0 -1
    outer loop
      vertex -55.5174 28.676 -10
      vertex -68.75 18.75 -10
      vertex -56.3566 28.2811 -10
    endloop
  endfacet
  facet normal 0 0 -1
    outer loop
      vertex -56.3566 28.2811 -10
      vertex -68.75 18.75 -10
      vertex -57.2677 28.1073 -10
    endloop
  endfacet
  facet normal 0 0 -1
    outer loop
      vertex -68.75 18.75 -10
      vertex -61.1708 32.2637 -10
      vertex -61.1708 31.3363 -10
    endloop
  endfacet
  facet normal 0 0 -1
    outer loop
      vertex -68.75 18.75 -10
      vertex -61.1708 31.3363 -10
      vertex -60.9402 30.4379 -10
    endloop
  endfacet
  facet normal 0 0 -1
    outer loop
      vertex -78.95 52.4854 -10
      vertex -64.5 44 -10
      vertex -68.75 18.75 -10
    endloop
  endfacet
  facet normal -0 0 -1
    outer loop
      vertex -61.1708 32.2637 -10
      vertex -68.75 18.75 -10
      vertex -64.5 44 -10
    endloop
  endfacet
  facet normal -0 0 -1
    outer loop
      vertex -60.4934 29.6252 -10
      vertex -68.75 18.75 -10
      vertex -60.9402 30.4379 -10
    endloop
  endfacet
  facet normal -0 0 -1
    outer loop
      vertex -59.8585 28.9491 -10
      vertex -68.75 18.75 -10
      vertex -60.4934 29.6252 -10
    endloop
  endfacet
  facet normal -0 0 -1
    outer loop
      vertex -59.0754 28.4521 -10
      vertex -68.75 18.75 -10
      vertex -59.8585 28.9491 -10
    endloop
  endfacet
  facet normal -0 0 -1
    outer loop
      vertex -58.1933 28.1655 -10
      vertex -68.75 18.75 -10
      vertex -59.0754 28.4521 -10
    endloop
  endfacet
  facet normal -0 0 -1
    outer loop
      vertex -57.2677 28.1073 -10
      vertex -68.75 18.75 -10
      vertex -58.1933 28.1655 -10
    endloop
  endfacet
  facet normal -0 0 -1
    outer loop
      vertex -1.55 36 -10
      vertex -18.9162 32.7201 -10
      vertex -15.5 44 -10
    endloop
  endfacet
  facet normal 0 0 -1
    outer loop
      vertex -19.2577 33.5825 -10
      vertex -15.5 44 -10
      vertex -18.9162 32.7201 -10
    endloop
  endfacet
  facet normal 0 0 -1
    outer loop
      vertex -19.8028 34.3328 -10
      vertex -15.5 44 -10
      vertex -19.2577 33.5825 -10
    endloop
  endfacet
  facet normal 0 0 -1
    outer loop
      vertex -20.5174 34.924 -10
      vertex -15.5 44 -10
      vertex -19.8028 34.3328 -10
    endloop
  endfacet
  facet normal 0 0 -1
    outer loop
      vertex -21.3566 35.3189 -10
      vertex -15.5 44 -10
      vertex -20.5174 34.924 -10
    endloop
  endfacet
  facet normal 0 0 -1
    outer loop
      vertex -22.2677 35.4927 -10
      vertex -15.5 44 -10
      vertex -21.3566 35.3189 -10
    endloop
  endfacet
  facet normal 0 0 -1
    outer loop
      vertex -29.5 44 -10
      vertex -22.2677 35.4927 -10
      vertex -23.1933 35.4345 -10
    endloop
  endfacet
  facet normal 0 0 -1
    outer loop
      vertex -29.5 44 -10
      vertex -23.1933 35.4345 -10
      vertex -24.0754 35.1479 -10
    endloop
  endfacet
  facet normal 0 0 -1
    outer loop
      vertex -29.5 44 -10
      vertex -24.0754 35.1479 -10
      vertex -24.8585 34.6509 -10
    endloop
  endfacet
  facet normal 0 0 -1
    outer loop
      vertex -22.2677 35.4927 -10
      vertex -29.5 44 -10
      vertex -15.5 44 -10
    endloop
  endfacet
  facet normal 0 0 -1
    outer loop
      vertex -25.4934 33.9748 -10
      vertex -29.5 44 -10
      vertex -24.8585 34.6509 -10
    endloop
  endfacet
  facet normal 0 0 -1
    outer loop
      vertex -25.9402 33.1621 -10
      vertex -29.5 44 -10
      vertex -25.4934 33.9748 -10
    endloop
  endfacet
  facet normal 0 0 -1
    outer loop
      vertex -29.5 44 -10
      vertex -25.9402 33.1621 -10
      vertex -26.1708 32.2637 -10
    endloop
  endfacet
  facet normal -0 0 -1
    outer loop
      vertex -29.5 44 -10
      vertex -53.9162 32.7201 -10
      vertex -50.5 44 -10
    endloop
  endfacet
  facet normal 0 0 -1
    outer loop
      vertex -54.2577 33.5825 -10
      vertex -50.5 44 -10
      vertex -53.9162 32.7201 -10
    endloop
  endfacet
  facet normal 0 0 -1
    outer loop
      vertex -54.8028 34.3328 -10
      vertex -50.5 44 -10
      vertex -54.2577 33.5825 -10
    endloop
  endfacet
  facet normal 0 0 -1
    outer loop
      vertex -55.5174 34.924 -10
      vertex -50.5 44 -10
      vertex -54.8028 34.3328 -10
    endloop
  endfacet
  facet normal 0 0 -1
    outer loop
      vertex -56.3566 35.3189 -10
      vertex -50.5 44 -10
      vertex -55.5174 34.924 -10
    endloop
  endfacet
  facet normal 0 0 -1
    outer loop
      vertex -57.2677 35.4927 -10
      vertex -50.5 44 -10
      vertex -56.3566 35.3189 -10
    endloop
  endfacet
  facet normal 0 0 -1
    outer loop
      vertex -64.5 44 -10
      vertex -57.2677 35.4927 -10
      vertex -58.1933 35.4345 -10
    endloop
  endfacet
  facet normal 0 0 -1
    outer loop
      vertex -64.5 44 -10
      vertex -58.1933 35.4345 -10
      vertex -59.0754 35.1479 -10
    endloop
  endfacet
  facet normal 0 0 -1
    outer loop
      vertex -64.5 44 -10
      vertex -59.0754 35.1479 -10
      vertex -59.8585 34.6509 -10
    endloop
  endfacet
  facet normal 0 0 -1
    outer loop
      vertex -57.2677 35.4927 -10
      vertex -64.5 44 -10
      vertex -50.5 44 -10
    endloop
  endfacet
  facet normal 0 0 -1
    outer loop
      vertex -60.4934 33.9748 -10
      vertex -64.5 44 -10
      vertex -59.8585 34.6509 -10
    endloop
  endfacet
  facet normal 0 0 -1
    outer loop
      vertex -60.9402 33.1621 -10
      vertex -64.5 44 -10
      vertex -60.4934 33.9748 -10
    endloop
  endfacet
  facet normal 0 0 -1
    outer loop
      vertex -64.5 44 -10
      vertex -60.9402 33.1621 -10
      vertex -61.1708 32.2637 -10
    endloop
  endfacet
  facet normal -1 0 0
    outer loop
      vertex -82 0 -10
      vertex -82 49.45 10
      vertex -82 49.45 -10
    endloop
  endfacet
  facet normal -1 -0 0
    outer loop
      vertex -82 49.45 10
      vertex -82 0 -10
      vertex -82 0 10
    endloop
  endfacet
  facet normal 0 1 -0
    outer loop
      vertex 0 52.5 -10
      vertex -78.95 52.5 10
      vertex 0 52.5 10
    endloop
  endfacet
  facet normal 0 1 0
    outer loop
      vertex -78.95 52.5 10
      vertex 0 52.5 -10
      vertex -78.95 52.5 -10
    endloop
  endfacet
  facet normal 0 0 1
    outer loop
      vertex -31.5 50.5 -7
      vertex -48.5 50.5 -7
      vertex -31.5 42 -7
    endloop
  endfacet
  facet normal -0 0 1
    outer loop
      vertex -75.9817 48.3534 -7
      vertex -66.5 42 -7
      vertex -66.5 50.5 -7
    endloop
  endfacet
  facet normal 0 0 1
    outer loop
      vertex -66.5 42 -7
      vertex -75.9817 48.3534 -7
      vertex -76.2216 47.7474 -7
    endloop
  endfacet
  facet normal 0 0 1
    outer loop
      vertex -75.9817 48.3534 -7
      vertex -66.5 50.5 -7
      vertex -75.9 49 -7
    endloop
  endfacet
  facet normal 0 0 1
    outer loop
      vertex -66.5 50.5 -7
      vertex -75.9817 49.6466 -7
      vertex -75.9 49 -7
    endloop
  endfacet
  facet normal 0 0 1
    outer loop
      vertex -66.5 50.5 -7
      vertex -76.2216 50.2526 -7
      vertex -75.9817 49.6466 -7
    endloop
  endfacet
  facet normal 0 -0 1
    outer loop
      vertex -76.2216 50.2526 -7
      vertex -66.5 50.5 -7
      vertex -76.4014 50.5 -7
    endloop
  endfacet
  facet normal 0 0 1
    outer loop
      vertex -66.5 42 -7
      vertex -76.2216 47.7474 -7
      vertex -76.6047 47.2202 -7
    endloop
  endfacet
  facet normal 0 0 1
    outer loop
      vertex -66.5 42 -7
      vertex -76.6047 47.2202 -7
      vertex -77.1068 46.8047 -7
    endloop
  endfacet
  facet normal -0 0 1
    outer loop
      vertex -77.6966 46.5273 -7
      vertex -66.5 42 -7
      vertex -77.1068 46.8047 -7
    endloop
  endfacet
  facet normal -0 0 1
    outer loop
      vertex -78.3367 46.4051 -7
      vertex -66.5 42 -7
      vertex -77.6966 46.5273 -7
    endloop
  endfacet
  facet normal 0 0 1
    outer loop
      vertex -66.5 42 -7
      vertex -78.3367 46.4051 -7
      vertex -68.75 18.75 -7
    endloop
  endfacet
  facet normal 0 0 1
    outer loop
      vertex -78.9872 46.4461 -7
      vertex -68.75 18.75 -7
      vertex -78.3367 46.4051 -7
    endloop
  endfacet
  facet normal 0 0 1
    outer loop
      vertex -79.607 46.6474 -7
      vertex -68.75 18.75 -7
      vertex -78.9872 46.4461 -7
    endloop
  endfacet
  facet normal 0 0 1
    outer loop
      vertex -80 46.8968 -7
      vertex -68.75 18.75 -7
      vertex -79.607 46.6474 -7
    endloop
  endfacet
  facet normal 0 0 1
    outer loop
      vertex -68.75 18.75 -7
      vertex -80 46.8968 -7
      vertex -80 0 -7
    endloop
  endfacet
  facet normal 0 0 1
    outer loop
      vertex -68.75 18.75 -7
      vertex -80 0 -7
      vertex -68.75 0 -7
    endloop
  endfacet
  facet normal 0 0 1
    outer loop
      vertex -48.5 42 -7
      vertex -53.9162 32.7201 -7
      vertex -53.8 31.8 -7
    endloop
  endfacet
  facet normal 0 0 1
    outer loop
      vertex -48.5 42 -7
      vertex -54.2577 33.5825 -7
      vertex -53.9162 32.7201 -7
    endloop
  endfacet
  facet normal 0 0 1
    outer loop
      vertex -48.5 42 -7
      vertex -54.8028 34.3328 -7
      vertex -54.2577 33.5825 -7
    endloop
  endfacet
  facet normal 0 0 1
    outer loop
      vertex -48.5 42 -7
      vertex -55.5174 34.924 -7
      vertex -54.8028 34.3328 -7
    endloop
  endfacet
  facet normal 0 0 1
    outer loop
      vertex -48.5 42 -7
      vertex -56.3566 35.3189 -7
      vertex -55.5174 34.924 -7
    endloop
  endfacet
  facet normal 0 0 1
    outer loop
      vertex -48.5 42 -7
      vertex -57.2677 35.4927 -7
      vertex -56.3566 35.3189 -7
    endloop
  endfacet
  facet normal -0 0 1
    outer loop
      vertex -66.5 42 -7
      vertex -57.2677 35.4927 -7
      vertex -48.5 42 -7
    endloop
  endfacet
  facet normal 0 0 1
    outer loop
      vertex -57.2677 35.4927 -7
      vertex -66.5 42 -7
      vertex -58.1933 35.4345 -7
    endloop
  endfacet
  facet normal 0 0 1
    outer loop
      vertex -58.1933 35.4345 -7
      vertex -66.5 42 -7
      vertex -59.0754 35.1479 -7
    endloop
  endfacet
  facet normal 0 0 1
    outer loop
      vertex -61.1708 32.2637 -7
      vertex -66.5 42 -7
      vertex -61.1708 31.3363 -7
    endloop
  endfacet
  facet normal 0 0 1
    outer loop
      vertex -60.9402 33.1621 -7
      vertex -66.5 42 -7
      vertex -61.1708 32.2637 -7
    endloop
  endfacet
  facet normal 0 0 1
    outer loop
      vertex -60.4934 33.9748 -7
      vertex -66.5 42 -7
      vertex -60.9402 33.1621 -7
    endloop
  endfacet
  facet normal 0 0 1
    outer loop
      vertex -59.8585 34.6509 -7
      vertex -66.5 42 -7
      vertex -60.4934 33.9748 -7
    endloop
  endfacet
  facet normal 0 0 1
    outer loop
      vertex -59.0754 35.1479 -7
      vertex -66.5 42 -7
      vertex -59.8585 34.6509 -7
    endloop
  endfacet
  facet normal 0 0 1
    outer loop
      vertex -1.55 35.6 -7
      vertex -18.9162 32.7201 -7
      vertex -18.8 31.8 -7
    endloop
  endfacet
  facet normal 0 0 1
    outer loop
      vertex -13.5 42 -7
      vertex -19.2577 33.5825 -7
      vertex -18.9162 32.7201 -7
    endloop
  endfacet
  facet normal 0 0 1
    outer loop
      vertex -13.5 42 -7
      vertex -19.8028 34.3328 -7
      vertex -19.2577 33.5825 -7
    endloop
  endfacet
  facet normal 0 0 1
    outer loop
      vertex -13.5 42 -7
      vertex -20.5174 34.924 -7
      vertex -19.8028 34.3328 -7
    endloop
  endfacet
  facet normal 0 0 1
    outer loop
      vertex -13.5 42 -7
      vertex -21.3566 35.3189 -7
      vertex -20.5174 34.924 -7
    endloop
  endfacet
  facet normal 0 0 1
    outer loop
      vertex -13.5 42 -7
      vertex -22.2677 35.4927 -7
      vertex -21.3566 35.3189 -7
    endloop
  endfacet
  facet normal -0 0 1
    outer loop
      vertex -31.5 42 -7
      vertex -22.2677 35.4927 -7
      vertex -13.5 42 -7
    endloop
  endfacet
  facet normal 0 0 1
    outer loop
      vertex -22.2677 35.4927 -7
      vertex -31.5 42 -7
      vertex -23.1933 35.4345 -7
    endloop
  endfacet
  facet normal 0 0 1
    outer loop
      vertex -23.1933 35.4345 -7
      vertex -31.5 42 -7
      vertex -24.0754 35.1479 -7
    endloop
  endfacet
  facet normal 0 0 1
    outer loop
      vertex -26.1708 32.2637 -7
      vertex -31.5 42 -7
      vertex -26.1708 31.3363 -7
    endloop
  endfacet
  facet normal 0 0 1
    outer loop
      vertex -25.9402 33.1621 -7
      vertex -31.5 42 -7
      vertex -26.1708 32.2637 -7
    endloop
  endfacet
  facet normal 0 0 1
    outer loop
      vertex -25.4934 33.9748 -7
      vertex -31.5 42 -7
      vertex -25.9402 33.1621 -7
    endloop
  endfacet
  facet normal 0 0 1
    outer loop
      vertex -24.8585 34.6509 -7
      vertex -31.5 42 -7
      vertex -25.4934 33.9748 -7
    endloop
  endfacet
  facet normal 0 0 1
    outer loop
      vertex -24.0754 35.1479 -7
      vertex -31.5 42 -7
      vertex -24.8585 34.6509 -7
    endloop
  endfacet
  facet normal 0 0 1
    outer loop
      vertex 0 50.5 -7
      vertex -1.55 36 -7
      vertex 0 36 -7
    endloop
  endfacet
  facet normal 0 0 1
    outer loop
      vertex -13.5 42 -7
      vertex -1.55 35.6 -7
      vertex -1.55 36 -7
    endloop
  endfacet
  facet normal 0 0 1
    outer loop
      vertex -1.55 35.6 -7
      vertex -18.8 31.8 -7
      vertex -1.55 28 -7
    endloop
  endfacet
  facet normal -0 0 1
    outer loop
      vertex -18.9162 30.8798 -7
      vertex -1.55 28 -7
      vertex -18.8 31.8 -7
    endloop
  endfacet
  facet normal -0 0 1
    outer loop
      vertex -13.5 42 -7
      vertex -1.55 36 -7
      vertex 0 50.5 -7
    endloop
  endfacet
  facet normal 0 0 1
    outer loop
      vertex -13.5 42 -7
      vertex 0 50.5 -7
      vertex -13.5 50.5 -7
    endloop
  endfacet
  facet normal 0 0 1
    outer loop
      vertex -18.9162 32.7201 -7
      vertex -1.55 35.6 -7
      vertex -13.5 42 -7
    endloop
  endfacet
  facet normal 0 0 1
    outer loop
      vertex -1.55 28 -7
      vertex -18.9162 30.8798 -7
      vertex -1.55 27.6 -7
    endloop
  endfacet
  facet normal -0 0 1
    outer loop
      vertex -19.2577 30.0175 -7
      vertex -1.55 27.6 -7
      vertex -18.9162 30.8798 -7
    endloop
  endfacet
  facet normal 0 0 1
    outer loop
      vertex -1.55 27.6 -7
      vertex -19.2577 30.0175 -7
      vertex -6.25 18.75 -7
    endloop
  endfacet
  facet normal -0 0 1
    outer loop
      vertex -19.8028 29.2672 -7
      vertex -6.25 18.75 -7
      vertex -19.2577 30.0175 -7
    endloop
  endfacet
  facet normal -0 0 1
    outer loop
      vertex -20.5174 28.676 -7
      vertex -6.25 18.75 -7
      vertex -19.8028 29.2672 -7
    endloop
  endfacet
  facet normal -0 0 1
    outer loop
      vertex -21.3566 28.2811 -7
      vertex -6.25 18.75 -7
      vertex -20.5174 28.676 -7
    endloop
  endfacet
  facet normal -0 0 1
    outer loop
      vertex -22.2677 28.1073 -7
      vertex -6.25 18.75 -7
      vertex -21.3566 28.2811 -7
    endloop
  endfacet
  facet normal 0 0 1
    outer loop
      vertex -23.1933 28.1655 -7
      vertex -6.25 18.75 -7
      vertex -22.2677 28.1073 -7
    endloop
  endfacet
  facet normal 0 0 1
    outer loop
      vertex -68.75 18.75 -7
      vertex -23.1933 28.1655 -7
      vertex -24.0754 28.4521 -7
    endloop
  endfacet
  facet normal -0 0 1
    outer loop
      vertex -53.8 31.8 -7
      vertex -26.1708 31.3363 -7
      vertex -31.5 42 -7
    endloop
  endfacet
  facet normal 0 0 1
    outer loop
      vertex -48.5 42 -7
      vertex -31.5 42 -7
      vertex -48.5 50.5 -7
    endloop
  endfacet
  facet normal 0 0 1
    outer loop
      vertex -53.8 31.8 -7
      vertex -31.5 42 -7
      vertex -48.5 42 -7
    endloop
  endfacet
  facet normal 0 0 1
    outer loop
      vertex -53.9162 30.8798 -7
      vertex -26.1708 31.3363 -7
      vertex -53.8 31.8 -7
    endloop
  endfacet
  facet normal 0 0 1
    outer loop
      vertex -26.1708 31.3363 -7
      vertex -53.9162 30.8798 -7
      vertex -25.9402 30.4379 -7
    endloop
  endfacet
  facet normal 0 0 1
    outer loop
      vertex -54.2577 30.0175 -7
      vertex -25.9402 30.4379 -7
      vertex -53.9162 30.8798 -7
    endloop
  endfacet
  facet normal 0 0 1
    outer loop
      vertex -25.9402 30.4379 -7
      vertex -54.2577 30.0175 -7
      vertex -25.4934 29.6252 -7
    endloop
  endfacet
  facet normal 0 0 1
    outer loop
      vertex -54.8028 29.2672 -7
      vertex -25.4934 29.6252 -7
      vertex -54.2577 30.0175 -7
    endloop
  endfacet
  facet normal 0 0 1
    outer loop
      vertex -25.4934 29.6252 -7
      vertex -54.8028 29.2672 -7
      vertex -24.8585 28.9491 -7
    endloop
  endfacet
  facet normal 0 0 1
    outer loop
      vertex -55.5174 28.676 -7
      vertex -24.8585 28.9491 -7
      vertex -54.8028 29.2672 -7
    endloop
  endfacet
  facet normal 0 0 1
    outer loop
      vertex -24.8585 28.9491 -7
      vertex -55.5174 28.676 -7
      vertex -24.0754 28.4521 -7
    endloop
  endfacet
  facet normal 0 0 1
    outer loop
      vertex -68.75 18.75 -7
      vertex -24.0754 28.4521 -7
      vertex -55.5174 28.676 -7
    endloop
  endfacet
  facet normal 0 0 1
    outer loop
      vertex -68.75 18.75 -7
      vertex -55.5174 28.676 -7
      vertex -56.3566 28.2811 -7
    endloop
  endfacet
  facet normal 0 0 1
    outer loop
      vertex -68.75 18.75 -7
      vertex -56.3566 28.2811 -7
      vertex -57.2677 28.1073 -7
    endloop
  endfacet
  facet normal 0 0 1
    outer loop
      vertex -68.75 18.75 -7
      vertex -57.2677 28.1073 -7
      vertex -58.1933 28.1655 -7
    endloop
  endfacet
  facet normal 0 0 1
    outer loop
      vertex -68.75 18.75 -7
      vertex -61.1708 31.3363 -7
      vertex -66.5 42 -7
    endloop
  endfacet
  facet normal 0 0 1
    outer loop
      vertex -23.1933 28.1655 -7
      vertex -68.75 18.75 -7
      vertex -6.25 18.75 -7
    endloop
  endfacet
  facet normal 0 0 1
    outer loop
      vertex -59.0754 28.4521 -7
      vertex -68.75 18.75 -7
      vertex -58.1933 28.1655 -7
    endloop
  endfacet
  facet normal 0 0 1
    outer loop
      vertex -59.8585 28.9491 -7
      vertex -68.75 18.75 -7
      vertex -59.0754 28.4521 -7
    endloop
  endfacet
  facet normal 0 0 1
    outer loop
      vertex -60.4934 29.6252 -7
      vertex -68.75 18.75 -7
      vertex -59.8585 28.9491 -7
    endloop
  endfacet
  facet normal 0 0 1
    outer loop
      vertex -60.9402 30.4379 -7
      vertex -68.75 18.75 -7
      vertex -60.4934 29.6252 -7
    endloop
  endfacet
  facet normal 0 0 1
    outer loop
      vertex -61.1708 31.3363 -7
      vertex -68.75 18.75 -7
      vertex -60.9402 30.4379 -7
    endloop
  endfacet
  facet normal -0 0 1
    outer loop
      vertex -1.55 35.6 -7
      vertex 0 28 -7
      vertex 0 35.6 -7
    endloop
  endfacet
  facet normal 0 0 1
    outer loop
      vertex 0 28 -7
      vertex -1.55 35.6 -7
      vertex -1.55 28 -7
    endloop
  endfacet
  facet normal 0 0 1
    outer loop
      vertex 0 27.6 -7
      vertex -1.25 9.6375 -7
      vertex 0 0 -7
    endloop
  endfacet
  facet normal 0 0 1
    outer loop
      vertex -6.25 18.75 -7
      vertex 0 27.6 -7
      vertex -1.55 27.6 -7
    endloop
  endfacet
  facet normal 0 0 1
    outer loop
      vertex 0 27.6 -7
      vertex -6.25 18.75 -7
      vertex -1.25 9.6375 -7
    endloop
  endfacet
  facet normal 0 0 1
    outer loop
      vertex -1.25 9.6375 -7
      vertex -6.25 18.75 -7
      vertex -6.25 9.6375 -7
    endloop
  endfacet
  facet normal 0 0 1
    outer loop
      vertex 0 0 -7
      vertex -1.25 9.6375 -7
      vertex -1.25 0 -7
    endloop
  endfacet
  facet normal 0 0 1
    outer loop
      vertex -49.5 50.5 -7
      vertex -50.5 48 -7
      vertex -49.5 43 -7
    endloop
  endfacet
  facet normal 0 0 1
    outer loop
      vertex -49.5 50.5 -7
      vertex -64.5 48 -7
      vertex -50.5 48 -7
    endloop
  endfacet
  facet normal 0 0 1
    outer loop
      vertex -65.5 43 -7
      vertex -64.5 48 -7
      vertex -65.5 50.5 -7
    endloop
  endfacet
  facet normal -0 0 1
    outer loop
      vertex -65.5 50.5 -7
      vertex -64.5 48 -7
      vertex -49.5 50.5 -7
    endloop
  endfacet
  facet normal -0 0 1
    outer loop
      vertex -50.5 44 -7
      vertex -49.5 43 -7
      vertex -50.5 48 -7
    endloop
  endfacet
  facet normal -0 0 1
    outer loop
      vertex -64.5 44 -7
      vertex -49.5 43 -7
      vertex -50.5 44 -7
    endloop
  endfacet
  facet normal 0 0 1
    outer loop
      vertex -64.5 44 -7
      vertex -65.5 43 -7
      vertex -49.5 43 -7
    endloop
  endfacet
  facet normal 0 0 1
    outer loop
      vertex -64.5 48 -7
      vertex -65.5 43 -7
      vertex -64.5 44 -7
    endloop
  endfacet
  facet normal 0 0 1
    outer loop
      vertex -14.5 50.5 -7
      vertex -15.5 48 -7
      vertex -14.5 43 -7
    endloop
  endfacet
  facet normal 0 0 1
    outer loop
      vertex -14.5 50.5 -7
      vertex -29.5 48 -7
      vertex -15.5 48 -7
    endloop
  endfacet
  facet normal 0 0 1
    outer loop
      vertex -30.5 43 -7
      vertex -29.5 48 -7
      vertex -30.5 50.5 -7
    endloop
  endfacet
  facet normal -0 0 1
    outer loop
      vertex -30.5 50.5 -7
      vertex -29.5 48 -7
      vertex -14.5 50.5 -7
    endloop
  endfacet
  facet normal -0 0 1
    outer loop
      vertex -15.5 44 -7
      vertex -14.5 43 -7
      vertex -15.5 48 -7
    endloop
  endfacet
  facet normal -0 0 1
    outer loop
      vertex -29.5 44 -7
      vertex -14.5 43 -7
      vertex -15.5 44 -7
    endloop
  endfacet
  facet normal 0 0 1
    outer loop
      vertex -29.5 44 -7
      vertex -30.5 43 -7
      vertex -14.5 43 -7
    endloop
  endfacet
  facet normal 0 0 1
    outer loop
      vertex -29.5 48 -7
      vertex -30.5 43 -7
      vertex -29.5 44 -7
    endloop
  endfacet
  facet normal 1 -0 0
    outer loop
      vertex -80 0 10
      vertex -80 46.8968 -7
      vertex -80 46.8968 10
    endloop
  endfacet
  facet normal 1 0 0
    outer loop
      vertex -80 46.8968 -7
      vertex -80 0 10
      vertex -80 0 -7
    endloop
  endfacet
  facet normal 0 -1 0
    outer loop
      vertex -30.5 50.5 -7
      vertex -14.5 50.5 -1
      vertex -30.5 50.5 -1
    endloop
  endfacet
  facet normal 0 -1 -0
    outer loop
      vertex -14.5 50.5 -1
      vertex -30.5 50.5 -7
      vertex -14.5 50.5 -7
    endloop
  endfacet
  facet normal 0 -1 0
    outer loop
      vertex -48.5 50.5 -7
      vertex -31.5 50.5 -1
      vertex -48.5 50.5 -1
    endloop
  endfacet
  facet normal 0 -1 -0
    outer loop
      vertex -31.5 50.5 -1
      vertex -48.5 50.5 -7
      vertex -31.5 50.5 -7
    endloop
  endfacet
  facet normal 0 -1 0
    outer loop
      vertex -65.5 50.5 -7
      vertex -49.5 50.5 -1
      vertex -65.5 50.5 -1
    endloop
  endfacet
  facet normal 0 -1 -0
    outer loop
      vertex -49.5 50.5 -1
      vertex -65.5 50.5 -7
      vertex -49.5 50.5 -7
    endloop
  endfacet
  facet normal 0 -1 0
    outer loop
      vertex -65.5 50.5 -1
      vertex -76.4014 50.5 10
      vertex -66.5 50.5 -1
    endloop
  endfacet
  facet normal 0 -1 0
    outer loop
      vertex -76.4014 50.5 -7
      vertex -66.5 50.5 -1
      vertex -76.4014 50.5 10
    endloop
  endfacet
  facet normal 0 -1 -0
    outer loop
      vertex -66.5 50.5 -1
      vertex -76.4014 50.5 -7
      vertex -66.5 50.5 -7
    endloop
  endfacet
  facet normal 0 -1 0
    outer loop
      vertex -49.5 50.5 -1
      vertex -76.4014 50.5 10
      vertex -65.5 50.5 -1
    endloop
  endfacet
  facet normal 0 -1 0
    outer loop
      vertex -48.5 50.5 -1
      vertex -76.4014 50.5 10
      vertex -49.5 50.5 -1
    endloop
  endfacet
  facet normal 0 -1 0
    outer loop
      vertex -31.5 50.5 -1
      vertex -76.4014 50.5 10
      vertex -48.5 50.5 -1
    endloop
  endfacet
  facet normal 0 -1 0
    outer loop
      vertex -76.4014 50.5 10
      vertex -31.5 50.5 -1
      vertex 0 50.5 10
    endloop
  endfacet
  facet normal 0 -1 0
    outer loop
      vertex -30.5 50.5 -1
      vertex 0 50.5 10
      vertex -31.5 50.5 -1
    endloop
  endfacet
  facet normal 0 -1 0
    outer loop
      vertex -14.5 50.5 -1
      vertex 0 50.5 10
      vertex -30.5 50.5 -1
    endloop
  endfacet
  facet normal 0 -1 0
    outer loop
      vertex -13.5 50.5 -1
      vertex 0 50.5 10
      vertex -14.5 50.5 -1
    endloop
  endfacet
  facet normal 0 -1 0
    outer loop
      vertex 0 50.5 -7
      vertex -13.5 50.5 -1
      vertex -13.5 50.5 -7
    endloop
  endfacet
  facet normal 0 -1 0
    outer loop
      vertex -13.5 50.5 -1
      vertex 0 50.5 -7
      vertex 0 50.5 10
    endloop
  endfacet
  facet normal -1 0 0
    outer loop
      vertex -6.25 18.75 -10
      vertex -6.25 9.6375 -9
      vertex -6.25 18.75 -7
    endloop
  endfacet
  facet normal -1 0 0
    outer loop
      vertex -6.25 0 -10
      vertex -6.25 9.6375 -9
      vertex -6.25 18.75 -10
    endloop
  endfacet
  facet normal -1 -0 0
    outer loop
      vertex -6.25 9.6375 -9
      vertex -6.25 0 -10
      vertex -6.25 0 -9
    endloop
  endfacet
  facet normal -1 -0 0
    outer loop
      vertex -6.25 18.75 -7
      vertex -6.25 9.6375 -9
      vertex -6.25 9.6375 -7
    endloop
  endfacet
  facet normal 1 -0 0
    outer loop
      vertex -68.75 0 -7
      vertex -68.75 18.75 -10
      vertex -68.75 18.75 -7
    endloop
  endfacet
  facet normal 1 0 0
    outer loop
      vertex -68.75 18.75 -10
      vertex -68.75 0 -7
      vertex -68.75 0 -10
    endloop
  endfacet
  facet normal 0 -1 0
    outer loop
      vertex -68.75 18.75 -10
      vertex -6.25 18.75 -7
      vertex -68.75 18.75 -7
    endloop
  endfacet
  facet normal 0 -1 -0
    outer loop
      vertex -6.25 18.75 -7
      vertex -68.75 18.75 -10
      vertex -6.25 18.75 -10
    endloop
  endfacet
  facet normal -1 0 0
    outer loop
      vertex -1.25 0 -9
      vertex -1.25 9.6375 -7
      vertex -1.25 9.6375 -9
    endloop
  endfacet
  facet normal -1 -0 0
    outer loop
      vertex -1.25 9.6375 -7
      vertex -1.25 0 -9
      vertex -1.25 0 -7
    endloop
  endfacet
  facet normal -0 0 1
    outer loop
      vertex -6.25 9.6375 -9
      vertex -1.25 0 -9
      vertex -1.25 9.6375 -9
    endloop
  endfacet
  facet normal 0 0 1
    outer loop
      vertex -1.25 0 -9
      vertex -6.25 9.6375 -9
      vertex -6.25 0 -9
    endloop
  endfacet
  facet normal 0 -1 0
    outer loop
      vertex -6.25 9.6375 -9
      vertex -1.25 9.6375 -7
      vertex -6.25 9.6375 -7
    endloop
  endfacet
  facet normal 0 -1 -0
    outer loop
      vertex -1.25 9.6375 -7
      vertex -6.25 9.6375 -9
      vertex -1.25 9.6375 -9
    endloop
  endfacet
  facet normal 0.728979 -0.684536 0
    outer loop
      vertex -79.8386 50.6181 10
      vertex -79.9495 50.5 6
      vertex -79.8386 50.6181 6
    endloop
  endfacet
  facet normal 0.729114 -0.684392 -8.02975e-06
    outer loop
      vertex -79.8386 50.6181 10
      vertex -80 50.4462 6
      vertex -79.9495 50.5 6
    endloop
  endfacet
  facet normal 0.729075 -0.684434 -4.63033e-06
    outer loop
      vertex -80.1989 50.2343 10
      vertex -80 50.4462 6
      vertex -79.8386 50.6181 10
    endloop
  endfacet
  facet normal 0.729119 -0.684387 0
    outer loop
      vertex -80 50.4462 6
      vertex -80.1989 50.2343 10
      vertex -80.1989 50.2343 6
    endloop
  endfacet
  facet normal 0.062875 -0.998021 0
    outer loop
      vertex -78.8935 51.0628 6
      vertex -78.3681 51.0959 10
      vertex -78.8935 51.0628 10
    endloop
  endfacet
  facet normal 0.062875 -0.998021 0
    outer loop
      vertex -78.3681 51.0959 10
      vertex -78.8935 51.0628 6
      vertex -78.3681 51.0959 6
    endloop
  endfacet
  facet normal 0.535707 -0.844404 0
    outer loop
      vertex -79.8386 50.6181 6
      vertex -79.3941 50.9001 10
      vertex -79.8386 50.6181 10
    endloop
  endfacet
  facet normal 0.535707 -0.844404 0
    outer loop
      vertex -79.3941 50.9001 10
      vertex -79.8386 50.6181 6
      vertex -79.3941 50.9001 6
    endloop
  endfacet
  facet normal 0.309095 -0.951031 0
    outer loop
      vertex -79.3941 50.9001 6
      vertex -78.8935 51.0628 10
      vertex -79.3941 50.9001 10
    endloop
  endfacet
  facet normal 0.309095 -0.951031 0
    outer loop
      vertex -78.8935 51.0628 10
      vertex -79.3941 50.9001 6
      vertex -78.8935 51.0628 6
    endloop
  endfacet
  facet normal 0.876264 -0.481831 0
    outer loop
      vertex -80.4525 49.7731 10
      vertex -80.1989 50.2343 6
      vertex -80.1989 50.2343 10
    endloop
  endfacet
  facet normal 0.876264 -0.481831 0
    outer loop
      vertex -80.1989 50.2343 6
      vertex -80.4525 49.7731 10
      vertex -80.4525 49.7731 6
    endloop
  endfacet
  facet normal 1 -0 0
    outer loop
      vertex -80.5834 48.7368 10
      vertex -80.5834 49.2632 6
      vertex -80.5834 49.2632 10
    endloop
  endfacet
  facet normal 1 0 0
    outer loop
      vertex -80.5834 49.2632 6
      vertex -80.5834 48.7368 10
      vertex -80.5834 48.7368 6
    endloop
  endfacet
  facet normal 0.968592 -0.248654 0
    outer loop
      vertex -80.5834 49.2632 10
      vertex -80.4525 49.7731 6
      vertex -80.4525 49.7731 10
    endloop
  endfacet
  facet normal 0.968592 -0.248654 0
    outer loop
      vertex -80.4525 49.7731 6
      vertex -80.5834 49.2632 10
      vertex -80.5834 49.2632 6
    endloop
  endfacet
  facet normal 0 0 1
    outer loop
      vertex -76.466 49.5222 6
      vertex -76.466 48.4778 6
      vertex -76.4 49 6
    endloop
  endfacet
  facet normal 0 0 1
    outer loop
      vertex -76.6598 50.0117 6
      vertex -76.466 48.4778 6
      vertex -76.466 49.5222 6
    endloop
  endfacet
  facet normal 0 0 1
    outer loop
      vertex -76.6598 50.0117 6
      vertex -76.6598 47.9883 6
      vertex -76.466 48.4778 6
    endloop
  endfacet
  facet normal 0 0 1
    outer loop
      vertex -76.9692 50.4375 6
      vertex -76.6598 47.9883 6
      vertex -76.6598 50.0117 6
    endloop
  endfacet
  facet normal 0 0 1
    outer loop
      vertex -76.9692 50.4375 6
      vertex -76.9692 47.5625 6
      vertex -76.6598 47.9883 6
    endloop
  endfacet
  facet normal 0 0 1
    outer loop
      vertex -77.3748 50.7731 6
      vertex -76.9692 47.5625 6
      vertex -76.9692 50.4375 6
    endloop
  endfacet
  facet normal 0 0 1
    outer loop
      vertex -77.3748 50.7731 6
      vertex -77.3748 47.2269 6
      vertex -76.9692 47.5625 6
    endloop
  endfacet
  facet normal 0 0 1
    outer loop
      vertex -77.8511 50.9972 6
      vertex -77.3748 47.2269 6
      vertex -77.3748 50.7731 6
    endloop
  endfacet
  facet normal 0 0 1
    outer loop
      vertex -77.8511 50.9972 6
      vertex -77.8511 47.0028 6
      vertex -77.3748 47.2269 6
    endloop
  endfacet
  facet normal 0 0 1
    outer loop
      vertex -78.3681 51.0959 6
      vertex -77.8511 47.0028 6
      vertex -77.8511 50.9972 6
    endloop
  endfacet
  facet normal 0 0 1
    outer loop
      vertex -78.3681 51.0959 6
      vertex -78.3681 46.9041 6
      vertex -77.8511 47.0028 6
    endloop
  endfacet
  facet normal 0 0 1
    outer loop
      vertex -80 50.4462 6
      vertex -78.3681 51.0959 6
      vertex -78.8935 51.0628 6
    endloop
  endfacet
  facet normal 0 0 1
    outer loop
      vertex -78.3681 51.0959 6
      vertex -80 50.4462 6
      vertex -78.3681 46.9041 6
    endloop
  endfacet
  facet normal 0 0 1
    outer loop
      vertex -80 50.4462 6
      vertex -78.8935 51.0628 6
      vertex -79.3941 50.9001 6
    endloop
  endfacet
  facet normal 0 0 1
    outer loop
      vertex -78.3681 46.9041 6
      vertex -80 50.4462 6
      vertex -78.8935 46.9372 6
    endloop
  endfacet
  facet normal 0 0 1
    outer loop
      vertex -79.9495 50.5 6
      vertex -79.3941 50.9001 6
      vertex -79.8386 50.6181 6
    endloop
  endfacet
  facet normal 0 0 1
    outer loop
      vertex -80 50.4462 6
      vertex -79.3941 50.9001 6
      vertex -79.9495 50.5 6
    endloop
  endfacet
  facet normal 0 0 1
    outer loop
      vertex -78.8935 46.9372 6
      vertex -80 50.4462 6
      vertex -79.3941 47.0999 6
    endloop
  endfacet
  facet normal 0 0 1
    outer loop
      vertex -79.3941 47.0999 6
      vertex -80 50.4462 6
      vertex -79.8386 47.3819 6
    endloop
  endfacet
  facet normal 0 0 1
    outer loop
      vertex -80.4525 49.7731 6
      vertex -80 50.4462 6
      vertex -80.1989 50.2343 6
    endloop
  endfacet
  facet normal 0 0 1
    outer loop
      vertex -80 50.4462 6
      vertex -80.1989 47.7657 6
      vertex -79.8386 47.3819 6
    endloop
  endfacet
  facet normal 0 0 1
    outer loop
      vertex -80.5834 49.2632 6
      vertex -80 50.4462 6
      vertex -80.4525 49.7731 6
    endloop
  endfacet
  facet normal 0 0 1
    outer loop
      vertex -80 50.4462 6
      vertex -80.4525 48.2269 6
      vertex -80.1989 47.7657 6
    endloop
  endfacet
  facet normal 0 0 1
    outer loop
      vertex -80 50.4462 6
      vertex -80.5834 49.2632 6
      vertex -80.4525 48.2269 6
    endloop
  endfacet
  facet normal 0 0 1
    outer loop
      vertex -80.4525 48.2269 6
      vertex -80.5834 49.2632 6
      vertex -80.5834 48.7368 6
    endloop
  endfacet
  facet normal -1 0 0
    outer loop
      vertex -80.5 0 5
      vertex -80.5 5 10
      vertex -80.5 5 5
    endloop
  endfacet
  facet normal -1 -0 0
    outer loop
      vertex -80.5 5 10
      vertex -80.5 0 5
      vertex -80.5 0 10
    endloop
  endfacet
  facet normal -0 0 1
    outer loop
      vertex -81.5 5 5
      vertex -80.5 0 5
      vertex -80.5 5 5
    endloop
  endfacet
  facet normal 0 0 1
    outer loop
      vertex -80.5 0 5
      vertex -81.5 5 5
      vertex -81.5 0 5
    endloop
  endfacet
  facet normal 1 -0 0
    outer loop
      vertex -81.5 0 10
      vertex -81.5 5 5
      vertex -81.5 5 10
    endloop
  endfacet
  facet normal 1 0 0
    outer loop
      vertex -81.5 5 5
      vertex -81.5 0 10
      vertex -81.5 0 5
    endloop
  endfacet
  facet normal 0 -1 0
    outer loop
      vertex -81.5 5 5
      vertex -80.5 5 10
      vertex -81.5 5 10
    endloop
  endfacet
  facet normal 0 -1 -0
    outer loop
      vertex -80.5 5 10
      vertex -81.5 5 5
      vertex -80.5 5 5
    endloop
  endfacet
  facet normal -0 0 1
    outer loop
      vertex -5 52 5
      vertex 0 51 5
      vertex 0 52 5
    endloop
  endfacet
  facet normal 0 0 1
    outer loop
      vertex 0 51 5
      vertex -5 52 5
      vertex -5 51 5
    endloop
  endfacet
  facet normal 1 -0 0
    outer loop
      vertex -5 51 10
      vertex -5 52 5
      vertex -5 52 10
    endloop
  endfacet
  facet normal 1 0 0
    outer loop
      vertex -5 52 5
      vertex -5 51 10
      vertex -5 51 5
    endloop
  endfacet
  facet normal 0 -1 0
    outer loop
      vertex -5 52 5
      vertex 0 52 10
      vertex -5 52 10
    endloop
  endfacet
  facet normal 0 -1 -0
    outer loop
      vertex 0 52 10
      vertex -5 52 5
      vertex 0 52 5
    endloop
  endfacet
  facet normal 0 1 -0
    outer loop
      vertex 0 51 5
      vertex -5 51 10
      vertex 0 51 10
    endloop
  endfacet
  facet normal 0 1 0
    outer loop
      vertex -5 51 10
      vertex 0 51 5
      vertex -5 51 5
    endloop
  endfacet
  facet normal 1 -0 0
    outer loop
      vertex -1.55 27.6 -7
      vertex -1.55 28 -10
      vertex -1.55 28 -7
    endloop
  endfacet
  facet normal 1 0 0
    outer loop
      vertex -1.55 28 -10
      vertex -1.55 27.6 -7
      vertex -1.55 27.6 -10
    endloop
  endfacet
  facet normal 0 -1 0
    outer loop
      vertex -1.55 28 -10
      vertex 0 28 -7
      vertex -1.55 28 -7
    endloop
  endfacet
  facet normal 0 -1 -0
    outer loop
      vertex 0 28 -7
      vertex -1.55 28 -10
      vertex 0 28 -10
    endloop
  endfacet
  facet normal 0 1 -0
    outer loop
      vertex 0 27.6 -10
      vertex -1.55 27.6 -7
      vertex 0 27.6 -7
    endloop
  endfacet
  facet normal 0 1 0
    outer loop
      vertex -1.55 27.6 -7
      vertex 0 27.6 -10
      vertex -1.55 27.6 -10
    endloop
  endfacet
  facet normal 1 -0 0
    outer loop
      vertex -1.55 35.6 -7
      vertex -1.55 36 -10
      vertex -1.55 36 -7
    endloop
  endfacet
  facet normal 1 0 0
    outer loop
      vertex -1.55 36 -10
      vertex -1.55 35.6 -7
      vertex -1.55 35.6 -10
    endloop
  endfacet
  facet normal 0 -1 0
    outer loop
      vertex -1.55 36 -10
      vertex 0 36 -7
      vertex -1.55 36 -7
    endloop
  endfacet
  facet normal 0 -1 -0
    outer loop
      vertex 0 36 -7
      vertex -1.55 36 -10
      vertex 0 36 -10
    endloop
  endfacet
  facet normal 0 1 -0
    outer loop
      vertex 0 35.6 -10
      vertex -1.55 35.6 -7
      vertex 0 35.6 -7
    endloop
  endfacet
  facet normal 0 1 0
    outer loop
      vertex -1.55 35.6 -7
      vertex 0 35.6 -10
      vertex -1.55 35.6 -10
    endloop
  endfacet
  facet normal -0.308899 -0.951095 0
    outer loop
      vertex -79.607 46.6474 -7
      vertex -78.9872 46.4461 10
      vertex -79.607 46.6474 10
    endloop
  endfacet
  facet normal -0.308899 -0.951095 -0
    outer loop
      vertex -78.9872 46.4461 10
      vertex -79.607 46.6474 -7
      vertex -78.9872 46.4461 -7
    endloop
  endfacet
  facet normal 0.929793 0.368082 0
    outer loop
      vertex -75.9817 49.6466 10
      vertex -76.2216 50.2526 -7
      vertex -76.2216 50.2526 10
    endloop
  endfacet
  facet normal 0.929793 0.368082 0
    outer loop
      vertex -76.2216 50.2526 -7
      vertex -75.9817 49.6466 10
      vertex -75.9817 49.6466 -7
    endloop
  endfacet
  facet normal 0.992112 0.125357 0
    outer loop
      vertex -75.9 49 10
      vertex -75.9817 49.6466 -7
      vertex -75.9817 49.6466 10
    endloop
  endfacet
  facet normal 0.992112 0.125357 0
    outer loop
      vertex -75.9817 49.6466 -7
      vertex -75.9 49 10
      vertex -75.9 49 -7
    endloop
  endfacet
  facet normal 0.808934 0.587899 0
    outer loop
      vertex -76.2216 50.2526 10
      vertex -76.4014 50.5 -7
      vertex -76.4014 50.5 10
    endloop
  endfacet
  facet normal 0.808934 0.587899 0
    outer loop
      vertex -76.4014 50.5 -7
      vertex -76.2216 50.2526 10
      vertex -76.2216 50.2526 -7
    endloop
  endfacet
  facet normal 0.808968 -0.587852 0
    outer loop
      vertex -76.6047 47.2202 10
      vertex -76.2216 47.7474 -7
      vertex -76.2216 47.7474 10
    endloop
  endfacet
  facet normal 0.808968 -0.587852 0
    outer loop
      vertex -76.2216 47.7474 -7
      vertex -76.6047 47.2202 10
      vertex -76.6047 47.2202 -7
    endloop
  endfacet
  facet normal 0.425605 -0.904909 0
    outer loop
      vertex -77.6966 46.5273 -7
      vertex -77.1068 46.8047 10
      vertex -77.6966 46.5273 10
    endloop
  endfacet
  facet normal 0.425605 -0.904909 0
    outer loop
      vertex -77.1068 46.8047 10
      vertex -77.6966 46.5273 -7
      vertex -77.1068 46.8047 -7
    endloop
  endfacet
  facet normal 0.637539 -0.770418 0
    outer loop
      vertex -77.1068 46.8047 -7
      vertex -76.6047 47.2202 10
      vertex -77.1068 46.8047 10
    endloop
  endfacet
  facet normal 0.637539 -0.770418 0
    outer loop
      vertex -76.6047 47.2202 10
      vertex -77.1068 46.8047 -7
      vertex -76.6047 47.2202 -7
    endloop
  endfacet
  facet normal 0.187521 -0.982261 0
    outer loop
      vertex -78.3367 46.4051 -7
      vertex -77.6966 46.5273 10
      vertex -78.3367 46.4051 10
    endloop
  endfacet
  facet normal 0.187521 -0.982261 0
    outer loop
      vertex -77.6966 46.5273 10
      vertex -78.3367 46.4051 -7
      vertex -77.6966 46.5273 -7
    endloop
  endfacet
  facet normal 0.929793 -0.368082 0
    outer loop
      vertex -76.2216 47.7474 10
      vertex -75.9817 48.3534 -7
      vertex -75.9817 48.3534 10
    endloop
  endfacet
  facet normal 0.929793 -0.368082 0
    outer loop
      vertex -75.9817 48.3534 -7
      vertex -76.2216 47.7474 10
      vertex -76.2216 47.7474 -7
    endloop
  endfacet
  facet normal 0.992112 -0.125357 0
    outer loop
      vertex -75.9817 48.3534 10
      vertex -75.9 49 -7
      vertex -75.9 49 10
    endloop
  endfacet
  facet normal 0.992112 -0.125357 0
    outer loop
      vertex -75.9 49 -7
      vertex -75.9817 48.3534 10
      vertex -75.9817 48.3534 -7
    endloop
  endfacet
  facet normal -0.535819 -0.844333 0
    outer loop
      vertex -80 46.8968 -7
      vertex -79.607 46.6474 10
      vertex -80 46.8968 10
    endloop
  endfacet
  facet normal -0.535819 -0.844333 -0
    outer loop
      vertex -79.607 46.6474 10
      vertex -80 46.8968 -7
      vertex -79.607 46.6474 -7
    endloop
  endfacet
  facet normal -0.0629036 -0.99802 0
    outer loop
      vertex -78.9872 46.4461 -7
      vertex -78.3367 46.4051 10
      vertex -78.9872 46.4461 10
    endloop
  endfacet
  facet normal -0.0629036 -0.99802 -0
    outer loop
      vertex -78.3367 46.4051 10
      vertex -78.9872 46.4461 -7
      vertex -78.3367 46.4051 -7
    endloop
  endfacet
  facet normal 0.968592 0.248654 0
    outer loop
      vertex -80.4525 48.2269 10
      vertex -80.5834 48.7368 6
      vertex -80.5834 48.7368 10
    endloop
  endfacet
  facet normal 0.968592 0.248654 0
    outer loop
      vertex -80.5834 48.7368 6
      vertex -80.4525 48.2269 10
      vertex -80.4525 48.2269 6
    endloop
  endfacet
  facet normal -0.425733 -0.904849 0
    outer loop
      vertex -77.8511 50.9972 6
      vertex -77.3748 50.7731 10
      vertex -77.8511 50.9972 10
    endloop
  endfacet
  facet normal -0.425733 -0.904849 -0
    outer loop
      vertex -77.3748 50.7731 10
      vertex -77.8511 50.9972 6
      vertex -77.3748 50.7731 6
    endloop
  endfacet
  facet normal -0.929781 -0.368113 0
    outer loop
      vertex -76.466 49.5222 6
      vertex -76.6598 50.0117 10
      vertex -76.6598 50.0117 6
    endloop
  endfacet
  facet normal -0.929781 -0.368113 0
    outer loop
      vertex -76.6598 50.0117 10
      vertex -76.466 49.5222 6
      vertex -76.466 49.5222 10
    endloop
  endfacet
  facet normal -0.992107 -0.125391 0
    outer loop
      vertex -76.4 49 6
      vertex -76.466 49.5222 10
      vertex -76.466 49.5222 6
    endloop
  endfacet
  facet normal -0.992107 -0.125391 0
    outer loop
      vertex -76.466 49.5222 10
      vertex -76.4 49 6
      vertex -76.4 49 10
    endloop
  endfacet
  facet normal -0.63749 -0.770459 0
    outer loop
      vertex -77.3748 50.7731 6
      vertex -76.9692 50.4375 10
      vertex -77.3748 50.7731 10
    endloop
  endfacet
  facet normal -0.63749 -0.770459 -0
    outer loop
      vertex -76.9692 50.4375 10
      vertex -77.3748 50.7731 6
      vertex -76.9692 50.4375 6
    endloop
  endfacet
  facet normal -0.425733 0.904849 0
    outer loop
      vertex -77.3748 47.2269 6
      vertex -77.8511 47.0028 10
      vertex -77.3748 47.2269 10
    endloop
  endfacet
  facet normal -0.425733 0.904849 0
    outer loop
      vertex -77.8511 47.0028 10
      vertex -77.3748 47.2269 6
      vertex -77.8511 47.0028 6
    endloop
  endfacet
  facet normal -0.929781 0.368113 0
    outer loop
      vertex -76.6598 47.9883 6
      vertex -76.466 48.4778 10
      vertex -76.466 48.4778 6
    endloop
  endfacet
  facet normal -0.929781 0.368113 0
    outer loop
      vertex -76.466 48.4778 10
      vertex -76.6598 47.9883 6
      vertex -76.6598 47.9883 10
    endloop
  endfacet
  facet normal -0.992107 0.125391 0
    outer loop
      vertex -76.466 48.4778 6
      vertex -76.4 49 10
      vertex -76.4 49 6
    endloop
  endfacet
  facet normal -0.992107 0.125391 0
    outer loop
      vertex -76.4 49 10
      vertex -76.466 48.4778 6
      vertex -76.466 48.4778 10
    endloop
  endfacet
  facet normal -0.187522 0.98226 0
    outer loop
      vertex -77.8511 47.0028 6
      vertex -78.3681 46.9041 10
      vertex -77.8511 47.0028 10
    endloop
  endfacet
  facet normal -0.187522 0.98226 0
    outer loop
      vertex -78.3681 46.9041 10
      vertex -77.8511 47.0028 6
      vertex -78.3681 46.9041 6
    endloop
  endfacet
  facet normal -0.63749 0.770459 0
    outer loop
      vertex -76.9692 47.5625 6
      vertex -77.3748 47.2269 10
      vertex -76.9692 47.5625 10
    endloop
  endfacet
  facet normal -0.63749 0.770459 0
    outer loop
      vertex -77.3748 47.2269 10
      vertex -76.9692 47.5625 6
      vertex -77.3748 47.2269 6
    endloop
  endfacet
  facet normal 0.535707 0.844404 -0
    outer loop
      vertex -79.3941 47.0999 6
      vertex -79.8386 47.3819 10
      vertex -79.3941 47.0999 10
    endloop
  endfacet
  facet normal 0.535707 0.844404 0
    outer loop
      vertex -79.8386 47.3819 10
      vertex -79.3941 47.0999 6
      vertex -79.8386 47.3819 6
    endloop
  endfacet
  facet normal 0.729075 0.684434 0
    outer loop
      vertex -79.8386 47.3819 10
      vertex -80.1989 47.7657 6
      vertex -80.1989 47.7657 10
    endloop
  endfacet
  facet normal 0.729075 0.684434 0
    outer loop
      vertex -80.1989 47.7657 6
      vertex -79.8386 47.3819 10
      vertex -79.8386 47.3819 6
    endloop
  endfacet
  facet normal -0.808982 0.587833 0
    outer loop
      vertex -76.9692 47.5625 6
      vertex -76.6598 47.9883 10
      vertex -76.6598 47.9883 6
    endloop
  endfacet
  facet normal -0.808982 0.587833 0
    outer loop
      vertex -76.6598 47.9883 10
      vertex -76.9692 47.5625 6
      vertex -76.9692 47.5625 10
    endloop
  endfacet
  facet normal -0.187522 -0.98226 0
    outer loop
      vertex -78.3681 51.0959 6
      vertex -77.8511 50.9972 10
      vertex -78.3681 51.0959 10
    endloop
  endfacet
  facet normal -0.187522 -0.98226 -0
    outer loop
      vertex -77.8511 50.9972 10
      vertex -78.3681 51.0959 6
      vertex -77.8511 50.9972 6
    endloop
  endfacet
  facet normal -0.808982 -0.587833 0
    outer loop
      vertex -76.6598 50.0117 6
      vertex -76.9692 50.4375 10
      vertex -76.9692 50.4375 6
    endloop
  endfacet
  facet normal -0.808982 -0.587833 0
    outer loop
      vertex -76.9692 50.4375 10
      vertex -76.6598 50.0117 6
      vertex -76.6598 50.0117 10
    endloop
  endfacet
  facet normal 0.876264 0.481831 0
    outer loop
      vertex -80.1989 47.7657 10
      vertex -80.4525 48.2269 6
      vertex -80.4525 48.2269 10
    endloop
  endfacet
  facet normal 0.876264 0.481831 0
    outer loop
      vertex -80.4525 48.2269 6
      vertex -80.1989 47.7657 10
      vertex -80.1989 47.7657 6
    endloop
  endfacet
  facet normal 0.062875 0.998021 -0
    outer loop
      vertex -78.3681 46.9041 6
      vertex -78.8935 46.9372 10
      vertex -78.3681 46.9041 10
    endloop
  endfacet
  facet normal 0.062875 0.998021 0
    outer loop
      vertex -78.8935 46.9372 10
      vertex -78.3681 46.9041 6
      vertex -78.8935 46.9372 6
    endloop
  endfacet
  facet normal 0.309095 0.951031 -0
    outer loop
      vertex -78.8935 46.9372 6
      vertex -79.3941 47.0999 10
      vertex -78.8935 46.9372 10
    endloop
  endfacet
  facet normal 0.309095 0.951031 0
    outer loop
      vertex -79.3941 47.0999 10
      vertex -78.8935 46.9372 6
      vertex -79.3941 47.0999 6
    endloop
  endfacet
  facet normal 1 -0 0
    outer loop
      vertex -13.5 42 -1
      vertex -13.5 50.5 -7
      vertex -13.5 50.5 -1
    endloop
  endfacet
  facet normal 1 0 0
    outer loop
      vertex -13.5 50.5 -7
      vertex -13.5 42 -1
      vertex -13.5 42 -7
    endloop
  endfacet
  facet normal 0 0 1
    outer loop
      vertex -30.5 50.5 -1
      vertex -31.5 50.5 -1
      vertex -30.5 43 -1
    endloop
  endfacet
  facet normal 0 0 1
    outer loop
      vertex -14.5 43 -1
      vertex -13.5 50.5 -1
      vertex -14.5 50.5 -1
    endloop
  endfacet
  facet normal 0 0 1
    outer loop
      vertex -13.5 50.5 -1
      vertex -14.5 43 -1
      vertex -13.5 42 -1
    endloop
  endfacet
  facet normal -0 0 1
    outer loop
      vertex -30.5 43 -1
      vertex -13.5 42 -1
      vertex -14.5 43 -1
    endloop
  endfacet
  facet normal 0 0 1
    outer loop
      vertex -30.5 43 -1
      vertex -31.5 42 -1
      vertex -13.5 42 -1
    endloop
  endfacet
  facet normal 0 0 1
    outer loop
      vertex -31.5 42 -1
      vertex -30.5 43 -1
      vertex -31.5 50.5 -1
    endloop
  endfacet
  facet normal -1 0 0
    outer loop
      vertex -31.5 42 -7
      vertex -31.5 50.5 -1
      vertex -31.5 50.5 -7
    endloop
  endfacet
  facet normal -1 -0 0
    outer loop
      vertex -31.5 50.5 -1
      vertex -31.5 42 -7
      vertex -31.5 42 -1
    endloop
  endfacet
  facet normal 0 -1 0
    outer loop
      vertex -31.5 42 -7
      vertex -13.5 42 -1
      vertex -31.5 42 -1
    endloop
  endfacet
  facet normal 0 -1 -0
    outer loop
      vertex -13.5 42 -1
      vertex -31.5 42 -7
      vertex -13.5 42 -7
    endloop
  endfacet
  facet normal -1 0 0
    outer loop
      vertex -14.5 43 -7
      vertex -14.5 50.5 -1
      vertex -14.5 50.5 -7
    endloop
  endfacet
  facet normal -1 -0 0
    outer loop
      vertex -14.5 50.5 -1
      vertex -14.5 43 -7
      vertex -14.5 43 -1
    endloop
  endfacet
  facet normal 1 -0 0
    outer loop
      vertex -30.5 43 -1
      vertex -30.5 50.5 -7
      vertex -30.5 50.5 -1
    endloop
  endfacet
  facet normal 1 0 0
    outer loop
      vertex -30.5 50.5 -7
      vertex -30.5 43 -1
      vertex -30.5 43 -7
    endloop
  endfacet
  facet normal 0 1 -0
    outer loop
      vertex -14.5 43 -7
      vertex -30.5 43 -1
      vertex -14.5 43 -1
    endloop
  endfacet
  facet normal 0 1 0
    outer loop
      vertex -30.5 43 -1
      vertex -14.5 43 -7
      vertex -30.5 43 -7
    endloop
  endfacet
  facet normal 1 -0 0
    outer loop
      vertex -48.5 42 -1
      vertex -48.5 50.5 -7
      vertex -48.5 50.5 -1
    endloop
  endfacet
  facet normal 1 0 0
    outer loop
      vertex -48.5 50.5 -7
      vertex -48.5 42 -1
      vertex -48.5 42 -7
    endloop
  endfacet
  facet normal 0 0 1
    outer loop
      vertex -65.5 50.5 -1
      vertex -66.5 50.5 -1
      vertex -65.5 43 -1
    endloop
  endfacet
  facet normal 0 0 1
    outer loop
      vertex -49.5 43 -1
      vertex -48.5 50.5 -1
      vertex -49.5 50.5 -1
    endloop
  endfacet
  facet normal 0 0 1
    outer loop
      vertex -48.5 50.5 -1
      vertex -49.5 43 -1
      vertex -48.5 42 -1
    endloop
  endfacet
  facet normal -0 0 1
    outer loop
      vertex -65.5 43 -1
      vertex -48.5 42 -1
      vertex -49.5 43 -1
    endloop
  endfacet
  facet normal 0 0 1
    outer loop
      vertex -65.5 43 -1
      vertex -66.5 42 -1
      vertex -48.5 42 -1
    endloop
  endfacet
  facet normal 0 0 1
    outer loop
      vertex -66.5 42 -1
      vertex -65.5 43 -1
      vertex -66.5 50.5 -1
    endloop
  endfacet
  facet normal -1 0 0
    outer loop
      vertex -66.5 42 -7
      vertex -66.5 50.5 -1
      vertex -66.5 50.5 -7
    endloop
  endfacet
  facet normal -1 -0 0
    outer loop
      vertex -66.5 50.5 -1
      vertex -66.5 42 -7
      vertex -66.5 42 -1
    endloop
  endfacet
  facet normal 0 -1 0
    outer loop
      vertex -66.5 42 -7
      vertex -48.5 42 -1
      vertex -66.5 42 -1
    endloop
  endfacet
  facet normal 0 -1 -0
    outer loop
      vertex -48.5 42 -1
      vertex -66.5 42 -7
      vertex -48.5 42 -7
    endloop
  endfacet
  facet normal -1 0 0
    outer loop
      vertex -49.5 43 -7
      vertex -49.5 50.5 -1
      vertex -49.5 50.5 -7
    endloop
  endfacet
  facet normal -1 -0 0
    outer loop
      vertex -49.5 50.5 -1
      vertex -49.5 43 -7
      vertex -49.5 43 -1
    endloop
  endfacet
  facet normal 1 -0 0
    outer loop
      vertex -65.5 43 -1
      vertex -65.5 50.5 -7
      vertex -65.5 50.5 -1
    endloop
  endfacet
  facet normal 1 0 0
    outer loop
      vertex -65.5 50.5 -7
      vertex -65.5 43 -1
      vertex -65.5 43 -7
    endloop
  endfacet
  facet normal 0 1 -0
    outer loop
      vertex -49.5 43 -7
      vertex -65.5 43 -1
      vertex -49.5 43 -1
    endloop
  endfacet
  facet normal 0 1 0
    outer loop
      vertex -65.5 43 -1
      vertex -49.5 43 -7
      vertex -65.5 43 -7
    endloop
  endfacet
  facet normal 1 0 0
    outer loop
      vertex 0 51 10
      vertex 0 50.5 10
      vertex 0 51 5
    endloop
  endfacet
  facet normal 1 0 0
    outer loop
      vertex 0 52 5
      vertex 0 52.5 10
      vertex 0 52 10
    endloop
  endfacet
  facet normal 1 0 0
    outer loop
      vertex 0 52.5 10
      vertex 0 52 5
      vertex 0 52.5 -10
    endloop
  endfacet
  facet normal 1 0 0
    outer loop
      vertex 0 50.5 -7
      vertex 0 52 5
      vertex 0 51 5
    endloop
  endfacet
  facet normal 1 0 0
    outer loop
      vertex 0 50.5 -7
      vertex 0 51 5
      vertex 0 50.5 10
    endloop
  endfacet
  facet normal 1 0 0
    outer loop
      vertex 0 52 5
      vertex 0 50.5 -7
      vertex 0 52.5 -10
    endloop
  endfacet
  facet normal 1 0 0
    outer loop
      vertex 0 36 -10
      vertex 0 50.5 -7
      vertex 0 36 -7
    endloop
  endfacet
  facet normal 1 0 0
    outer loop
      vertex 0 50.5 -7
      vertex 0 36 -10
      vertex 0 52.5 -10
    endloop
  endfacet
  facet normal 1 -0 0
    outer loop
      vertex 0 28 -7
      vertex 0 35.6 -10
      vertex 0 35.6 -7
    endloop
  endfacet
  facet normal 1 0 0
    outer loop
      vertex 0 35.6 -10
      vertex 0 28 -7
      vertex 0 28 -10
    endloop
  endfacet
  facet normal 1 -0 0
    outer loop
      vertex 0 0 -7
      vertex 0 27.6 -10
      vertex 0 27.6 -7
    endloop
  endfacet
  facet normal 1 0 0
    outer loop
      vertex 0 27.6 -10
      vertex 0 0 -7
      vertex 0 0 -10
    endloop
  endfacet
  facet normal 0 -1 0
    outer loop
      vertex -82 0 10
      vertex -81.5 0 5
      vertex -81.5 0 10
    endloop
  endfacet
  facet normal 0 -1 0
    outer loop
      vertex -81.5 0 5
      vertex -80 0 -7
      vertex -80.5 0 5
    endloop
  endfacet
  facet normal 0 -1 0
    outer loop
      vertex -82 0 -10
      vertex -81.5 0 5
      vertex -82 0 10
    endloop
  endfacet
  facet normal 0 -1 0
    outer loop
      vertex -82 0 -10
      vertex -80 0 -7
      vertex -81.5 0 5
    endloop
  endfacet
  facet normal 0 -1 0
    outer loop
      vertex -68.75 0 -10
      vertex -80 0 -7
      vertex -82 0 -10
    endloop
  endfacet
  facet normal 0 -1 0
    outer loop
      vertex -80 0 -7
      vertex -68.75 0 -10
      vertex -68.75 0 -7
    endloop
  endfacet
  facet normal 0 -1 0
    outer loop
      vertex -80.5 0 5
      vertex -80 0 10
      vertex -80.5 0 10
    endloop
  endfacet
  facet normal 0 -1 -0
    outer loop
      vertex -80 0 10
      vertex -80.5 0 5
      vertex -80 0 -7
    endloop
  endfacet
  facet normal 0 -1 0
    outer loop
      vertex -6.25 0 -9
      vertex -6.25 0 -10
      vertex -1.25 0 -9
    endloop
  endfacet
  facet normal 0 -1 0
    outer loop
      vertex -1.25 0 -9
      vertex 0 0 -7
      vertex -1.25 0 -7
    endloop
  endfacet
  facet normal 0 -1 0
    outer loop
      vertex -1.25 0 -9
      vertex 0 0 -10
      vertex 0 0 -7
    endloop
  endfacet
  facet normal 0 -1 0
    outer loop
      vertex 0 0 -10
      vertex -1.25 0 -9
      vertex -6.25 0 -10
    endloop
  endfacet
endsolid OpenSCAD_Model
