solid OpenSCAD_Model
  facet normal 1 -0 0
    outer loop
      vertex 7 -2 1
      vertex 7 2 -0.875
      vertex 7 2 1
    endloop
  endfacet
  facet normal 1 0 0
    outer loop
      vertex 7 2 -0.875
      vertex 7 -2 1
      vertex 7 -2 -0.875
    endloop
  endfacet
  facet normal -0 0 1
    outer loop
      vertex -7 2 1
      vertex 7 -2 1
      vertex 7 2 1
    endloop
  endfacet
  facet normal 0 0 1
    outer loop
      vertex 7 -2 1
      vertex -7 2 1
      vertex -7 -2 1
    endloop
  endfacet
  facet normal -1 0 0
    outer loop
      vertex -7 -2 -0.875
      vertex -7 2 1
      vertex -7 2 -0.875
    endloop
  endfacet
  facet normal -1 -0 0
    outer loop
      vertex -7 2 1
      vertex -7 -2 -0.875
      vertex -7 -2 1
    endloop
  endfacet
  facet normal 0 1 -0
    outer loop
      vertex 7 2 -0.875
      vertex -7 2 1
      vertex 7 2 1
    endloop
  endfacet
  facet normal 0 1 0
    outer loop
      vertex -7 2 1
      vertex 7 2 -0.875
      vertex -7 2 -0.875
    endloop
  endfacet
  facet normal 0 -1 0
    outer loop
      vertex -7 -2 -0.875
      vertex 7 -2 1
      vertex -7 -2 1
    endloop
  endfacet
  facet normal 0 -1 -0
    outer loop
      vertex 7 -2 1
      vertex -7 -2 -0.875
      vertex 7 -2 -0.875
    endloop
  endfacet
  facet normal 1 -0 0
    outer loop
      vertex 8 -3 -0.875
      vertex 8 3 -1.125
      vertex 8 3 -0.875
    endloop
  endfacet
  facet normal 1 0 0
    outer loop
      vertex 8 3 -1.125
      vertex 8 -3 -0.875
      vertex 8 -3 -1.125
    endloop
  endfacet
  facet normal 0 0 1
    outer loop
      vertex 8 3 -0.875
      vertex 7 2 -0.875
      vertex 8 -3 -0.875
    endloop
  endfacet
  facet normal 0 0 1
    outer loop
      vertex 8 3 -0.875
      vertex -7 2 -0.875
      vertex 7 2 -0.875
    endloop
  endfacet
  facet normal 0 0 1
    outer loop
      vertex -7 2 -0.875
      vertex -8 3 -0.875
      vertex -7 -2 -0.875
    endloop
  endfacet
  facet normal -0 0 1
    outer loop
      vertex -8 3 -0.875
      vertex -7 2 -0.875
      vertex 8 3 -0.875
    endloop
  endfacet
  facet normal -0 0 1
    outer loop
      vertex 7 -2 -0.875
      vertex 8 -3 -0.875
      vertex 7 2 -0.875
    endloop
  endfacet
  facet normal -0 0 1
    outer loop
      vertex -7 -2 -0.875
      vertex 8 -3 -0.875
      vertex 7 -2 -0.875
    endloop
  endfacet
  facet normal 0 0 1
    outer loop
      vertex -7 -2 -0.875
      vertex -8 -3 -0.875
      vertex 8 -3 -0.875
    endloop
  endfacet
  facet normal 0 0 1
    outer loop
      vertex -8 -3 -0.875
      vertex -7 -2 -0.875
      vertex -8 3 -0.875
    endloop
  endfacet
  facet normal 0 0 -1
    outer loop
      vertex -8 -3 -1.125
      vertex 8 3 -1.125
      vertex 8 -3 -1.125
    endloop
  endfacet
  facet normal -0 0 -1
    outer loop
      vertex 8 3 -1.125
      vertex -8 -3 -1.125
      vertex -8 3 -1.125
    endloop
  endfacet
  facet normal -1 0 0
    outer loop
      vertex -8 -3 -1.125
      vertex -8 3 -0.875
      vertex -8 3 -1.125
    endloop
  endfacet
  facet normal -1 -0 0
    outer loop
      vertex -8 3 -0.875
      vertex -8 -3 -1.125
      vertex -8 -3 -0.875
    endloop
  endfacet
  facet normal 0 1 -0
    outer loop
      vertex 8 3 -1.125
      vertex -8 3 -0.875
      vertex 8 3 -0.875
    endloop
  endfacet
  facet normal 0 1 0
    outer loop
      vertex -8 3 -0.875
      vertex 8 3 -1.125
      vertex -8 3 -1.125
    endloop
  endfacet
  facet normal 0 -1 0
    outer loop
      vertex -8 -3 -1.125
      vertex 8 -3 -0.875
      vertex -8 -3 -0.875
    endloop
  endfacet
  facet normal 0 -1 -0
    outer loop
      vertex 8 -3 -0.875
      vertex -8 -3 -1.125
      vertex 8 -3 -1.125
    endloop
  endfacet
endsolid OpenSCAD_Model
